<ttFont>
          <CharString index="0">
            379 -5 rmoveto
            186 144 169 191 177 -134 183 -196 -187 -144 -171 -189 -182 135 -177 196 -1 hvcurveto
            -311 360 rmoveto
            168 126 172 185 176 134 -163 -177 -167 -125 -173 -185 -180 -131 163 177 vhcurveto
            return
          </CharString>
          <CharString index="1">
            378 15 rmoveto
            -210 -60 169 171 hvcurveto
            355 -20 -355 vlineto
            -178 66 -182 225 218 72 172 188 vhcurveto
            355 -20 -355 vlineto
            -166 -57 -174 -214 vhcurveto
            return
          </CharString>
          <CharString index="2">
            -10 rmoveto
            116 77 58 91 90 -76 19 -124 29 hvcurveto
            -102 24 -45 13 69 vvcurveto
            87 73 37 86 66 64 -22 -41 25 vhcurveto
            18 8 rlineto
            43 -23 -62 32 -84 hhcurveto
            -98 -85 -44 -103 -83 55 -14 111 -26 hvcurveto
            116 -27 65 -19 -75 vvcurveto
            -79 -71 -47 -102 -74 -56 25 52 -53 vhcurveto
            -15 -13 rlineto
            -57 52 67 -27 79 hhcurveto
            return
          </CharString>
          <CharString index="3">
            -89 74 -70 94 vhcurveto
            30 callsubr
            62 58 -10 -21 54 hvcurveto
            -103 vlineto
            -12 -5 -15 -10 -14 vhcurveto
            -56 -36 -80 -36 -89 hhcurveto
            return
          </CharString>
          <CharString index="4">
            119 hmoveto
            279 264 vlineto
            180 -279 rlineto
            24 hlineto
            -180 279 rlineto
            107 8 74 98 110 vvcurveto
            106 -84 109 -116 vhcurveto
            -289 -710 hlineto
            20 690 rmoveto
            269 hlineto
            100 80 -94 -101 -98 -66 -98 -107 hvcurveto
            -276 hlineto
            return
          </CharString>
          <CharString index="5">
            20 vstem
            46 262 rmoveto
            -149 114 -123 137 90 88 53 70 23 vhcurveto
            -20 6 rlineto
            -57 -16 -87 -52 -81 hhcurveto
            -124 -104 115 137 137 100 108 127 76 68 -39 -64 34 hvcurveto
            20 7 rlineto
            73 -35 -73 43 -87 hhcurveto
            -141 -109 -116 -149 hvcurveto
            return
          </CharString>
          <CharString index="6">
            327 hmoveto
            204 129 141 215 196 -110 158 -223 hvcurveto
            -228 -710 hlineto
            541 356 rmoveto
            -191 -107 -145 -206 vhcurveto
            -208 670 208 hlineto
            201 112 -140 -194 hvcurveto
            return
          </CharString>
          <CharString index="7">
            rmoveto
            -28 -27 30 30 hvcurveto
            -19 hlineto
            -41 35 -36 39 39 35 36 41 vhcurveto
            -18 hlineto
            -33 -4 -25 -27 -27 hhcurveto
            endchar
          </CharString>
          <CharString index="8">
            -51 -22 38 -52 hhcurveto
            -66 -7 -61 -6 hvcurveto
            20 hlineto
            6 8 42 43 vhcurveto
            41 25 -38 59 hhcurveto
            endchar
          </CharString>
          <CharString index="9">
            128 -223 rmoveto
            14 15 2 3 12 hvcurveto
            15 4 10 10 8 18 309 705 rcurveline
            -22 hlineto
            -217 -494 -229 494 -44 callsubr
            241 -519 -69 -158 -11 -26 -7 -9 rlinecurve
            -9 -7 -17 -1 -23 hhcurveto
            return
          </CharString>
          <CharString index="10">
            36 -223 20 193 20 497 36 callsubr
            46 20 433 20 hintmask 11011110
            -96 callgsubr
            hintmask 11101110
            -97 callgsubr
            return
          </CharString>
          <CharString index="11">
            rmoveto
            93 -74 rlineto
            16 hlineto
            93 74 -16 12 -85 -63 -85 63 rlineto
            endchar
          </CharString>
          <CharString index="12">
            306 519 rmoveto
            -8 -12 -1 -1 -13 hvcurveto
            -68 -8 -65 -51 -36 -73 rrcurveto
            134 -2 callsubr
            20 328 vlineto
            28 103 76 64 98 4 rrcurveto
            return
          </CharString>
          <CharString index="13">
            333 383 20 -383 317 437 20 -457 return
          </CharString>
          <CharString index="14">
            77 -20 -77 vlineto
            endchar
          </CharString>
          <CharString index="15">
            vlineto
            -95 callgsubr
            return
          </CharString>
          <CharString index="16">
            -48 -13 -50 -36 -52 vvcurveto
            -58 58 -51 89 80 70 42 65 vhcurveto
            -20 2 rmoveto
            -56 -66 -35 -62 -59 -70 33 57 vhcurveto
            return
          </CharString>
          <CharString index="17">
            -64 73 rlineto
            -34 hlineto
            -18 -85 -58 callsubr
            endchar
          </CharString>
          <CharString index="18">
            hstem
            99 20 vstem
            -102 callgsubr
            return
          </CharString>
          <CharString index="19">
            19 -260 vlineto
            40 8 65 105 36 vhcurveto
            56 19 90 20 80 vvcurveto
            57 -42 52 -90 -97 -47 -62 -5 -3 vhcurveto
            15 -12 rlineto
            22 17 40 38 73 hhcurveto
            77 36 -43 -46 -69 -80 -16 -60 -22 hvcurveto
            -76 -28 -47 -46 -99 vvcurveto
            endchar
          </CharString>
          <CharString index="20">
            525 -10 30 1 -47 callsubr
            46 20 433 20 hintmask 10101110
            -61 callgsubr
            hintmask 01101110
            5 callsubr
            hintmask 10101110
            -20 callsubr
            -1 callgsubr
            -332 vlineto
            69 -42 -75 60 -95 hhcurveto
            -139 -102 -126 -143 -133 105 -135 145 hvcurveto
            -87 callgsubr
            hintmask 01101110
            341 -10 rmoveto
            417 hlineto
            hintmask 10011110
            20 -391 vlineto
            395 479 rlineto
            20 -416 -20 391 vlineto
            -396 -479 rlineto
            return
          </CharString>
          <CharString index="21">
            23 -22 callsubr
            287 -433 rlineto
            -277 20 275 vlineto
            288 435 rlineto
            -23 hlineto
            -275 -412 -274 412 rlineto
            return
          </CharString>
          <CharString index="22">
            19 -210 vlineto
            -1 -8 -41 -170 -7 -32 rrcurveto
            21 hlineto
            30 24 42 19 45 hhcurveto
            63 64 -37 -66 -61 -55 -45 -72 -54 -46 26 39 -23 hvcurveto
            -17 -6 rlineto
            return
          </CharString>
          <CharString index="23">
            73 8 58 9 hvcurveto
            -20 hlineto
            -4 -4 -44 -55 vhcurveto
            return
          </CharString>
          <CharString index="24">
            rmoveto
            -72 67 -59 83 63 57 34 49 19 vhcurveto
            -123 -56 -71 -82 -52 -45 27 41 -16 vhcurveto
            -15 -10 rlineto
            -47 19 50 -29 59 hhcurveto
            94 64 74 164 95 -67 58 -89 -85 -68 -58 -73 hvcurveto
            152 113 rmoveto
            73 61 -52 -61 -61 -60 -52 -73 -72 -61 52 62 61 59 51 73 hvcurveto
            endchar
          </CharString>
          <CharString index="25">
            -49 32 -33 47 18 33 6 6 18 vhcurveto
            -7 16 rlineto
            -5 -17 -23 -4 -15 hhcurveto
            -40 -26 24 39 hvcurveto
            return
          </CharString>
          <CharString index="26">
            -349 21 -21 710 -20 228 -65 callsubr
            return
          </CharString>
          <CharString index="27">
            563 20 -538 hlineto
            542 670 rlineto
            20 -562 -20 537 vlineto
            -542 -670 rlineto
            return
          </CharString>
          <CharString index="28">
            -18 22 vlineto
            89 60 -34 -53 -49 -55 -36 -72 -73 -57 39 45 -3 hvcurveto
            -16 -7 rlineto
            return
          </CharString>
          <CharString index="29">
            -2 21 -47 callsubr
            84 20 363 20 hintmask 11011100
            -69 callsubr
            hintmask 10111100
            134 -2 callsubr
            20 328 vlineto
            hintmask 11011100
            -68 callgsubr
            return
          </CharString>
          <CharString index="30">
            -379 21 -70 callsubr
            return
          </CharString>
          <CharString index="31">
            rmoveto
            16 12 -65 73 rlineto
            -33 hlineto
            endchar
          </CharString>
          <CharString index="32">
            555 -20 -555 -92 callsubr
            return
          </CharString>
          <CharString index="33">
            37 14 callgsubr
            203 -20 hstemhm
            46 20 433 20 hintmask 10111100
            -61 callgsubr
            hintmask 01111100
            5 callsubr
            -20 callsubr
            -1 callgsubr
            -332 vlineto
            69 -42 -75 60 -95 hhcurveto
            -139 -102 -126 -143 hvcurveto
            hintmask 10111100
            -133 105 -135 145 vhcurveto
            -87 callgsubr
            return
          </CharString>
          <CharString index="34">
            -10 25 34 -9 35 hhcurveto
            50 31 17 40 35 -23 19 -45 -10 -19 -1 -5 -13 hvcurveto
            return
          </CharString>
          <CharString index="35">
            41 -35 36 -39 -39 -35 -36 -41 vhcurveto
            19 hlineto
            return
          </CharString>
          <CharString index="36">
            21 -29 callsubr
            return
          </CharString>
          <CharString index="37">
            -52 callsubr
            231 -20 hstem
            84 20 vstem
            -64 callsubr
            return
          </CharString>
          <CharString index="38">
            487 289 rmoveto
            163 -48 75 -106 -93 -93 -58 -84 -43 vhcurveto
            return
          </CharString>
          <CharString index="39">
            36 -192 -21 203 -49 callgsubr
            -8 -20 hstemhm
            84 20 433 20 hintmask 11101100
            316 -10 rmoveto
            145 96 126 142 133 -104 136 -146 -79 -80 -49 -69 -44 hvcurveto
            hintmask 11011100
            110 -20 -732 20 332 vlineto
            -70 45 75 -59 92 hhcurveto
            20 vmoveto
            -92 -83 67 84 -37 hvcurveto
            187 vlineto
            hintmask 11101100
            83 5 118 76 80 hhcurveto
            128 102 -119 -130 -123 -86 -125 -135 hvcurveto
            endchar
          </CharString>
          <CharString index="40">
            rmoveto
            109 67 100 94 84 -60 110 -116 -109 -68 -102 -92 -86 60 -107 117 -1 hvcurveto
            -157 194 rmoveto
            74 52 101 105 97 59 -93 -82 -74 -52 -101 -104 -100 -57 93 82 vhcurveto
            endchar
          </CharString>
          <CharString index="41">
            rmoveto
            -134 108 -109 134 106 95 68 99 31 vhcurveto
            -246 -93 -141 -138 -86 -75 54 80 -25 vhcurveto
            -19 -7 rlineto
            -90 29 80 -57 97 hhcurveto
            148 104 138 311 171 -109 105 -141 -137 -109 -108 -134 hvcurveto
            244 222 rmoveto
            123 103 -101 -121 -121 -102 -102 -123 -122 -103 102 122 121 101 100 123 hvcurveto
            endchar
          </CharString>
          <CharString index="42">
            -20 hstem
            99 20 vstem
            119 hmoveto
            -39 callsubr
            -710 vlineto
            return
          </CharString>
          <CharString index="43">
            104 hmoveto
            519 -2 callsubr
            vlineto
            return
          </CharString>
          <CharString index="44">
            151 0 20 327 20 323 20 hstem
            106 20 521 20 vstem
            334 hmoveto
            204 129 141 215 196 -110 158 -223 hvcurveto
            -228 -343 -71 -20 71 -347 hlineto
            541 356 rmoveto
            -191 -107 -145 -206 vhcurveto
            -208 327 192 20 -192 323 19 callsubr
          </CharString>
          <CharString index="45">
            rmoveto
            -32 25 -25 32 32 25 25 32 32 -25 25 -32 -32 -25 -25 -32 vhcurveto
            return
          </CharString>
          <CharString index="46">
            444 rmoveto
            76 62 62 76 76 -62 62 -76 -76 -62 -62 -76 -76 62 -62 76 hvcurveto
            20 vmoveto
            -64 -54 52 66 62 52 56 66 62 56 -52 -66 -62 -52 -56 -66 hvcurveto
            299 -474 rmoveto
            76 62 61 77 76 -62 62 -76 -76 -62 -62 -76 -77 62 -61 76 hvcurveto
            20 vmoveto
            -65 -53 52 66 62 52 56 66 62 56 -53 -65 -63 -52 -55 -66 hvcurveto
            return
          </CharString>
          <CharString index="47">
            rmoveto
            27 25 -27 -33 4 hvcurveto
            18 hlineto
            return
          </CharString>
          <CharString index="48">
            -133 105 -135 145 hvcurveto
            -28 callsubr
            return
          </CharString>
          <CharString index="49">
            rmoveto
            16 12 -64 73 rlineto
            -34 hlineto
            return
          </CharString>
          <CharString index="50">
            107 21 -45 callgsubr
            return
          </CharString>
          <CharString index="51">
            20 vlineto
            -10 -6 return
          </CharString>
          <CharString index="52">
            -67 callgsubr
            hstem
            return
          </CharString>
          <CharString index="53">
            519 -20 return
          </CharString>
          <CharString index="54">
            rmoveto
            82 65 43 59 49 -40 39 -61 10 hvcurveto
            return
          </CharString>
          <CharString index="55">
            -21 -54 callsubr
            return
          </CharString>
          <CharString index="56">
            639 hmoveto
            20 338 -187 -20 167 -169 hlineto
            return
          </CharString>
          <CharString index="57">
            rmoveto
            77 -20 -77 vlineto
            return
          </CharString>
          <CharString index="58">
            -20 -110 vlineto
            hintmask 11101100
            66 -41 -80 52 -82 hhcurveto
            -139 -111 -128 -141 -135 95 -133 146 hvcurveto
            20 vmoveto
            -128 -93 117 131 123 95 126 135 88 106 -76 -83 9 hvcurveto
            -187 vlineto
            -79 -40 -73 -72 -99 hhcurveto
            endchar
          </CharString>
          <CharString index="59">
            50 -36 62 -22 69 -1 rrcurveto
            186 144 169 191 108 -50 110 -83 69 hvcurveto
            43 68 rlineto
            70 -355 rmoveto
            -167 -125 -173 -185 -65 -58 21 35 -48 vhcurveto
            357 554 rlineto
            76 -64 48 -101 -105 vvcurveto
            -621 hmoveto
            return
          </CharString>
          <CharString index="60">
            -21 507 36 callsubr
            return
          </CharString>
          <CharString index="61">
            -20 hstem
            160 -8 rmoveto
            57 36 32 136 68 hvcurveto
            274 550 rlineto
            -23 hlineto
            -262 -525 -262 525 rlineto
            -23 hlineto
            274 -550 rlineto
            -112 -60 -27 -36 -54 hhcurveto
            -26 -22 7 16 -20 hvcurveto
            -22 vlineto
            -17 21 21 -4 28 hhcurveto
            return
          </CharString>
          <CharString index="62">
            54 -71 callsubr
            hstem
            11 -22 callsubr
            287 -360 -279 -350 rlineto
            26 hlineto
            266 334 266 -334 rlineto
            25 hlineto
            -279 350 287 360 rlineto
            -25 hlineto
            -274 -344 -274 344 rlineto
            endchar
          </CharString>
          <CharString index="63">
            rlineto
            -22 hlineto
            return
          </CharString>
          <CharString index="64">
            189 -5 -2 callgsubr
            return
          </CharString>
          <CharString index="65">
            hstem
            444 20 vstem
            -29 hmoveto
            25 hlineto
            167 254 rlineto
            281 -254 466 20 -446 333 383 20 -383 317 437 20 -462 hlineto
            -264 -436 rmoveto
            269 404 rlineto
            -404 vlineto
            return
          </CharString>
          <CharString index="66">
            50 -63 callgsubr
            return
          </CharString>
          <CharString index="67">
            rmoveto
            -41 -39 -13 -26 -28 hvcurveto
            38 162 rlineto
            194 hlineto
            return
          </CharString>
          <CharString index="68">
            710 -20 return
          </CharString>
          <CharString index="69">
            164 20 -173 hlineto
            -33 66 -47 52 68 vvcurveto
            79 63 64 76 59 56 -37 -60 32 vhcurveto
            17 12 rlineto
            64 -34 -62 41 -66 hhcurveto
            -89 -74 -75 -90 -71 45 -51 33 -62 hvcurveto
            -109 hlineto
            endchar
          </CharString>
          <CharString index="70">
            -20 hstem
            84 20 vstem
            490 hmoveto
            -230 311 225 206 rlineto
            -27 hlineto
            -354 -321 rlineto
            return
          </CharString>
          <CharString index="71">
            35 callsubr
            41 20 38 20 38 20 cntrmask 00011100
            119 hmoveto
            -39 callsubr
            -710 vlineto
            -38 841 -50 callsubr
            136 hmoveto
            -93 callsubr
          </CharString>
          <CharString index="72">
            99 hmoveto
            228 hlineto
            147 70 99 110 121 -68 88 -152 hvcurveto
            -205 292 -20 hlineto
            20 -312 rmoveto
            205 hlineto
            157 43 -91 -98 -95 -55 -94 -142 hvcurveto
            -208 hlineto
            return
          </CharString>
          <CharString index="73">
            20 -4 41 callsubr
            -4 20 return
          </CharString>
          <CharString index="74">
            rmoveto
            62 71 56 78 hvcurveto
            return
          </CharString>
          <CharString index="75">
            hvcurveto
            -12 callsubr
            return
          </CharString>
          <CharString index="76">
            21 vstem
            412 -7 rmoveto
            207 154 155 207 206 -154 154 -207 -207 -154 -154 -206 -207 154 -155 207 hvcurveto
            return
          </CharString>
          <CharString index="77">
            19 -10 -49 callgsubr
            return
          </CharString>
          <CharString index="78">
            -21 -39 callsubr
            return
          </CharString>
          <CharString index="79">
            20 vmoveto
            -54 callgsubr
            return
          </CharString>
          <CharString index="80">
            40 callgsubr
            391 20 return
          </CharString>
          <CharString index="81">
            rmoveto
            -11 -13 -15 0 -19 -61 -46 41 -62 hhcurveto
            -24 -21 -8 -11 -13 hvcurveto
            13 -16 rlineto
            9 12 15 6 18 48 50 -41 71 hhcurveto
            24 19 6 9 16 hvcurveto
            return
          </CharString>
          <CharString index="82">
            -57 callgsubr
            hvcurveto
            endchar
          </CharString>
          <CharString index="83">
            -48 42 -32 48 55 39 28 1 1 vhcurveto
            return
          </CharString>
          <CharString index="84">
            -56 4 62 -40 83 hhcurveto
            endchar
          </CharString>
          <CharString index="85">
            710 rmoveto
            return
          </CharString>
          <CharString index="86">
            -20 hstem
            99 20 vstem
            -50 callgsubr
            return
          </CharString>
          <CharString index="87">
            -56 callsubr
            -1 callsubr
            return
          </CharString>
          <CharString index="88">
            283 146 vlineto
            111 32 -66 -72 -74 -40 -71 -101 hvcurveto
            endchar
          </CharString>
          <CharString index="89">
            rmoveto
            19 -260 vlineto
            40 8 65 105 36 vhcurveto
            56 19 90 20 80 vvcurveto
            57 -42 52 -90 -97 -47 -62 -5 -3 vhcurveto
            15 -12 rlineto
            return
          </CharString>
          <CharString index="90">
            -95 callgsubr
            133 823 rmoveto
            -93 callsubr
          </CharString>
          <CharString index="91">
            23 hlineto
            225 383 rlineto
            -290 return
          </CharString>
          <CharString index="92">
            -21 383 -20 hstem
            259 20 vstem
            279 return
          </CharString>
          <CharString index="93">
            -105 209 rlineto
            -21 -277 20 239 hlineto
            98 -197 rlineto
            17 hlineto
            98 197 rlineto
            -239 20 277 -22 vlineto
            return
          </CharString>
          <CharString index="94">
            168 hlineto
            107 54 75 89 92 -53 65 -110 hvcurveto
            -146 return
          </CharString>
          <CharString index="95">
            -19 5 rlineto
            return
          </CharString>
          <CharString index="96">
            hstem
            -55 callgsubr
            return
          </CharString>
          <CharString index="97">
            -134 -21 176 -52 callsubr
            hstem
            return
          </CharString>
          <CharString index="98">
            hstemhm
            39 47 callgsubr
            return
          </CharString>
          <CharString index="99">
            -20 hstemhm
            46 20 454 return
          </CharString>
          <CharString index="100">
            48 20 621 20 return
          </CharString>
          <CharString index="101">
            682 rmoveto
            -25 -8 -16 -20 -67 hhcurveto
            -68 -23 23 22 hvcurveto
            -17 hlineto
            -32 30 -29 78 77 30 29 32 vhcurveto
            return
          </CharString>
          <CharString index="102">
            -153 177 rmoveto
            89 70 72 83 85 70 -71 -88 -87 -70 -73 -85 -84 -69 71 87 vhcurveto
            endchar
          </CharString>
          <CharString index="103">
            147 244 -20 hstem
            36 20 269 20 vstem
            36 return
          </CharString>
          <CharString index="104">
            -21 388 -20 hstem
            42 20 313 20 vstem
            219 return
          </CharString>
          <CharString index="105">
            -20 -519 return
          </CharString>
          <CharString index="106">
            8 12 hvcurveto
            return
          </CharString>
          <CharString index="107">
            209 -18 202 return
          </CharString>
          <CharString index="108">
            rmoveto
            150 -20 -150 -140 -20 140 -150 20 150 140 20 vlineto
            endchar
          </CharString>
          <CharString index="109">
            -20 callgsubr
            hstem
            99 20 449 20 vstem
            119 hmoveto
            279 return
          </CharString>
          <CharString index="110">
            -13 -86 rlineto
            -74 26 74 -9 vlineto
            10 86 rlineto
            return
          </CharString>
          <CharString index="111">
            -21 244 147 hstem
            44 20 vstem
            353 return
          </CharString>
          <CharString index="112">
            -2 4 4 0 5 hhcurveto
            return
          </CharString>
          <CharString index="113">
            134 -109 139 -161 -154 -118 -130 -143 return
          </CharString>
          <CharString index="114">
            21 -21 499 20 161 20 20 20 hstem
            103 20 187 20 return
          </CharString>
          <CharString index="115">
            rmoveto
            20 -403 -20 vlineto
            endchar
          </CharString>
          <CharString index="116">
            vlineto
            117 42 64 76 31 31 -11 -16 16 vhcurveto
            16 12 rlineto
            return
          </CharString>
          <CharString index="117">
            -21 477 20 106 20 107 -20 hstem
            84 20 363 20 vstem
            return
          </CharString>
          <CharString index="118">
            rlineto
            -26 -136 -20 136 -231 20 231 137 20 return
          </CharString>
          <CharString index="119">
            -11 20 callsubr
          </CharString>
          <CharString index="120">
            -349 -71 callsubr
            return
          </CharString>
          <CharString index="121">
            -20 hstemhm
            84 20 363 20 return
          </CharString>
          <CharString index="122">
            130 -6 20 680 20 return
          </CharString>
          <CharString index="123">
            hstemhm
            78 20 373 20 return
          </CharString>
          <CharString index="124">
            0 20 670 20 return
          </CharString>
          <CharString index="125">
            -327 hlineto
            -13 -154 rlineto
            -454 -38 -79 -82 -71 hhcurveto
            return
          </CharString>
          <CharString index="126">
            208 hlineto
            201 112 -140 -194 hvcurveto
            endchar
          </CharString>
          <CharString index="127">
            -76 callgsubr
            endchar
          </CharString>
          <CharString index="128">
            20 169 vlineto
            141 128 221 -297 rlineto
            return
          </CharString>
          <CharString index="129">
            37 callsubr
            320 20 320 20 return
          </CharString>
          <CharString index="130">
            -71 callsubr
            hstem
            99 20 return
          </CharString>
          <CharString index="131">
            21 -21 361 20 329 -20 return
          </CharString>
          <CharString index="132">
            21 41 callgsubr
            return
          </CharString>
          <CharString index="133">
            128 -89 141 -152 -91 -68 -54 -75 -53 return
          </CharString>
          <CharString index="134">
            373 20 -373 316 437 20 -457 return
          </CharString>
          <CharString index="135">
            395 0 20 234 20 79 20 317 20 return
          </CharString>
          <CharString index="136">
            98 -78 82 -99 -98 -77 -82 -98 -95 76 -83 99 return
          </CharString>
          <CharString index="137">
            20 vmoveto
            -83 -65 61 78 77 78 51 116 return
          </CharString>
          <CharString index="138">
            -155 19 174 -68 500 -20 -500 return
          </CharString>
          <CharString index="139">
            -244 21 -21 499 231 -211 -20 return
          </CharString>
          <CharString index="140">
            hlineto
            -54 -221 rlineto
            21 hlineto
            53 221 rlineto
            return
          </CharString>
          <CharString index="141">
            -41 callgsubr
            84 20 return
          </CharString>
          <CharString index="142">
            13 callsubr
            228 -20 hstem
            return
          </CharString>
          <CharString index="143">
            20 -8 -20 231 -20 hstemhm
            return
          </CharString>
          <CharString index="144">
            20 -1 callgsubr
            hstem
            99 20 return
          </CharString>
          <CharString index="145">
            -499 20 499 return
          </CharString>
          <CharString index="146">
            64 -20 -64 vlineto
            return
          </CharString>
          <CharString index="147">
            20 236 20 return
          </CharString>
          <CharString index="148">
            20 225 20 return
          </CharString>
          <CharString index="149">
            918 rmoveto
            -34 hlineto
            -64 -73 16 -12 rlineto
            return
          </CharString>
          <CharString index="150">
            102 21 42 -4 -20 24 vhcurveto
            -19 -36 -8 return
          </CharString>
          <CharString index="151">
            hhcurveto
            -126 -88 -61 -87 -89 74 -70 94 return
          </CharString>
          <CharString index="152">
            21 -21 539 -20 21 -20 hstemhm
            95 20 return
          </CharString>
          <CharString index="153">
            -20 39 -20 hstemhm
            return
          </CharString>
        <CharString name=".notdef">
          -567 endchar
        </CharString>
        <CharString name="A">
          -57 callsubr
          hstem
          -104 callgsubr
          endchar
        </CharString>
        <CharString name="A.sc">
          13 -7 callgsubr
          50 hmoveto
          90 190 rlineto
          300 hlineto
          89 -190 -15 callgsubr
          -252 540 rlineto
          -18 hlineto
          -253 -540 rlineto
          404 209 rmoveto
          -285 hlineto
          143 303 rlineto
          endchar
        </CharString>
        <CharString name="AE">
          28 callsubr
          -42 callsubr
          endchar
        </CharString>
        <CharString name="AEacute">
          28 callsubr
          208 -20 -42 callsubr
          88 644 rmoveto
          -34 hlineto
          -64 -73 16 -12 rlineto
          endchar
        </CharString>
        <CharString name="Aacute">
          22 callgsubr
          -104 callgsubr
          -108 644 rmoveto
          -34 hlineto
          -64 -73 16 -12 rlineto
          endchar
        </CharString>
        <CharString name="Abreve">
          22 callgsubr
          -104 callgsubr
          -176 584 -100 callsubr
        </CharString>
        <CharString name="Acircumflex">
          22 callgsubr
          -104 callgsubr
          -261 558 -101 callgsubr
        </CharString>
        <CharString name="Adblgrave">
          22 callgsubr
          -104 callgsubr
          -130 559 rmoveto
          16 12 -90 callsubr
        </CharString>
        <CharString name="Adieresis">
          22 callgsubr
          269 20 96 20 vstem
          -104 callgsubr
          -224 567 -50 callsubr
          136 hmoveto
          -93 callsubr
        </CharString>
        <CharString name="Agrave">
          22 callgsubr
          -104 callgsubr
          -162 559 -76 callsubr
        </CharString>
        <CharString name="Ainvertedbreve">
          22 callgsubr
          -104 callgsubr
          -176 627 -11 callgsubr
        </CharString>
        <CharString name="Amacron">
          -57 callsubr
          184 20 hstem
          -104 callgsubr
          -36 600 -46 callgsubr
        </CharString>
        <CharString name="Aogonek">
          106 -138 -21 180 -45 callgsubr
          hstem
          553 20 vstem
          605 -159 -78 callgsubr
          -309 710 rlineto
          -18 hlineto
          -310 -710 -15 callgsubr
          111 254 rlineto
          371 hlineto
          109 -249 rlineto
          -55 -41 -22 -29 -33 -43 callgsubr
          -447 433 rmoveto
          178 407 176 -407 rlineto
          endchar
        </CharString>
        <CharString name="Aring">
          -57 callsubr
          114 114 hstem
          280 114 vstem
          -104 callgsubr
          -233 587 -62 callsubr
          -65 callgsubr
          endchar
        </CharString>
        <CharString name="Aringacute">
          22 callgsubr
          280 114 vstem
          280 751 rmoveto
          -27 17 -22 25 -6 vhcurveto
          -304 -696 -15 callgsubr
          111 254 rlineto
          371 hlineto
          111 -254 -15 callgsubr
          -303 696 rlineto
          24 6 18 22 27 vvcurveto
          32 -25 25 -32 -32 -25 -25 -32 vhcurveto
          -121 -477 rmoveto
          178 407 176 -407 rlineto
          -176 518 rmoveto
          22 19 -16 -25 -23 -19 -17 -19 -1 hvcurveto
          -7 hlineto
          -21 1 -16 18 22 vvcurveto
          25 19 16 22 vhcurveto
          68 126 rmoveto
          -34 hlineto
          -64 -73 16 -12 rlineto
          endchar
        </CharString>
        <CharString name="Atilde">
          -57 callsubr
          161 57 10 -20 hstemhm
          hintmask 11110000
          -104 callgsubr
          -115 577 rmoveto
          hintmask 11101000
          -84 callsubr
          hintmask 11110000
          -99 callsubr
        </CharString>
        <CharString name="B">
          -66 callgsubr
        </CharString>
        <CharString name="B.sc">
          0 16 callgsubr
          95 20 352 20 5 20 vstem
          512 140 rmoveto
          62 -42 56 -66 19 vhcurveto
          51 21 32 49 55 vvcurveto
          68 -50 70 -82 vhcurveto
          -260 -540 270 hlineto
          81 66 64 76 hvcurveto
          -20 1 rmoveto
          -61 -56 -61 -71 vhcurveto
          -250 244 256 hlineto
          69 52 -59 -63 hvcurveto
          -139 379 rmoveto
          68 46 -56 -63 -59 -49 -60 -70 hvcurveto
          -233 238 hlineto
          endchar
        </CharString>
        <CharString name="C">
          15 callsubr
          hstem
          48 -103 callgsubr
          endchar
        </CharString>
        <CharString name="C.sc">
          30 -5 20 508 20 hstem
          52 20 vstem
          52 274 rmoveto
          -137 112 -142 159 88 102 45 81 40 vhcurveto
          -18 6 rlineto
          -78 -45 -88 -34 -76 hhcurveto
          -142 -112 121 135 123 91 129 161 73 80 -27 -79 44 hvcurveto
          19 8 rlineto
          68 -36 -74 50 -103 hhcurveto
          -175 -100 -140 -129 hvcurveto
          endchar
        </CharString>
        <CharString name="CR">
          -567 endchar
        </CharString>
        <CharString name="Cacute">
          15 callsubr
          204 -20 hstem
          48 -103 callgsubr
          401 558 rmoveto
          -34 hlineto
          -64 -73 16 -12 rlineto
          endchar
        </CharString>
        <CharString name="Ccaron">
          15 callsubr
          204 -20 hstem
          48 -103 callgsubr
          232 546 -96 callsubr
        </CharString>
        <CharString name="Ccedilla">
          126 -162 111 -16 81 680 20 hstemhm
          44 20 387 20 hintmask 10111000
          296 -143 rmoveto
          -73 callsubr
          30 52 104 5 113 57 47 102 rlinecurve
          -12 callsubr
          hintmask 01111000
          -104 -55 -109 -46 -94 hhcurveto
          -175 -139 162 181 164 113 173 198 91 98 -37 -104 55 hvcurveto
          19 6 rlineto
          90 -43 -90 65 -126 hhcurveto
          -213 -122 -184 -170 -178 133 -183 189 -4 hvcurveto
          -44 -78 rlineto
          -72 callgsubr
          endchar
        </CharString>
        <CharString name="Ccircumflex">
          15 callsubr
          204 -20 hstem
          48 -103 callgsubr
          248 472 -101 callgsubr
        </CharString>
        <CharString name="Cdotaccent">
          15 callsubr
          204 -20 hstem
          48 20 303 -103 callgsubr
          343 481 rmoveto
          -93 callsubr
        </CharString>
        <CharString name="D">
          144 17 callsubr
          hstem
          99 20 521 20 vstem
          -101 callsubr
          endchar
        </CharString>
        <CharString name="D.sc">
          45 16 callgsubr
          95 20 421 21 vstem
          283 hmoveto
          167 107 107 164 149 -91 120 -183 hvcurveto
          -188 -540 hlineto
          441 271 rmoveto
          -143 -86 -109 -167 vhcurveto
          -168 501 168 hlineto
          163 90 -104 -145 hvcurveto
          endchar
        </CharString>
        <CharString name="Dcaron">
          144 17 callsubr
          208 -20 hstem
          99 20 521 20 vstem
          -101 callsubr
          -388 550 -96 callsubr
        </CharString>
        <CharString name="Dcroat">
          -63 callsubr
        </CharString>
        <CharString name="Ddotbelow">
          144 -106 -21 127 20 670 20 hstem
          99 20 209 20 292 20 vstem
          -101 callsubr
          -292 -483 rmoveto
          -93 callsubr
        </CharString>
        <CharString name="Delta">
          38 0 20 -1 callgsubr
          hstem
          312 -16 callgsubr
        </CharString>
        <CharString name="E">
          -30 callgsubr
        </CharString>
        <CharString name="E.sc">
          -35 16 callgsubr
          95 20 vstem
          115 19 rmoveto
          247 312 19 -312 235 356 20 -376 -540 383 19 vlineto
          endchar
        </CharString>
        <CharString name="Eacute">
          -74 callgsubr
          -153 898 rmoveto
          -34 hlineto
          -64 -73 16 -12 rlineto
          endchar
        </CharString>
        <CharString name="Ebreve">
          -41 callsubr
          -20 168 60 46 callgsubr
          hintmask 11101100
          -102 callgsubr
          hintmask 11011100
          -221 838 -100 callsubr
        </CharString>
        <CharString name="Ecaron">
          -74 callgsubr
          -322 886 -96 callsubr
        </CharString>
        <CharString name="Ecircumflex">
          -74 callgsubr
          -306 812 -101 callgsubr
        </CharString>
        <CharString name="Edblgrave">
          -41 callsubr
          -20 228 hstemhm
          99 20 hintmask 11101000
          -102 callgsubr
          -179 813 rmoveto
          16 12 rlineto
          hintmask 11011000
          -90 callsubr
        </CharString>
        <CharString name="Edieresis">
          -41 callsubr
          208 -20 hstem
          99 20 157 20 96 20 vstem
          -102 callgsubr
          -269 821 -50 callsubr
          136 hmoveto
          -93 callsubr
        </CharString>
        <CharString name="Edotaccent">
          -41 callsubr
          208 -20 hstem
          99 20 215 20 vstem
          -102 callgsubr
          -211 821 rmoveto
          -93 callsubr
        </CharString>
        <CharString name="Edotbelow">
          50 -106 -21 127 20 333 20 317 20 hstem
          99 -29 callgsubr
          vstem
          -102 callgsubr
          -216 -147 rmoveto
          -93 callsubr
        </CharString>
        <CharString name="Egrave">
          -74 callgsubr
          -207 813 -76 callsubr
        </CharString>
        <CharString name="Einvertedbreve">
          -41 callsubr
          -20 228 hstemhm
          99 20 hintmask 11101000
          -102 callgsubr
          -236 881 -60 callsubr
          hintmask 11011000
          -72 callsubr
          -40 callgsubr
        </CharString>
        <CharString name="Emacron">
          -41 callsubr
          164 20 -89 callsubr
          -81 854 -46 callgsubr
        </CharString>
        <CharString name="Eng">
          209 -170 20 171 -21 709 -20 21 46 callgsubr
          538 20 hintmask 11101100
          657 -4 rmoveto
          -32 -92 callsubr
          62 71 56 78 hvcurveto
          745 -20 -680 vlineto
          hintmask 11011100
          -543 681 rlineto
          -15 -710 20 671 hlineto
          endchar
        </CharString>
        <CharString name="Eogonek">
          50 -138 -21 159 20 333 20 317 20 hstem
          99 20 345 20 vstem
          516 -159 -78 callgsubr
          20 -446 -94 callsubr
          -710 435 vlineto
          -50 -38 -20 -28 -32 -43 callgsubr
          endchar
        </CharString>
        <CharString name="Eth">
          -63 callsubr
        </CharString>
        <CharString name="Etilde">
          -41 callsubr
          -20 180 -19 57 10 46 callgsubr
          hintmask 11101010
          -102 callgsubr
          -160 831 rmoveto
          hintmask 11010110
          -84 callsubr
          hintmask 11101010
          -99 callsubr
        </CharString>
        <CharString name="Euro">
          250 -6 20 277 20 70 20 293 20 hstem
          83 401 rmoveto
          -10 -20 rlineto
          76 -21 hlineto
          -17 1 -16 2 -16 vhcurveto
          -109 hlineto
          -10 -20 rlineto
          123 hlineto
          -156 29 125 -141 169 hhcurveto
          108 124 58 107 49 -32 callsubr
          -104 -55 -109 -46 -94 hhcurveto
          -154 -125 124 153 -29 hvcurveto
          341 hlineto
          10 20 rlineto
          -354 hlineto
          -2 15 -1 15 16 vvcurveto
          8 0 8 1 8 vhcurveto
          386 hlineto
          10 20 rlineto
          -394 hlineto
          149 18 109 144 181 hhcurveto
          91 98 -37 -104 55 hvcurveto
          19 6 rlineto
          90 -43 -90 65 -126 hhcurveto
          -196 -119 -156 -157 -18 hvcurveto
          endchar
        </CharString>
        <CharString name="F">
          35 21 -21 354 20 316 20 hstem
          99 20 vstem
          119 hmoveto
          354 27 callsubr
          -710 vlineto
          endchar
        </CharString>
        <CharString name="F.sc">
          -48 21 -21 266 20 234 20 hstem
          95 20 vstem
          115 hmoveto
          266 303 20 -303 234 355 20 -375 -540 vlineto
          endchar
        </CharString>
        <CharString name="G">
          -33 callgsubr
          hstemhm
          48 20 571 20 hintmask 01111100
          -51 callsubr
          hintmask 10111100
          -100 callgsubr
          endchar
        </CharString>
        <CharString name="G.alt">
          169 -5 20 294 20 366 20 hstem
          48 20 vstem
          377 -5 rmoveto
          175 132 149 164 22 hvcurveto
          1 9 1 6 6 vvcurveto
          -268 -20 246 hlineto
          -151 -20 -119 -143 -168 hhcurveto
          -180 -131 164 174 170 126 172 184 110 92 -62 -89 55 hvcurveto
          14 14 rlineto
          91 -57 -96 66 -117 hhcurveto
          -187 -144 -171 -188 -184 138 -177 191 hvcurveto
          endchar
        </CharString>
        <CharString name="G.sc">
          51 -4 20 5 -21 524 46 callsubr
          52 20 462 20 hintmask 01101100
          534 hmoveto
          20 258 -156 -19 136 -123 hlineto
          hintmask 10101100
          -69 -64 -68 -31 -75 hhcurveto
          -142 -113 120 134 125 94 129 151 89 72 -31 -75 43 hvcurveto
          19 8 rlineto
          hintmask 10011100
          68 -37 -66 49 -120 hhcurveto
          -155 -110 -132 -141 -134 113 -140 161 78 70 31 63 60 hvcurveto
          endchar
        </CharString>
        <CharString name="Gacute">
          -33 callgsubr
          203 -20 hstemhm
          48 20 571 20 hintmask 01111110
          -51 callsubr
          hintmask 10111110
          -100 callgsubr
          hintmask 01111110
          -202 797 rmoveto
          -34 hlineto
          -64 -73 16 -12 rlineto
          endchar
        </CharString>
        <CharString name="Gbreve">
          -33 callgsubr
          -20 163 60 -20 hstemhm
          48 20 571 20 hintmask 01110111
          -51 callsubr
          hintmask 10110111
          -100 callgsubr
          hintmask 01101111
          -269 737 -100 callsubr
        </CharString>
        <CharString name="Gcircumflex">
          -33 callgsubr
          203 -20 hstemhm
          48 20 571 20 hintmask 01111110
          -51 callsubr
          hintmask 10111110
          -100 callgsubr
          hintmask 01111110
          -354 711 -101 callgsubr
        </CharString>
        <CharString name="Gcommaaccent">
          153 -146 -21 162 20 6 -21 318 20 357 20 hstemhm
          48 20 571 20 hintmask 10111110
          -51 callsubr
          hintmask 11011110
          -100 callgsubr
          hintmask 10111110
          -260 -288 -85 callgsubr
        </CharString>
        <CharString name="Gdotaccent">
          -33 callgsubr
          203 -20 hstemhm
          48 20 292 20 259 20 hintmask 01111111
          -51 callsubr
          hintmask 10111111
          -100 callgsubr
          hintmask 01111111
          -259 720 rmoveto
          -93 callsubr
        </CharString>
        <CharString name="H">
          164 21 -21 353 20 337 -20 hstem
          99 20 493 -59 callgsubr
          endchar
        </CharString>
        <CharString name="H.sc">
          62 21 -21 266 20 254 -20 hstem
          95 20 399 20 vstem
          514 540 rmoveto
          -254 -399 254 -20 -540 20 266 399 -266 20 540 vlineto
          endchar
        </CharString>
        <CharString name="Hbar">
          174 21 -21 353 20 181 20 136 -20 hstem
          104 20 493 20 vstem
          617 -22 callsubr
          -136 -493 136 -20 -136 -50 -20 50 -554 20 353 493 -353 20 554 50 20 -50 136 vlineto
          -513 -337 rmoveto
          181 493 -181 vlineto
          endchar
        </CharString>
        <CharString name="Hcircumflex">
          164 21 -21 353 20 337 -20 228 -20 hstem
          99 20 493 -59 callgsubr
          -350 122 -101 callgsubr
        </CharString>
        <CharString name="Hdotbelow">
          164 -106 -21 148 -21 353 20 337 -20 hstem
          99 20 243 20 230 -59 callgsubr
          -250 -837 rmoveto
          -93 callsubr
        </CharString>
        <CharString name="I">
          1 callgsubr
        </CharString>
        <CharString name="I.sc">
          -357 21 -21 539 -20 hstem
          95 20 vstem
          115 hmoveto
          539 -20 -539 vlineto
          endchar
        </CharString>
        <CharString name="IJ">
          124 -11 20 12 -21 710 46 callgsubr
          462 20 hintmask 01111000
          119 hmoveto
          -39 callsubr
          -710 vlineto
          138 33 rmoveto
          hintmask 10111000
          -88 callgsubr
          endchar
        </CharString>
        <CharString name="Iacute">
          -81 callsubr
          78 42 callsubr
          endchar
        </CharString>
        <CharString name="Ibreve">
          -81 callsubr
          10 858 -100 callsubr
        </CharString>
        <CharString name="Icircumflex">
          -81 callsubr
          -75 832 -101 callgsubr
        </CharString>
        <CharString name="Idblgrave">
          -81 callsubr
          64 833 rmoveto
          16 12 -90 callsubr
        </CharString>
        <CharString name="Idieresis">
          -36 callsubr
        </CharString>
        <CharString name="Idotaccent">
          -81 callsubr
          20 841 rmoveto
          -93 callsubr
        </CharString>
        <CharString name="Idotbelow">
          -349 -106 -21 148 -21 710 -65 callsubr
          20 -127 rmoveto
          -93 callsubr
        </CharString>
        <CharString name="Igrave">
          -81 callsubr
          24 833 -76 callsubr
        </CharString>
        <CharString name="Iinvertedbreve">
          -81 callsubr
          10 901 -11 callgsubr
        </CharString>
        <CharString name="Imacron">
          13 callsubr
          184 20 hstem
          99 20 vstem
          119 hmoveto
          -39 callsubr
          -710 vlineto
          150 874 -46 callgsubr
        </CharString>
        <CharString name="Iogonek">
          -349 -138 -21 869 -20 hstem
          18 20 61 20 vstem
          70 -159 -78 callgsubr
          -39 callsubr
          -702 vlineto
          -58 -43 -23 -29 -34 -43 callgsubr
          endchar
        </CharString>
        <CharString name="Itilde">
          13 callsubr
          161 57 10 46 callgsubr
          hintmask 11101000
          119 hmoveto
          -39 callsubr
          -710 vlineto
          71 851 rmoveto
          hintmask 11011000
          -84 callsubr
          hintmask 11101000
          -99 callsubr
        </CharString>
        <CharString name="J">
          -94 -11 20 701 -20 hstem
          363 20 vstem
          19 33 rmoveto
          -88 callgsubr
          endchar
        </CharString>
        <CharString name="J.sc">
          -153 13 -21 547 -20 hstem
          307 20 vstem
          27 25 rmoveto
          -22 34 42 -11 50 hhcurveto
          155 19 109 164 hvcurveto
          274 -20 -274 vlineto
          -159 -16 -95 -138 -46 -40 11 19 -30 vhcurveto
          endchar
        </CharString>
        <CharString name="Jcircumflex">
          -94 -11 20 701 -20 228 -20 hstem
          363 20 vstem
          19 33 rmoveto
          -88 callgsubr
          258 783 -101 callgsubr
        </CharString>
        <CharString name="K">
          54 21 -38 callgsubr
          endchar
        </CharString>
        <CharString name="K.sc">
          -28 45 callsubr
          hintmask 10110000
          115 hmoveto
          168 vlineto
          132 122 248 -290 rlineto
          25 hlineto
          -259 304 248 236 rlineto
          -28 hlineto
          -366 -346 rlineto
          hintmask 11010000
          345 -20 -539 vlineto
          endchar
        </CharString>
        <CharString name="Kcommaaccent">
          54 -146 -21 188 -38 callgsubr
          212 -167 -85 callgsubr
        </CharString>
        <CharString name="L">
          12 0 20 690 -21 callsubr
          endchar
        </CharString>
        <CharString name="L.sc">
          -65 -7 callgsubr
          95 20 vstem
          478 hmoveto
          19 -363 521 -20 -540 vlineto
          endchar
        </CharString>
        <CharString name="Lacute">
          12 0 20 -1 callgsubr
          228 -21 callsubr
          300 42 callsubr
          endchar
        </CharString>
        <CharString name="Lcaron">
          12 0 20 -1 callgsubr
          40 46 callgsubr
          hintmask 11010000
          -50 callgsubr
          hintmask 10110000
          339 6 callgsubr
          endchar
        </CharString>
        <CharString name="Lcommaaccent">
          12 -146 -21 167 20 690 -21 callsubr
          229 -167 -85 callgsubr
        </CharString>
        <CharString name="Ldot">
          12 0 37 callsubr
          247 20 vstem
          -50 callgsubr
          287 360 rmoveto
          83 -20 -83 vlineto
          endchar
        </CharString>
        <CharString name="Lslash">
          19 0 20 -1 callgsubr
          hstem
          106 20 vstem
          572 hmoveto
          20 -446 284 vlineto
          202 202 -14 15 -188 -188 rlineto
          377 -20 -397 vlineto
          -77 -77 14 -15 63 63 rlineto
          -284 vlineto
          endchar
        </CharString>
        <CharString name="M">
          -44 callgsubr
        </CharString>
        <CharString name="M.sc">
          186 -7 callgsubr
          95 20 523 20 vstem
          658 hmoveto
          540 -17 vlineto
          -264 -409 -265 409 rlineto
          -17 -540 20 498 hlineto
          254 -392 rlineto
          15 hlineto
          254 392 rlineto
          -498 vlineto
          endchar
        </CharString>
        <CharString name="N">
          209 23 callsubr
          538 20 vstem
          -84 callgsubr
          endchar
        </CharString>
        <CharString name="N.sc">
          98 45 callsubr
          435 20 hintmask 11011000
          548 hmoveto
          22 539 -20 -508 hlineto
          hintmask 10111000
          -440 509 rlineto
          -15 -540 20 501 hlineto
          endchar
        </CharString>
        <CharString name="NULL">
          -567 endchar
        </CharString>
        <CharString name="Nacute">
          209 -71 callsubr
          228 -20 hstem
          99 20 538 20 vstem
          -84 callgsubr
          342 247 rmoveto
          -34 hlineto
          -64 -73 16 -12 rlineto
          endchar
        </CharString>
        <CharString name="Ncaron">
          209 -71 callsubr
          228 -20 hstem
          99 20 538 20 vstem
          -84 callgsubr
          173 235 -96 callsubr
        </CharString>
        <CharString name="Ncommaaccent">
          209 -146 -21 188 -29 callsubr
          hstem
          99 20 538 20 vstem
          -84 callgsubr
          272 -838 -85 callgsubr
        </CharString>
        <CharString name="Ndotaccent">
          209 -71 callsubr
          228 -20 hstem
          99 20 264 20 254 20 vstem
          -84 callgsubr
          284 170 rmoveto
          -93 callsubr
        </CharString>
        <CharString name="Ntilde">
          209 -71 callsubr
          161 57 10 46 callgsubr
          538 20 hintmask 11101100
          -84 callgsubr
          335 180 rmoveto
          hintmask 11011100
          -84 callsubr
          hintmask 11101100
          -99 callsubr
        </CharString>
        <CharString name="O">
          -5 20 680 20 hstem
          -7 callsubr
          vstem
          -107 callsubr
          endchar
        </CharString>
        <CharString name="O.sc">
          79 -4 20 508 46 callsubr
          52 20 502 20 hintmask 10111000
          324 -4 rmoveto
          153 117 129 145 6 callsubr
          -139 111 -135 161 hvcurveto
          -252 274 rmoveto
          hintmask 11011000
          11 callgsubr
          -125 -100 -129 -150 -146 -106 122 132 vhcurveto
          endchar
        </CharString>
        <CharString name="OE">
          640 -5 25 1 -21 353 20 317 20 5 -20 -23 callgsubr
          hintmask 10110110
          709 20 rmoveto
          -94 callsubr
          -235 vlineto
          hintmask 10101110
          131 -44 -115 109 -151 hhcurveto
          -187 -144 -171 -189 -182 136 -178 197 144 118 105 134 46 hvcurveto
          hintmask 01110110
          -234 466 vlineto
          hintmask 10101110
          20 vlineto
          -776 -5 rmoveto
          -180 -131 163 177 168 126 172 185 176 134 -163 -176 -169 -125 -172 -185 hvcurveto
          endchar
        </CharString>
        <CharString name="Oacute">
          -5 20 680 20 203 -20 hstem
          -7 callsubr
          vstem
          -107 callsubr
          379 563 rmoveto
          -34 hlineto
          -64 -73 16 -12 rlineto
          endchar
        </CharString>
        <CharString name="Obreve">
          -5 20 680 20 -20 163 60 -20 -23 callgsubr
          hintmask 11011100
          -107 callsubr
          hintmask 10111100
          311 503 -100 callsubr
        </CharString>
        <CharString name="Ocircumflex">
          -5 20 680 20 203 -20 hstem
          -7 callsubr
          vstem
          -107 callsubr
          226 477 -101 callgsubr
        </CharString>
        <CharString name="Odblgrave">
          -5 20 680 20 -20 223 -23 callgsubr
          hintmask 11011000
          -107 callsubr
          366 478 rmoveto
          16 12 rlineto
          hintmask 10111000
          -90 callsubr
        </CharString>
        <CharString name="Odieresis">
          -5 20 680 20 203 -20 hstem
          48 20 243 20 96 20 242 20 vstem
          -107 callsubr
          263 486 -50 callsubr
          136 hmoveto
          -93 callsubr
        </CharString>
        <CharString name="Odotbelow">
          -106 -21 122 20 680 20 hstem
          48 20 300 20 301 20 vstem
          -107 callsubr
          320 -482 rmoveto
          -93 callsubr
        </CharString>
        <CharString name="Ograve">
          -5 20 680 20 203 -20 hstem
          -7 callsubr
          vstem
          -107 callsubr
          325 478 -76 callsubr
        </CharString>
        <CharString name="Ohungarumlaut">
          -5 20 680 20 -20 223 -23 callgsubr
          hintmask 11011000
          -107 callsubr
          hintmask 10111000
          329 563 rmoveto
          -34 hlineto
          -64 -73 16 -12 rlineto
          182 85 rmoveto
          -34 hlineto
          -64 -73 16 -12 rlineto
          endchar
        </CharString>
        <CharString name="Oinvertedbreve">
          -5 20 680 20 -20 223 -23 callgsubr
          hintmask 11011000
          -107 callsubr
          308 546 -60 callsubr
          hintmask 10111000
          -72 callsubr
          -40 callgsubr
        </CharString>
        <CharString name="Omacron">
          -5 20 680 20 159 20 hstem
          -7 callsubr
          vstem
          -107 callsubr
          451 519 -46 callgsubr
        </CharString>
        <CharString name="Omega">
          -69 callgsubr
        </CharString>
        <CharString name="Oogonek">
          -142 -21 858 20 hstem
          48 20 229 20 372 20 vstem
          349 -163 rmoveto
          12 17 rlineto
          -29 6 -15 16 25 vvcurveto
          30 21 24 59 41 vhcurveto
          177 10 135 164 185 vvcurveto
          177 -134 183 -196 -187 -144 -171 -189 -178 129 -173 189 -8 vhcurveto
          -49 -38 -20 -29 25 callgsubr
          -281 518 rmoveto
          168 126 172 185 176 134 -163 -177 -167 -125 -173 -185 -180 -131 163 177 vhcurveto
          endchar
        </CharString>
        <CharString name="Oslash">
          38 callgsubr
          -5 -20 -23 callgsubr
          hintmask 10011100
          593 -22 callsubr
          -35 -54 rlineto
          hintmask 01101100
          -17 callgsubr
          hintmask 10011100
          -48 callsubr
          hintmask 10101100
          -6 callgsubr
          endchar
        </CharString>
        <CharString name="Oslashacute">
          38 callgsubr
          -5 -20 228 -20 -23 callgsubr
          hintmask 10011110
          593 -22 callsubr
          -35 -54 rlineto
          hintmask 01101110
          -17 callgsubr
          hintmask 10011110
          -48 callsubr
          hintmask 10101110
          -6 callgsubr
          379 563 rmoveto
          -34 hlineto
          -64 -73 16 -12 rlineto
          endchar
        </CharString>
        <CharString name="Otilde">
          -5 20 680 20 -20 175 -19 57 10 -20 -23 callgsubr
          hintmask 11010110
          -107 callsubr
          372 496 rmoveto
          hintmask 10101110
          -84 callsubr
          hintmask 11010110
          -99 callsubr
        </CharString>
        <CharString name="P">
          -52 callgsubr
        </CharString>
        <CharString name="P.sc">
          -31 21 callgsubr
          20 vstem
          115 hmoveto
          210 223 vlineto
          95 64 81 84 81 -69 84 -96 hvcurveto
          -237 42 callgsubr
          81 64 -70 -75 -72 -52 -73 -87 hvcurveto
          -223 hlineto
          endchar
        </CharString>
        <CharString name="Q">
          38 callgsubr
          -23 callgsubr
          hintmask 01111000
          647 hmoveto
          25 hlineto
          -72 89 rlineto
          67 67 42 96 103 vvcurveto
          177 -134 183 -196 -187 -144 -171 -189 vhcurveto
          hintmask 10111000
          -182 135 -177 196 -1 vhcurveto
          79 72 31 50 56 hvcurveto
          hintmask 01111000
          hintmask 10111000
          -207 -61 rmoveto
          -180 -131 163 177 168 126 172 185 176 134 -163 -177 -91 -37 -93 -64 -66 hvcurveto
          -64 81 rlineto
          -25 hlineto
          75 -94 rlineto
          -47 -52 -66 -30 -77 hhcurveto
          endchar
        </CharString>
        <CharString name="Q.sc">
          79 -4 20 5 -21 524 46 callsubr
          52 20 502 20 hintmask 01011100
          542 hmoveto
          24 hlineto
          -59 69 rlineto
          54 51 33 73 77 vvcurveto
          6 callsubr
          vhcurveto
          hintmask 10011100
          -139 111 -135 161 65 58 23 38 46 vhcurveto
          hintmask 01011100
          hintmask 10101100
          -169 -41 rmoveto
          -146 -106 122 132 11 callgsubr
          -68 -30 -69 -50 -49 hvcurveto
          -52 61 rlineto
          -24 hlineto
          62 -73 rlineto
          -35 -41 -54 -21 -61 hhcurveto
          endchar
        </CharString>
        <CharString name="R">
          75 21 -21 279 20 391 20 hstem
          99 20 449 20 vstem
          -103 callsubr
          endchar
        </CharString>
        <CharString name="R.sc">
          -12 21 callgsubr
          21 vstem
          115 hmoveto
          210 213 vlineto
          146 -210 rlineto
          24 hlineto
          -147 212 rlineto
          87 7 60 74 82 vvcurveto
          81 -70 84 -95 vhcurveto
          -238 42 callgsubr
          82 63 -70 -75 -73 -54 -72 -85 hvcurveto
          -223 hlineto
          endchar
        </CharString>
        <CharString name="Racute">
          0 callgsubr
          211 -20 hstem
          99 20 449 20 vstem
          -103 callsubr
          265 622 rmoveto
          -34 hlineto
          -64 -73 16 -12 rlineto
          endchar
        </CharString>
        <CharString name="Rcaron">
          0 callgsubr
          211 -20 hstem
          99 20 449 20 vstem
          -103 callsubr
          96 610 -96 callsubr
        </CharString>
        <CharString name="Rcommaaccent">
          75 -146 -21 188 -27 callsubr
          hstem
          99 20 449 20 vstem
          -103 callsubr
          194 -466 -85 callgsubr
        </CharString>
        <CharString name="Rdblgrave">
          0 callgsubr
          -20 228 hstemhm
          99 20 449 20 hintmask 11101100
          -103 callsubr
          261 534 rmoveto
          16 12 rlineto
          hintmask 11011100
          -90 callsubr
        </CharString>
        <CharString name="Rdotbelow">
          75 -106 -21 148 -27 callsubr
          hstem
          99 20 195 20 234 20 vstem
          -103 callsubr
          215 -426 rmoveto
          -93 callsubr
        </CharString>
        <CharString name="Rinvertedbreve">
          0 callgsubr
          -20 228 hstemhm
          99 20 449 20 hintmask 11101100
          -103 callsubr
          201 602 -60 callsubr
          hintmask 11011100
          -72 callsubr
          -40 callgsubr
        </CharString>
        <CharString name="S">
          35 16 -21 720 -20 hstem
          63 20 462 20 vstem
          -105 callgsubr
          endchar
        </CharString>
        <CharString name="S.sc">
          -43 17 -21 529 -20 38 -20 hstemhm
          67 20 372 20 hintmask 10111000
          445 479 rmoveto
          46 -46 -54 18 -74 hhcurveto
          -123 -81 -51 -93 -91 70 -24 129 -23 hvcurveto
          133 -24 60 -28 -78 vvcurveto
          -80 -74 -38 -110 -89 -68 26 54 -57 vhcurveto
          -14 -14 rlineto
          -56 63 71 -27 93 hhcurveto
          127 78 48 89 96 -81 26 -129 24 hvcurveto
          -128 24 -54 21 75 vvcurveto
          hintmask 11011000
          77 55 49 130 69 47 -15 -46 45 vhcurveto
          endchar
        </CharString>
        <CharString name="Sacute">
          35 16 -21 720 -20 245 -20 hstem
          63 20 462 20 vstem
          -105 callgsubr
          -133 324 rmoveto
          -34 hlineto
          -64 -73 16 -12 rlineto
          endchar
        </CharString>
        <CharString name="Scaron">
          35 16 -21 720 -20 245 -20 hstem
          63 20 462 20 vstem
          -105 callgsubr
          -302 312 -96 callsubr
        </CharString>
        <CharString name="Schwa">
          172 -10 22 328 22 332 21 hstem
          33 23 613 22 vstem
          366 -10 rmoveto
          180 145 159 197 202 -150 167 -182 -120 -116 -72 -95 -37 hvcurveto
          20 -9 rlineto
          94 38 107 61 106 hhcurveto
          164 135 -142 -190 13 hvcurveto
          -636 -10 hlineto
          -201 1 143 -161 189 hhcurveto
          -2 22 rmoveto
          -167 -128 137 191 -13 hvcurveto
          613 hlineto
          -188 -9 -130 -140 -166 hhcurveto
          endchar
        </CharString>
        <CharString name="Scircumflex">
          35 16 -21 720 -20 245 -20 hstem
          63 20 462 20 vstem
          -105 callgsubr
          -286 238 -101 callgsubr
        </CharString>
        <CharString name="Sdotbelow">
          35 -106 -21 143 -21 720 -20 hstem
          63 20 221 20 221 20 cntrmask 00011100
          -105 callgsubr
          -185 -743 rmoveto
          -93 callsubr
        </CharString>
        <CharString name="T">
          33 25 callsubr
          -53 callgsubr
          endchar
        </CharString>
        <CharString name="T.sc">
          -52 16 callgsubr
          248 20 vstem
          489 540 rmoveto
          -463 -20 222 -520 20 520 221 hlineto
          endchar
        </CharString>
        <CharString name="Tbar">
          73 21 -21 404 20 266 20 hstem
          310 20 vstem
          602 -22 callsubr
          -564 -20 272 -266 -242 -20 242 -404 20 404 242 20 -242 266 272 hlineto
          endchar
        </CharString>
        <CharString name="Tcaron">
          33 25 callsubr
          208 -20 -53 callgsubr
          -383 216 -96 callsubr
        </CharString>
        <CharString name="Tdotbelow">
          33 -106 -21 148 41 callgsubr
          -53 callgsubr
          -272 -817 rmoveto
          -93 callsubr
        </CharString>
        <CharString name="Thorn">
          32 21 -21 129 20 391 20 150 -20 hstem
          99 20 429 20 vstem
          368 560 rmoveto
          -249 150 -20 -710 20 129 256 hlineto
          115 78 105 111 106 -84 109 -116 hvcurveto
          7 -411 rmoveto
          -256 391 249 hlineto
          100 80 -94 -101 -96 -65 -100 -108 hvcurveto
          endchar
        </CharString>
        <CharString name="U">
          -43 callsubr
          hstem
          88 20 541 20 vstem
          -106 callsubr
          endchar
        </CharString>
        <CharString name="U.sc">
          81 -4 20 524 -20 hstem
          85 20 438 20 vstem
          323 16 rmoveto
          -169 -49 126 128 hvcurveto
          270 -20 -270 vlineto
          -136 55 -138 184 179 60 130 144 vhcurveto
          270 -20 -270 vlineto
          -125 -47 -129 -173 vhcurveto
          endchar
        </CharString>
        <CharString name="Uacute">
          -43 callsubr
          228 -20 hstem
          88 20 541 20 vstem
          -106 callsubr
          69 903 rmoveto
          -34 hlineto
          -64 -73 16 -12 rlineto
          endchar
        </CharString>
        <CharString name="Ubreve">
          -43 callsubr
          228 -20 hstem
          88 20 541 20 vstem
          -106 callsubr
          1 843 -100 callsubr
        </CharString>
        <CharString name="Ucircumflex">
          -43 callsubr
          228 -20 hstem
          88 20 541 20 vstem
          -106 callsubr
          -84 817 -101 callgsubr
        </CharString>
        <CharString name="Udblgrave">
          -43 callsubr
          228 -20 hstem
          88 20 541 20 vstem
          -106 callsubr
          64 818 rmoveto
          16 12 -90 callsubr
        </CharString>
        <CharString name="Udieresis">
          -43 callsubr
          228 -20 hstem
          88 20 203 20 96 20 202 20 vstem
          -106 callsubr
          -47 826 -50 callsubr
          136 hmoveto
          -93 callsubr
        </CharString>
        <CharString name="Udotbelow">
          189 -106 -21 122 -2 callgsubr
          hstem
          88 20 265 20 256 20 vstem
          -106 callsubr
          15 -142 rmoveto
          -93 callsubr
        </CharString>
        <CharString name="Ugrave">
          -43 callsubr
          228 -20 hstem
          88 20 541 20 vstem
          -106 callsubr
          15 818 -76 callsubr
        </CharString>
        <CharString name="Uhungarumlaut">
          -43 callsubr
          228 -20 hstem
          88 20 541 20 vstem
          -106 callsubr
          19 903 rmoveto
          -34 hlineto
          -64 -73 16 -12 rlineto
          182 85 rmoveto
          -34 hlineto
          -64 -73 16 -12 rlineto
          endchar
        </CharString>
        <CharString name="Uinvertedbreve">
          -43 callsubr
          228 -20 hstem
          88 20 541 20 vstem
          -106 callsubr
          886 vmoveto
          27 25 -27 -33 4 hvcurveto
          18 hlineto
          -72 callsubr
          -40 callgsubr
        </CharString>
        <CharString name="Umacron">
          -43 callsubr
          184 20 hstem
          88 20 541 20 vstem
          -106 callsubr
          141 859 -46 callgsubr
        </CharString>
        <CharString name="Uogonek">
          -142 -21 158 -2 callgsubr
          hstem
          88 20 194 20 327 20 vstem
          354 -163 -78 callgsubr
          199 12 67 166 181 vvcurveto
          355 -20 -355 vlineto
          -166 -57 -174 -214 -210 -60 169 171 vhcurveto
          355 -20 -355 vlineto
          -176 64 -180 219 -4 vhcurveto
          28 callgsubr
          endchar
        </CharString>
        <CharString name="Uring">
          -43 callsubr
          114 114 hstem
          88 20 214 114 213 20 vstem
          -106 callsubr
          -56 846 -62 callsubr
          -65 callgsubr
          endchar
        </CharString>
        <CharString name="Utilde">
          -43 callsubr
          161 57 10 -20 hstemhm
          88 20 541 20 hintmask 11101100
          -106 callsubr
          62 836 rmoveto
          hintmask 11011100
          -84 callsubr
          hintmask 11101100
          -99 callsubr
        </CharString>
        <CharString name="V">
          111 -71 callsubr
          hstem
          19 -22 callsubr
          309 -710 -15 callgsubr
          309 710 -44 callsubr
          -298 -685 -299 685 rlineto
          endchar
        </CharString>
        <CharString name="V.sc">
          14 -7 callgsubr
          28 540 rmoveto
          252 -540 rlineto
          21 hlineto
          253 540 -44 callsubr
          -241 -514 -242 514 rlineto
          endchar
        </CharString>
        <CharString name="W">
          471 -71 callsubr
          hstem
          -98 callgsubr
          endchar
        </CharString>
        <CharString name="W.alt">
          460 -71 callsubr
          hstem
          976 -22 callsubr
          -218 -685 -239 685 -44 callsubr
          -228 -685 -219 685 rlineto
          -21 hlineto
          229 -710 -15 callgsubr
          229 678 238 -678 -15 callgsubr
          229 710 rlineto
          endchar
        </CharString>
        <CharString name="W.sc">
          313 -7 callgsubr
          428 313 rmoveto
          -135 -288 -242 515 -44 callsubr
          253 -540 rlineto
          21 hlineto
          137 292 137 -292 rlineto
          21 hlineto
          253 540 -44 callsubr
          -242 -515 -137 288 104 222 rlineto
          -21 hlineto
          -94 -201 -93 201 rlineto
          -21 hlineto
          endchar
        </CharString>
        <CharString name="Wacute">
          471 -71 callsubr
          228 -20 hstem
          -98 callgsubr
          205 214 rmoveto
          -34 hlineto
          -64 -73 16 -12 rlineto
          endchar
        </CharString>
        <CharString name="Wcircumflex">
          471 -71 callsubr
          228 -20 hstem
          -98 callgsubr
          52 128 -101 callgsubr
        </CharString>
        <CharString name="Wdieresis">
          471 -71 callsubr
          228 -20 hstem
          450 20 96 20 vstem
          -98 callgsubr
          89 137 -50 callsubr
          136 hmoveto
          -93 callsubr
        </CharString>
        <CharString name="Wgrave">
          471 -71 callsubr
          228 -20 hstem
          -98 callgsubr
          151 129 -76 callsubr
        </CharString>
        <CharString name="X">
          -45 callsubr
        </CharString>
        <CharString name="X.sc">
          -32 -7 callgsubr
          21 540 rmoveto
          234 -274 -227 -266 rlineto
          25 hlineto
          215 250 215 -250 rlineto
          24 hlineto
          -227 266 234 274 rlineto
          -25 hlineto
          -221 -258 -222 258 rlineto
          endchar
        </CharString>
        <CharString name="Y">
          74 -71 callsubr
          hstem
          310 20 vstem
          -86 callsubr
          endchar
        </CharString>
        <CharString name="Y.sc">
          -16 -7 callgsubr
          265 20 vstem
          31 540 rmoveto
          234 -331 rlineto
          -209 20 208 vlineto
          236 332 rlineto
          -23 hlineto
          -223 -311 -221 311 rlineto
          endchar
        </CharString>
        <CharString name="Yacute">
          74 -71 callsubr
          228 -20 hstem
          310 20 vstem
          -86 callsubr
          342 208 rmoveto
          -34 hlineto
          -64 -73 16 -12 rlineto
          endchar
        </CharString>
        <CharString name="Ycircumflex">
          74 -71 callsubr
          228 -20 hstem
          310 20 vstem
          -86 callsubr
          189 122 -101 callgsubr
        </CharString>
        <CharString name="Ydieresis">
          74 -71 callsubr
          228 -20 hstem
          252 20 38 20 38 20 cntrmask 00011100
          -86 callsubr
          226 131 -50 callsubr
          136 hmoveto
          -93 callsubr
        </CharString>
        <CharString name="Ygrave">
          74 -71 callsubr
          228 -20 hstem
          310 20 vstem
          -86 callsubr
          288 123 -76 callsubr
        </CharString>
        <CharString name="Ytilde">
          74 -71 callsubr
          161 57 10 -20 hstemhm
          310 20 hintmask 11101000
          -86 callsubr
          335 141 rmoveto
          hintmask 11011000
          -84 callsubr
          hintmask 11101000
          -99 callsubr
        </CharString>
        <CharString name="Z">
          57 17 callsubr
          -11 callsubr
          endchar
        </CharString>
        <CharString name="Z.sc">
          -26 16 callgsubr
          38 hmoveto
          462 19 -437 hlineto
          440 502 rlineto
          19 -461 -20 436 vlineto
          -440 -501 rlineto
          endchar
        </CharString>
        <CharString name="Zacute">
          57 17 callsubr
          208 -20 -11 callsubr
          370 898 rmoveto
          -34 hlineto
          -64 -73 16 -12 rlineto
          endchar
        </CharString>
        <CharString name="Zcaron">
          57 17 callsubr
          208 -20 -11 callsubr
          201 886 -96 callsubr
        </CharString>
        <CharString name="Zdotaccent">
          57 17 callsubr
          208 -20 hstem
          320 20 vstem
          -55 callgsubr
          312 821 rmoveto
          -93 callsubr
        </CharString>
        <CharString name="Zdotbelow">
          57 -106 -21 127 20 670 20 hstem
          307 20 vstem
          -55 callgsubr
          299 -147 rmoveto
          -93 callsubr
        </CharString>
        <CharString name="a">
          -71 callgsubr
          -9 callsubr
          hintmask 10111100
          -94 callgsubr
          hintmask 01111100
          -2 3 3 0 8 hhcurveto
          -56 callsubr
          7 13 hvcurveto
          287 vlineto
          122 -74 78 -116 -54 -60 -23 -45 -66 vhcurveto
          12 -16 rlineto
          41 58 60 23 50 hhcurveto
          102 68 -72 -108 hvcurveto
          -59 vlineto
          18 -49 -66 11 -59 hhcurveto
          -126 -88 -61 -87 hvcurveto
          hintmask 10111100
          -104 callsubr
          endchar
        </CharString>
        <CharString name="a.alt">
          40 14 callgsubr
          hstemhm
          46 20 437 20 hintmask 10111000
          293 -10 rmoveto
          90 77 54 75 43 hvcurveto
          hintmask 01111000
          -119 20 517 -20 -120 vlineto
          74 -42 -74 56 -94 hhcurveto
          -136 -111 -124 -145 hvcurveto
          hintmask 10111000
          -135 101 -133 146 vhcurveto
          210 177 rmoveto
          -85 -32 -76 -72 -102 hhcurveto
          -132 -95 119 129 118 90 131 137 96 80 -68 -88 34 hvcurveto
          endchar
        </CharString>
        <CharString name="a.alt2">
          -41 -10 20 11 -21 277 -29 callgsubr
          hstemhm
          40 47 callgsubr
          hintmask 01111100
          448 hmoveto
          327 vlineto
          112 -65 88 -125 -64 -62 -31 -37 -54 vhcurveto
          12 -16 rlineto
          41 58 60 23 50 hhcurveto
          103 67 -74 -106 hvcurveto
          -59 vlineto
          10 -27 -62 19 -85 hhcurveto
          -90 -124 -36 -112 hvcurveto
          hintmask 10111100
          -89 74 -70 94 81 86 30 68 53 vhcurveto
          hintmask 01111100
          -88 vlineto
          -15 102 rmoveto
          hintmask 10111100
          -64 -41 -88 -28 -76 hhcurveto
          -77 -71 55 84 97 109 31 85 58 59 -9 -22 57 hvcurveto
          -103 vlineto
          -12 -5 -14 -10 -15 vhcurveto
          endchar
        </CharString>
        <CharString name="aacute">
          -71 callgsubr
          203 37 callgsubr
          hintmask 10111110
          -94 callgsubr
          hintmask 01111110
          -2 3 3 0 8 hhcurveto
          -56 callsubr
          7 13 hvcurveto
          287 vlineto
          122 -74 78 -116 -54 -60 -23 -45 -66 vhcurveto
          12 -16 rlineto
          41 58 60 23 50 hhcurveto
          102 68 -72 -108 hvcurveto
          -59 vlineto
          18 -49 -66 11 -59 hhcurveto
          -126 -88 -61 -87 hvcurveto
          hintmask 10111110
          -104 callsubr
          118 720 rmoveto
          -34 hlineto
          -64 -73 16 -12 rlineto
          endchar
        </CharString>
        <CharString name="abreve">
          -71 callgsubr
          -20 163 60 37 callgsubr
          hintmask 10110111
          -94 callgsubr
          hintmask 01110111
          -2 3 3 0 8 hhcurveto
          -56 callsubr
          7 13 hvcurveto
          287 vlineto
          122 -74 78 -116 -54 -60 -23 -45 -66 vhcurveto
          12 -16 rlineto
          41 58 60 23 50 hhcurveto
          102 68 -72 -108 hvcurveto
          -59 vlineto
          18 -49 -66 11 -59 hhcurveto
          -126 -88 -61 -87 hvcurveto
          hintmask 10101111
          -104 callsubr
          50 660 -100 callsubr
        </CharString>
        <CharString name="acircumflex">
          -71 callgsubr
          203 37 callgsubr
          hintmask 10111110
          -94 callgsubr
          hintmask 01111110
          -2 3 3 0 8 hhcurveto
          -56 callsubr
          7 13 hvcurveto
          287 vlineto
          122 -74 78 -116 -54 -60 -23 -45 -66 vhcurveto
          12 -16 rlineto
          41 58 60 23 50 hhcurveto
          102 68 -72 -108 hvcurveto
          -59 vlineto
          18 -49 -66 11 -59 hhcurveto
          -126 -88 -61 -87 hvcurveto
          hintmask 10111110
          -104 callsubr
          -35 634 -101 callgsubr
        </CharString>
        <CharString name="acute">
          -369 17 callgsubr
          148 6 callgsubr
          endchar
        </CharString>
        <CharString name="adblgrave">
          -71 callgsubr
          -20 223 -9 callsubr
          hintmask 10110110
          -94 callgsubr
          hintmask 01110110
          -2 3 3 0 8 hhcurveto
          -56 callsubr
          7 13 hvcurveto
          287 vlineto
          122 -74 78 -116 -54 -60 -23 -45 -66 vhcurveto
          12 -16 rlineto
          41 58 60 23 50 hhcurveto
          102 68 -72 -108 hvcurveto
          -59 vlineto
          18 -49 -66 11 -59 hhcurveto
          -126 -88 -61 -87 hvcurveto
          hintmask 10101110
          -104 callsubr
          101 635 rmoveto
          16 12 -90 callsubr
        </CharString>
        <CharString name="adieresis">
          -71 callgsubr
          203 -20 hstemhm
          39 20 130 20 96 20 102 20 hintmask 1011111110000000
          -94 callgsubr
          hintmask 0111111110000000
          -2 3 3 0 8 hhcurveto
          -56 callsubr
          7 13 hvcurveto
          287 vlineto
          122 -74 78 -116 -54 -60 -23 -45 -66 vhcurveto
          12 -16 rlineto
          41 58 60 23 50 hhcurveto
          102 68 -72 -108 hvcurveto
          -59 vlineto
          18 -49 -66 11 -59 hhcurveto
          -126 -88 -61 -87 hvcurveto
          hintmask 1011111110000000
          -104 callsubr
          2 643 -50 callsubr
          136 hmoveto
          -93 callsubr
        </CharString>
        <CharString name="ae">
          361 -10 -31 callgsubr
          9 -29 callgsubr
          -90 callgsubr
          endchar
        </CharString>
        <CharString name="aeacute">
          361 -10 -31 callgsubr
          9 -29 callgsubr
          203 -20 -90 callgsubr
          -368 462 rmoveto
          -34 hlineto
          -64 -73 16 -12 rlineto
          endchar
        </CharString>
        <CharString name="afii61352">
          531 21 -21 695 20 -5 46 callgsubr
          538 20 49 22 308 22 hintmask 10111110
          654 hmoveto
          23 709 -20 -680 hlineto
          -543 681 rlineto
          -15 -710 20 671 hlineto
          782 -314 rmoveto
          100 77 83 95 hvcurveto
          hintmask 11011110
          29 callsubr
          vhcurveto
          -5 callsubr
        </CharString>
        <CharString name="agrave">
          -71 callgsubr
          203 37 callgsubr
          hintmask 10111110
          -94 callgsubr
          hintmask 01111110
          -2 3 3 0 8 hhcurveto
          -56 callsubr
          7 13 hvcurveto
          287 vlineto
          122 -74 78 -116 -54 -60 -23 -45 -66 vhcurveto
          12 -16 rlineto
          41 58 60 23 50 hhcurveto
          102 68 -72 -108 hvcurveto
          -59 vlineto
          18 -49 -66 11 -59 hhcurveto
          -126 -88 -61 -87 hvcurveto
          hintmask 10111110
          -104 callsubr
          64 635 -76 callsubr
        </CharString>
        <CharString name="ainvertedbreve">
          -71 callgsubr
          -20 223 -17 37 callgsubr
          hintmask 10110111
          -94 callgsubr
          hintmask 01110111
          -2 3 3 0 8 hhcurveto
          -56 callsubr
          7 13 hvcurveto
          287 vlineto
          122 -74 78 -116 -54 -60 -23 -45 -66 vhcurveto
          12 -16 rlineto
          41 58 60 23 50 hhcurveto
          102 68 -72 -108 hvcurveto
          -59 vlineto
          18 -49 -66 11 -59 hhcurveto
          -126 -88 -61 -87 hvcurveto
          hintmask 10110111
          -104 callsubr
          48 703 -60 callsubr
          hintmask 10101011
          -72 callsubr
          hintmask 10110111
          -40 callgsubr
        </CharString>
        <CharString name="amacron">
          -71 callgsubr
          159 20 -9 callsubr
          hintmask 10111110
          -94 callgsubr
          hintmask 01111110
          -2 3 3 0 8 hhcurveto
          -56 callsubr
          7 13 hvcurveto
          287 vlineto
          122 -74 78 -116 -54 -60 -23 -45 -66 vhcurveto
          12 -16 rlineto
          41 58 60 23 50 hhcurveto
          102 68 -72 -108 hvcurveto
          -59 vlineto
          18 -49 -66 11 -59 hhcurveto
          -126 -88 -61 -87 hvcurveto
          hintmask 10111110
          -104 callsubr
          190 676 -46 callgsubr
        </CharString>
        <CharString name="ampersand">
          68 11 -21 31 -21 699 20 hstemhm
          53 20 37 20 276 20 116 20 hintmask 01111110
          625 hmoveto
          -122 126 rlineto
          38 60 21 74 73 vvcurveto
          -20 hlineto
          -69 -19 -68 -33 -56 vhcurveto
          -240 249 rlineto
          90 61 86 59 82 vvcurveto
          69 -62 59 -87 -94 -73 -69 -76 -48 29 -46 84 -89 vhcurveto
          -94 -64 -76 -59 -98 vvcurveto
          hintmask 10111110
          -117 109 -63 108 95 77 49 71 50 vhcurveto
          hintmask 01111110
          106 -110 rlineto
          -325 8 rmoveto
          -92 -108 51 109 92 76 59 86 60 hvcurveto
          244 -255 rlineto
          -69 -47 -71 -47 -88 hhcurveto
          -143 565 rmoveto
          69 64 57 82 75 55 -47 -63 -70 -65 -48 -103 -70 vhcurveto
          -90 95 -18 41 36 vvcurveto
          endchar
        </CharString>
        <CharString name="aogonek">
          -43 -138 -21 149 20 267 -29 callgsubr
          hstem
          39 20 303 20 45 20 vstem
          414 -159 -78 callgsubr
          -56 callsubr
          7 13 hvcurveto
          287 vlineto
          122 -74 78 -116 -54 -60 -23 -45 -66 vhcurveto
          12 -16 rlineto
          41 58 60 23 50 hhcurveto
          102 68 -72 -108 hvcurveto
          -59 vlineto
          18 -49 -66 11 -59 44 callsubr
          90 82 36 62 48 hvcurveto
          -48 vlineto
          -14 5 -12 9 -8 vhcurveto
          -57 -41 -22 -30 -33 -43 callgsubr
          -207 169 rmoveto
          -83 -65 61 78 77 78 51 116 62 58 -10 -21 54 hvcurveto
          -103 vlineto
          -12 -5 -15 -10 -14 vhcurveto
          -56 -36 -80 -36 -89 hhcurveto
          endchar
        </CharString>
        <CharString name="apostrophe">
          -19 17 callgsubr
          333 20 callgsubr
        </CharString>
        <CharString name="approxequal">
          -142 213 20 21 20 8 20 21 20 hstem
          343 313 -26 callsubr
          -12 -53 -26 callsubr
          endchar
        </CharString>
        <CharString name="aring">
          -71 callgsubr
          -20 125 -16 114 -16 -20 hstemhm
          39 20 141 114 113 20 hintmask 1011010111000000
          -94 callgsubr
          hintmask 0111010111000000
          -2 3 3 0 8 hhcurveto
          -56 callsubr
          7 13 hvcurveto
          287 vlineto
          122 -74 78 -116 -54 -60 -23 -45 -66 vhcurveto
          12 -16 rlineto
          41 58 60 23 50 hhcurveto
          102 68 -72 -108 hvcurveto
          -59 vlineto
          18 -49 -66 11 -59 hhcurveto
          -126 -88 -61 -87 hvcurveto
          hintmask 1011010111000000
          -104 callsubr
          -7 663 -62 callsubr
          hintmask 1010101111000000
          -65 callgsubr
          endchar
        </CharString>
        <CharString name="aringacute">
          -71 callgsubr
          -20 125 -16 114 -16 -20 171 -20 hstemhm
          39 20 141 114 113 20 hintmask 1011010111100000
          -94 callgsubr
          hintmask 0111010111100000
          -2 3 3 0 8 hhcurveto
          -56 callsubr
          7 13 hvcurveto
          287 vlineto
          122 -74 78 -116 -54 -60 -23 -45 -66 vhcurveto
          12 -16 rlineto
          41 58 60 23 50 hhcurveto
          102 68 -72 -108 hvcurveto
          -59 vlineto
          18 -49 -66 11 -59 hhcurveto
          -126 -88 -61 -87 hvcurveto
          hintmask 1011010111100000
          -104 callsubr
          -7 663 -62 callsubr
          hintmask 1010101111100000
          -65 callgsubr
          68 151 rmoveto
          -34 hlineto
          -64 -73 16 -12 rlineto
          endchar
        </CharString>
        <CharString name="asciicircum">
          -62 324 -21 407 -20 hstem
          67 303 rmoveto
          186 378 183 -378 rlineto
          23 hlineto
          -197 407 rlineto
          -18 hlineto
          -198 -407 rlineto
          endchar
        </CharString>
        <CharString name="asciitilde">
          -105 251 20 41 20 hstem
          70 251 rmoveto
          20 hlineto
          2 23 59 41 vhcurveto
          42 44 -61 63 hhcurveto
          68 22 73 0 hvcurveto
          -20 1 rlineto
          -5 -22 -49 -48 vhcurveto
          -53 -42 61 -54 hhcurveto
          -60 -24 -77 -4 hvcurveto
          endchar
        </CharString>
        <CharString name="asterisk">
          -265 573 -21 158 -20 hstem
          141 20 vstem
          110 552 rmoveto
          41 57 41 -57 17 12 -42 57 67 22 -6 19 -67 -22 rlineto
          70 -20 -70 vlineto
          -67 22 -6 -19 67 -22 -41 -57 rlineto
          endchar
        </CharString>
        <CharString name="at">
          263 -146 20 110 20 8 20 213 20 164 20 134 20 hstemhm
          50 20 171 20 297 211 -20 20 hintmask 1111111101000000
          413 603 rmoveto
          -188 -175 -155 -218 -211 164 -165 198 55 55 13 27 52 hvcurveto
          -10 18 rlineto
          -26 -48 -52 -12 -52 hhcurveto
          -188 -154 158 198 205 165 148 178 185 151 -161 -199 -84 -27 -135 -92 -45 -8 32 59 hvcurveto
          153 vlineto
          99 -19 102 -131 -59 -52 -21 -31 -46 vhcurveto
          12 -16 rlineto
          30 43 51 18 50 hhcurveto
          hintmask 1111111110000000
          104 28 -77 -110 hvcurveto
          8 -23 -53 15 -60 hhcurveto
          -86 -95 -30 -95 -75 58 -53 88 69 64 33 39 34 hvcurveto
          -56 5 7 -44 63 hhcurveto
          128 12 180 58 211 -159 170 -197 hvcurveto
          71 -548 rmoveto
          -12 -25 -37 -11 -35 hhcurveto
          -66 -60 38 70 81 80 24 76 hvcurveto
          75 50 -24 15 hhcurveto
          -47 vlineto
          -41 -7 -47 -66 -31 vhcurveto
          endchar
        </CharString>
        <CharString name="atilde">
          -71 callgsubr
          -20 175 -19 57 10 37 callgsubr
          hintmask 1011010110000000
          -94 callgsubr
          hintmask 0111010110000000
          -2 3 3 0 8 hhcurveto
          -56 callsubr
          7 13 hvcurveto
          287 vlineto
          122 -74 78 -116 -54 -60 -23 -45 -66 vhcurveto
          12 -16 rlineto
          41 58 60 23 50 hhcurveto
          102 68 -72 -108 hvcurveto
          -59 vlineto
          18 -49 -66 11 -59 hhcurveto
          -126 -88 -61 -87 hvcurveto
          hintmask 1011010110000000
          -104 callsubr
          111 653 rmoveto
          hintmask 1010101110000000
          -84 callsubr
          hintmask 1011010110000000
          -99 callsubr
        </CharString>
        <CharString name="b">
          36 14 callgsubr
          203 -20 hstemhm
          84 20 433 20 hintmask 10111100
          307 -10 rmoveto
          141 109 127 141 26 callsubr
          hvcurveto
          332 -20 vlineto
          hintmask 01111100
          -730 20 108 vlineto
          hintmask 10111100
          -66 41 80 -52 82 hhcurveto
          20 vmoveto
          -81 -117 72 85 -5 hvcurveto
          189 18 callgsubr
          -123 -96 -125 -134 hvcurveto
          endchar
        </CharString>
        <CharString name="backslash">
          -53 -71 callsubr
          hstem
          27 -22 callsubr
          436 -710 rlineto
          25 hlineto
          -435 710 rlineto
          endchar
        </CharString>
        <CharString name="bar">
          -357 -109 -21 905 -20 hstem
          95 20 vstem
          115 -130 rmoveto
          905 -20 -905 vlineto
          endchar
        </CharString>
        <CharString name="braceleft">
          -338 -10 -21 771 -20 hstem
          98 20 vstem
          173 720 rmoveto
          20 -52 vlineto
          -5 -18 -4 -26 hvcurveto
          -294 vlineto
          -9 -2 -36 -28 vhcurveto
          -20 vlineto
          24 -3 6 -24 -20 vvcurveto
          -305 vlineto
          -22 12 -8 11 vhcurveto
          52 20 -55 315 hlineto
          6 0 32 -21 18 vhcurveto
          21 19 0 30 7 vvcurveto
          304 vlineto
          endchar
        </CharString>
        <CharString name="braceright">
          -338 -10 -21 771 -20 hstem
          111 20 vstem
          111 720 rmoveto
          -304 vlineto
          -7 0 -30 21 -19 vhcurveto
          -21 -18 0 -32 -6 vvcurveto
          -315 -55 -20 52 vlineto
          11 12 8 22 hvcurveto
          305 vlineto
          20 6 24 24 3 vhcurveto
          20 vlineto
          -28 -2 36 9 hvcurveto
          294 vlineto
          26 -18 4 -5 vhcurveto
          -52 -20 hlineto
          endchar
        </CharString>
        <CharString name="bracketleft">
          -339 -19 -21 760 -20 40 -20 hstemhm
          97 20 hintmask 11010000
          167 -40 rmoveto
          20 -50 740 50 vlineto
          hintmask 10110000
          20 -70 -780 vlineto
          endchar
        </CharString>
        <CharString name="bracketright">
          -339 -19 -21 780 -20 hstem
          111 20 vstem
          131 -40 rmoveto
          780 -70 -20 50 -740 -50 -20 vlineto
          endchar
        </CharString>
        <CharString name="breve">
          -319 674 -21 77 -20 hstem
          124 670 -100 callsubr
        </CharString>
        <CharString name="brokenbar">
          -353 -109 -21 905 -20 hstem
          97 20 vstem
          97 285 rmoveto
          -415 20 415 vlineto
          -20 490 rmoveto
          -415 20 415 vlineto
          endchar
        </CharString>
        <CharString name="bullet">
          -227 264 157 hstem
          91 157 vstem
          248 343 rmoveto
          42 -34 36 -44 -43 -36 -36 -42 -44 36 -35 43 44 34 35 44 vhcurveto
          endchar
        </CharString>
        <CharString name="c">
          -29 -10 -49 callgsubr
          hstem
          46 -102 callsubr
          endchar
        </CharString>
        <CharString name="c_t">
          261 -10 25 1 -21 512 20 -8 -20 234 20 hstemhm
          46 20 315 20 233 20 hintmask 10011111
          808 40 rmoveto
          -2 -3 -35 -23 -46 hhcurveto
          -35 -32 21 39 -3 hvcurveto
          424 -24 callgsubr
          vlineto
          145 -1 2 89 -144 hhcurveto
          -84 -46 -61 -72 -57 31 -47 24 -35 hvcurveto
          hintmask 10101111
          29 -35 -48 17 -66 hhcurveto
          -142 -99 -130 -139 -133 105 -135 145 10 callgsubr
          -54 callgsubr
          118 81 131 140 78 67 -31 -72 39 hvcurveto
          19 7 rlineto
          -15 34 -74 103 72 vvcurveto
          61 36 52 74 vhcurveto
          hintmask 01011111
          134 -14 -87 -127 3 hvcurveto
          -75 -20 75 -424 hlineto
          -24 callsubr
          endchar
        </CharString>
        <CharString name="cacute">
          -29 -10 -49 callgsubr
          203 -20 hstem
          46 -102 callsubr
          315 468 rmoveto
          -34 hlineto
          -64 -73 16 -12 rlineto
          endchar
        </CharString>
        <CharString name="caron">
          -265 665 -21 86 -20 hstem
          50 718 -96 callsubr
        </CharString>
        <CharString name="caron.alt">
          -369 17 callgsubr
          148 6 callgsubr
          endchar
        </CharString>
        <CharString name="ccaron">
          -29 -10 -49 callgsubr
          203 -20 hstem
          46 -102 callsubr
          146 456 -96 callsubr
        </CharString>
        <CharString name="ccedilla">
          -29 -162 111 -16 77 -22 callgsubr
          hstemhm
          46 20 300 20 hintmask 01111000
          46 262 rmoveto
          -143 104 -119 129 -9 vhcurveto
          -42 -74 rlineto
          -72 callgsubr
          -10 -18 rlineto
          hintmask 10111000
          -73 callsubr
          27 47 88 3 84 51 23 69 rlinecurve
          -20 6 rlineto
          hintmask 01111000
          -57 -16 -87 -52 -81 hhcurveto
          -124 -104 115 137 137 100 108 127 76 68 -39 -64 34 hvcurveto
          20 7 rlineto
          73 -35 -73 43 -87 hhcurveto
          -141 -109 -116 -149 hvcurveto
          endchar
        </CharString>
        <CharString name="ccircumflex">
          -29 -10 -49 callgsubr
          203 -20 hstem
          46 -102 callsubr
          162 382 -101 callgsubr
        </CharString>
        <CharString name="cdotaccent">
          -29 -10 -49 callgsubr
          203 -20 hstem
          46 20 217 -102 callsubr
          257 391 rmoveto
          -93 callsubr
        </CharString>
        <CharString name="cedilla">
          -315 -162 111 62 -20 hstem
          178 20 vstem
          23 -143 rmoveto
          -73 callsubr
          33 57 -18 11 -54 -94 rlineto
          -72 callgsubr
          endchar
        </CharString>
        <CharString name="cent">
          -26 -99 -21 110 -49 callgsubr
          118 -20 hstem
          46 -29 callgsubr
          vstem
          296 -120 rmoveto
          110 vlineto
          10 callgsubr
          497 vlineto
          74 -3 63 -31 38 -69 19 7 rcurveline
          -33 66 -57 47 -104 3 rrcurveto
          118 -20 -118 vlineto
          -136 -7 -94 -127 -135 vvcurveto
          -127 95 -129 135 -11 vhcurveto
          -111 vlineto
          -210 378 rmoveto
          115 76 127 134 7 vhcurveto
          -496 vlineto
          -119 11 -91 113 123 vvcurveto
          endchar
        </CharString>
        <CharString name="circumflex">
          -265 665 -21 86 -20 hstem
          66 644 -101 callgsubr
        </CharString>
        <CharString name="colon">
          -409 21 -21 517 -20 hstem
          69 20 vstem
          89 453 rmoveto
          39 callsubr
          20 -453 rmoveto
          39 callsubr
          endchar
        </CharString>
        <CharString name="colonmonetary">
          -30 -99 -21 131 -21 537 -20 138 -20 hstem
          44 20 168 20 70 20 vstem
          232 -120 rmoveto
          20 114 hlineto
          -2 14 14 -2 15 hhcurveto
          9 9 1 1 9 hvcurveto
          -112 20 115 vlineto
          72 14 63 46 19 58 -20 6 rcurveline
          -57 -16 -87 -52 -81 hhcurveto
          -124 -104 115 137 137 100 108 127 76 68 -39 -64 34 hvcurveto
          20 7 -29 59 -53 39 -65 13 rlinecurve
          123 -20 -120 vlineto
          1 -9 -10 1 -9 hhcurveto
          -15 -14 -1 -3 -13 hvcurveto
          122 -20 -126 vlineto
          -110 -29 -78 -102 -126 vvcurveto
          -126 80 -107 108 -30 vhcurveto
          endchar
        </CharString>
        <CharString name="comma">
          -307 -60 -21 92 -21 74 -20 hstem
          117 26 vstem
          130 -81 rmoveto
          13 71 -27 callgsubr
          -71 rlineto
          endchar
        </CharString>
        <CharString name="commaaccent">
          -447 -146 -21 117 -20 hstem
          67 -167 -85 callgsubr
        </CharString>
        <CharString name="copyright">
          257 -7 20 114 20 419 20 109 20 hstem
          51 21 128 20 532 -31 callsubr
          1 20 rmoveto
          -197 -144 146 195 196 145 145 196 195 144 -145 -198 -201 -148 -138 -191 hvcurveto
          6 114 rmoveto
          93 69 71 35 10 -32 callsubr
          -56 -24 -75 -35 -58 hhcurveto
          -85 -110 75 133 97 59 114 132 44 76 -13 -73 31 hvcurveto
          19 7 rlineto
          67 -26 -70 32 -74 hhcurveto
          -147 -64 -125 -106 -145 118 -83 101 hvcurveto
          endchar
        </CharString>
        <CharString name="currency">
          -34 155 -21 400 -20 hstem
          90 21 310 21 vstem
          79 534 rmoveto
          -15 -14 68 -68 rlineto
          -26 -32 -16 -41 -44 vvcurveto
          -45 16 -41 28 -32 vhcurveto
          -70 -69 15 -14 69 68 rlineto
          -28 31 40 -17 46 hhcurveto
          47 41 18 30 32 hvcurveto
          72 -71 15 14 -73 71 rlineto
          27 32 16 41 43 vvcurveto
          43 -16 40 -25 32 vhcurveto
          71 70 -15 14 -70 -69 rlineto
          31 -31 -43 19 -48 hhcurveto
          -46 -42 -18 -30 -31 hvcurveto
          -35 -133 rmoveto
          90 71 72 83 85 71 -71 -89 -87 -71 -74 -85 -84 -70 71 88 vhcurveto
          endchar
        </CharString>
        <CharString name="d">
          -74 callsubr
          endchar
        </CharString>
        <CharString name="d.alt">
          36 14 callgsubr
          203 -20 hstemhm
          46 20 433 20 hintmask 01111100
          519 hmoveto
          730 -20 -332 vlineto
          69 -48 -69 60 -95 hhcurveto
          -139 -102 -126 -143 hvcurveto
          hintmask 10111100
          -133 105 -135 145 79 80 49 69 44 vhcurveto
          hintmask 01111100
          -108 vlineto
          169 vmoveto
          hintmask 10111100
          -85 -2 -120 -74 -81 hhcurveto
          -54 callgsubr
          124 86 125 135 84 100 -68 -83 28 hvcurveto
          endchar
        </CharString>
        <CharString name="dagger">
          -196 -109 -21 391 20 494 -20 hstem
          176 20 vstem
          196 -130 rmoveto
          391 131 20 -131 494 -20 -494 -132 -20 132 -391 vlineto
          endchar
        </CharString>
        <CharString name="daggerdbl">
          -188 -109 -21 331 20 110 20 424 -20 hstem
          180 20 vstem
          200 -130 rmoveto
          331 131 20 -131 110 131 20 -131 424 -20 -424 -132 -20 132 -110 -132 -20 132 -331 vlineto
          endchar
        </CharString>
        <CharString name="dcaron">
          -74 callsubr
          364 720 rmoveto
          -34 hlineto
          -64 -73 16 -12 rlineto
          endchar
        </CharString>
        <CharString name="dcroat">
          37 14 callgsubr
          106 20 77 -20 hstemhm
          46 20 433 20 hintmask 10111110
          -61 callgsubr
          hintmask 01111110
          5 callsubr
          -20 callsubr
          593 76 20 -76 77 -20 -77 -124 -20 124 -235 vlineto
          69 -42 -75 60 -95 hhcurveto
          -139 -102 -126 -143 hvcurveto
          hintmask 10111110
          -133 105 -135 145 vhcurveto
          -87 callgsubr
          endchar
        </CharString>
        <CharString name="ddotbelow">
          37 -106 -21 117 20 11 -21 507 20 203 -20 hstemhm
          46 20 217 20 196 20 hintmask 11011111
          -61 callgsubr
          hintmask 10111111
          5 callsubr
          -20 callsubr
          -1 callgsubr
          -332 vlineto
          69 -42 -75 60 -95 hhcurveto
          -139 -102 -126 -143 hvcurveto
          hintmask 11011111
          -133 105 -135 145 vhcurveto
          -87 callgsubr
          7 -137 rmoveto
          -93 callsubr
        </CharString>
        <CharString name="degree">
          -315 586 20 98 20 hstem
          57 20 98 20 vstem
          57 655 rmoveto
          -38 31 -31 38 38 31 31 38 38 -31 31 -38 -38 -31 -31 -38 vhcurveto
          34 35 rmoveto
          9 9 12 5 14 hhcurveto
          13 13 -5 -9 9 hvcurveto
          8 -9 6 -12 -14 vvcurveto
          -13 -6 -13 -8 -8 vhcurveto
          -9 -9 -13 -6 -13 hhcurveto
          -14 -12 6 9 -9 hvcurveto
          -9 8 -5 13 13 vvcurveto
          14 5 12 9 9 vhcurveto
          endchar
        </CharString>
        <CharString name="dieresis">
          -331 674 -21 77 -20 hstem
          50 20 96 20 vstem
          70 653 -50 callsubr
          136 hmoveto
          -93 callsubr
        </CharString>
        <CharString name="divide">
          -21 113 -21 169 20 168 -20 hstem
          263 20 vstem
          283 385 rmoveto
          39 callsubr
          20 -293 rmoveto
          39 callsubr
          212 169 8 callsubr
        </CharString>
        <CharString name="dollar">
          46 -72 -21 109 -21 820 -20 hstem
          70 -29 callgsubr
          232 20 vstem
          529 630 rmoveto
          -56 60 -64 24 -89 1 rrcurveto
          100 -20 -101 vlineto
          -141 -5 -89 -67 -118 vvcurveto
          -114 82 -32 148 -29 vhcurveto
          -337 vlineto
          -97 5 -75 32 -67 69 -15 -13 rcurveline
          71 -70 80 -35 103 -4 rrcurveto
          -89 20 88 2 vlineto
          -8 callgsubr
          123 -98 35 -154 31 hvcurveto
          333 vlineto
          84 56 -18 -62 56 hvcurveto
          36 -445 rmoveto
          -106 -88 -53 -141 vhcurveto
          -3 333 hlineto
          160 -32 72 -37 -105 vvcurveto
          -462 355 rmoveto
          98 62 66 148 5 vhcurveto
          -327 vlineto
          -148 31 -62 28 99 vvcurveto
          endchar
        </CharString>
        <CharString name="dotaccent">
          -447 674 -21 77 -20 hstem
          50 20 vstem
          70 653 rmoveto
          -93 callsubr
        </CharString>
        <CharString name="dotbelow">
          -447 -106 -21 77 -20 hstem
          50 20 vstem
          70 -127 rmoveto
          -93 callsubr
        </CharString>
        <CharString name="dotlessi">
          -379 -39 callgsubr
          vstem
          -64 callsubr
          endchar
        </CharString>
        <CharString name="dotlessj">
          -379 -170 20 669 -20 hstem
          84 20 vstem
          -29 -170 -86 callgsubr
          endchar
        </CharString>
        <CharString name="e">
          -64 callgsubr
          hstem
          46 20 454 21 vstem
          -107 callgsubr
          endchar
        </CharString>
        <CharString name="eacute">
          -12 callgsubr
          454 21 vstem
          -107 callgsubr
          -160 462 rmoveto
          -34 hlineto
          -64 -73 16 -12 rlineto
          endchar
        </CharString>
        <CharString name="ebreve">
          -64 callgsubr
          -20 163 60 -8 callsubr
          21 hintmask 11101110
          -107 callgsubr
          hintmask 11011110
          -228 402 -100 callsubr
        </CharString>
        <CharString name="ecaron">
          -12 callgsubr
          454 21 vstem
          -107 callgsubr
          -329 450 -96 callsubr
        </CharString>
        <CharString name="ecircumflex">
          -12 callgsubr
          454 21 vstem
          -107 callgsubr
          -313 376 -101 callgsubr
        </CharString>
        <CharString name="edblgrave">
          -64 callgsubr
          -20 223 hstemhm
          46 20 454 21 hintmask 11101100
          -107 callgsubr
          -178 377 rmoveto
          16 12 rlineto
          hintmask 11011100
          -90 callsubr
        </CharString>
        <CharString name="edieresis">
          -12 callgsubr
          158 20 96 20 160 21 vstem
          -107 callgsubr
          -276 385 -50 callsubr
          136 hmoveto
          -93 callsubr
        </CharString>
        <CharString name="edotaccent">
          -12 callgsubr
          216 20 218 21 vstem
          -107 callgsubr
          -218 385 rmoveto
          -93 callsubr
        </CharString>
        <CharString name="edotbelow">
          9 -106 -21 117 -56 callgsubr
          hstem
          46 20 218 20 216 21 vstem
          -107 callgsubr
          -216 -395 rmoveto
          -93 callsubr
        </CharString>
        <CharString name="egrave">
          -12 callgsubr
          454 21 vstem
          -107 callgsubr
          -214 377 -76 callsubr
        </CharString>
        <CharString name="eight">
          -77 callgsubr
        </CharString>
        <CharString name="eight.denominator">
          -185 -4 -25 callgsubr
          103 -93 callgsubr
        </CharString>
        <CharString name="eight.lnum">
          -77 callgsubr
        </CharString>
        <CharString name="eight.numerator">
          -185 343 218 -17 186 -18 -20 hstemhm
          42 -34 callsubr
          hintmask 10110010
          339 450 -26 callgsubr
          hintmask 01001100
          -79 callgsubr
          hintmask 10110010
          -91 callsubr
          hintmask 01001010
          56 66 37 62 59 70 -34 -58 vhcurveto
          -241 184 rmoveto
          hintmask 10101100
          47 54 29 58 -57 callgsubr
          vhcurveto
          endchar
        </CharString>
        <CharString name="eightinferior">
          -185 -84 -25 callgsubr
          23 -93 callgsubr
        </CharString>
        <CharString name="eightsuperior">
          -185 423 -25 callgsubr
          530 -93 callgsubr
        </CharString>
        <CharString name="einvertedbreve">
          -64 callgsubr
          -20 223 -17 -8 callsubr
          21 hintmask 11101110
          -107 callgsubr
          -230 445 -60 callsubr
          hintmask 11010110
          -72 callsubr
          hintmask 11101110
          -40 callgsubr
        </CharString>
        <CharString name="ellipsis">
          -219 0 64 hstem
          69 20 75 20 75 20 cntrmask 01110000
          89 hmoveto
          39 callsubr
          115 hmoveto
          39 callsubr
          115 hmoveto
          39 callsubr
          endchar
        </CharString>
        <CharString name="emacron">
          -64 callgsubr
          159 20 hstem
          46 20 454 21 vstem
          -107 callgsubr
          -88 418 -46 callgsubr
        </CharString>
        <CharString name="emdash">
          310 261 20 hstem
          808 261 rmoveto
          20 -739 -20 vlineto
          endchar
        </CharString>
        <CharString name="emspace">
          339 endchar
        </CharString>
        <CharString name="endash">
          -26 261 20 hstem
          472 261 8 callsubr
        </CharString>
        <CharString name="eng">
          -2 -170 20 171 -21 507 20 -8 14 callsubr
          hintmask 11101100
          354 -170 -33 callsubr
          325 vlineto
          163 -48 75 -106 -93 -93 -58 -84 -43 vhcurveto
          hintmask 11011100
          134 -2 callsubr
          20 328 vlineto
          hintmask 11101100
          102 29 101 77 100 hhcurveto
          93 40 -67 -151 hvcurveto
          -325 -92 callsubr
          endchar
        </CharString>
        <CharString name="enspace">
          -4 endchar
        </CharString>
        <CharString name="eogonek">
          9 -147 -21 158 -56 callgsubr
          hstem
          46 20 149 20 285 21 vstem
          267 -168 -78 callgsubr
          83 7 77 50 26 66 -19 5 rcurveline
          -64 -29 -77 -45 -80 hhcurveto
          -121 -100 104 134 -10 hvcurveto
          475 11 hlineto
          149 -1 -111 119 -138 hhcurveto
          -136 -109 -118 -146 -145 106 -121 132 -7 hvcurveto
          28 callgsubr
          -201 436 rmoveto
          137 7 96 102 123 hhcurveto
          123 96 -100 -139 9 hvcurveto
          endchar
        </CharString>
        <CharString name="equal">
          -132 231 20 50 20 hstem
          364 231 rmoveto
          20 -293 -20 vlineto
          293 70 rmoveto
          20 -293 -20 vlineto
          endchar
        </CharString>
        <CharString name="estimated">
          45 -10 20 245 40 callsubr
          hstem
          47 72 384 71 vstem
          310 10 rmoveto
          -78 -69 37 58 -44 hvcurveto
          150 455 vlineto
          152 -108 124 -156 -155 -108 -125 -146 -145 106 -125 157 100 68 36 47 47 vhcurveto
          -13 15 rlineto
          -45 -38 -72 -33 -92 hhcurveto
          501 vmoveto
          75 73 -38 -60 45 hvcurveto
          -138 -384 139 vlineto
          59 44 69 38 78 hhcurveto
          endchar
        </CharString>
        <CharString name="eth">
          26 -10 20 445 20 255 -20 hstem
          48 20 454 20 vstem
          461 713 rmoveto
          -97 -64 -32 27 -38 27 -45 27 rlinecurve
          -29 hlineto
          52 -30 43 -30 35 -30 -120 -79 rcurveline
          10 -14 124 82 116 -103 32 -101 10 -95 rlinecurve
          85 -35 -88 60 -104 hhcurveto
          -134 -113 -111 -132 -131 110 -111 137 136 111 118 138 139 -21 128 -143 125 hvcurveto
          93 61 rlineto
          -403 -469 rmoveto
          122 104 103 123 123 104 -95 -113 -128 -104 -109 -124 -124 -102 100 120 vhcurveto
          endchar
        </CharString>
        <CharString name="etilde">
          -64 callgsubr
          -20 175 -19 57 10 -8 callsubr
          21 hintmask 11101011
          -107 callgsubr
          -167 395 rmoveto
          hintmask 11010111
          -84 callsubr
          hintmask 11101011
          -99 callsubr
        </CharString>
        <CharString name="exclam">
          31 callgsubr
          124 200 rmoveto
          517 -20 -517 vlineto
          20 -200 rmoveto
          84 -20 -84 vlineto
          endchar
        </CharString>
        <CharString name="exclamdown">
          31 callgsubr
          104 517 rmoveto
          -517 20 517 vlineto
          -20 200 rmoveto
          -84 20 84 vlineto
          endchar
        </CharString>
        <CharString name="f">
          -268 21 -21 499 20 -20 241 hstemhm
          103 20 hintmask 11010000
          123 hmoveto
          499 155 20 -155 21 9 callsubr
          hintmask 10110000
          27 callgsubr
          hintmask 11010000
          -21 -75 -20 75 -499 vlineto
          endchar
        </CharString>
        <CharString name="f_f">
          -30 7 callsubr
          vstem
          477 720 rmoveto
          48 15 -19 -7 6 hvcurveto
          16 12 rlineto
          3 -20 29 callgsubr
          -45 hhcurveto
          -108 -38 -89 -81 hvcurveto
          -11 -75 -20 75 38 callsubr
          187 38 callsubr
          185 20 -185 21 vlineto
          81 36 99 111 vhcurveto
          -167 -201 rmoveto
          -187 11 hlineto
          59 25 91 43 callsubr
          -43 -58 vvcurveto
          endchar
        </CharString>
        <CharString name="f_f_i">
          92 7 callsubr
          225 20 vstem
          103 hmoveto
          20 499 187 -499 9 callgsubr
          36 98 111 42 46 -14 -12 11 vhcurveto
          16 12 rlineto
          3 -50 29 callgsubr
          -44 hhcurveto
          -109 -38 -90 -81 hvcurveto
          -10 -75 -20 75 vlineto
          20 20 rmoveto
          10 vlineto
          59 25 92 43 callsubr
          -44 -57 vvcurveto
          endchar
        </CharString>
        <CharString name="f_f_l">
          173 16 -21 26 -21 499 20 161 20 20 20 hstemhm
          103 20 192 20 256 20 hintmask 10111111
          676 -5 rmoveto
          26 38 8 1 1 hvcurveto
          -9 19 rlineto
          -2 -34 -9 -22 hhcurveto
          -44 -19 35 28 hvcurveto
          537 vlineto
          70 -53 56 -90 -60 -38 -25 -40 -24 vhcurveto
          10 -14 -27 15 -47 hhcurveto
          -105 -50 -74 -98 hvcurveto
          -9 -75 -20 75 vlineto
          hintmask 01111111
          38 callsubr
          192 38 callsubr
          -24 callgsubr
          21 vlineto
          86 34 94 104 77 41 -51 -56 vhcurveto
          -536 vlineto
          hintmask 10111111
          -44 27 -38 58 vhcurveto
          -553 524 rmoveto
          9 vlineto
          73 35 79 101 23 31 -4 -19 23 vhcurveto
          -15 -33 -6 -41 -64 vvcurveto
          endchar
        </CharString>
        <CharString name="f_i">
          -115 21 -21 499 20 201 20 hstem
          103 41 callsubr
          vstem
          103 hmoveto
          9 callgsubr
          39 98 103 51 41 -14 -12 12 vhcurveto
          16 12 rlineto
          3 -48 31 -72 -123 -39 -116 -84 vhcurveto
          -21 -75 -20 75 vlineto
          endchar
        </CharString>
        <CharString name="f_l">
          -39 16 -21 26 -21 499 20 201 20 hstemhm
          103 20 256 20 hintmask 01111100
          520 23 rmoveto
          -1 -33 -9 -27 hhcurveto
          -39 -21 34 29 hvcurveto
          537 vlineto
          70 -52 56 -92 -111 -41 -91 -109 vhcurveto
          -21 -75 -20 75 38 callsubr
          -24 callgsubr
          21 vlineto
          85 37 95 95 89 35 -54 -53 vhcurveto
          -536 vlineto
          hintmask 10111100
          -44 29 -38 50 35 35 8 1 1 vhcurveto
          endchar
        </CharString>
        <CharString name="five">
          -30 -149 20 147 -21 289 20 245 20 hstem
          478 20 vstem
          268 306 -58 callgsubr
        </CharString>
        <CharString name="five.denominator">
          -206 -5 -4 callgsubr
          241 -40 callsubr
          hintmask 01100000
          -85 callsubr
          hintmask 10100000
          -48 callgsubr
        </CharString>
        <CharString name="five.lnum">
          -17 -10 20 415 20 245 20 hstem
          485 20 vstem
          275 445 -58 callgsubr
        </CharString>
        <CharString name="five.numerator">
          -206 342 44 callgsubr
          304 20 hintmask 10011000
          180 588 -40 callsubr
          hintmask 01101000
          -85 callsubr
          hintmask 10011000
          -48 callgsubr
        </CharString>
        <CharString name="fiveeighths">
          221 30 callgsubr
          -41 44 callgsubr
          307 20 128 -34 callsubr
          hintmask 1010011100100000
          114 -1 -76 callgsubr
          654 92 -26 callgsubr
          hintmask 0101101011000000
          -79 callgsubr
          hintmask 1010011100100000
          -91 callsubr
          hintmask 0101101010100000
          -70 callgsubr
          hintmask 1010011011000000
          -57 callgsubr
          hvcurveto
          -308 299 -40 callsubr
          hintmask 1001101101000000
          -85 callsubr
          hintmask 1010011101000000
          -48 callgsubr
        </CharString>
        <CharString name="fiveinferior">
          -206 -85 -4 callgsubr
          161 -40 callsubr
          hintmask 01100000
          -85 callsubr
          hintmask 10100000
          -48 callgsubr
        </CharString>
        <CharString name="fivesuperior">
          -206 422 -4 callgsubr
          668 -40 callsubr
          hintmask 01100000
          -85 callsubr
          hintmask 10100000
          -48 callgsubr
        </CharString>
        <CharString name="florin">
          -59 -170 20 588 20 282 -20 hstem
          243 20 vstem
          130 -170 -33 callsubr
          474 155 20 -155 82 9 callsubr
          27 callgsubr
          -82 -75 -20 75 -474 -92 callsubr
          endchar
        </CharString>
        <CharString name="four">
          -49 -106 -21 199 20 479 -20 hstem
          384 20 vstem
          404 -127 rmoveto
          199 88 20 -88 479 -14 vlineto
          -371 -482 rlineto
          -17 365 -199 vlineto
          661 vmoveto
          -442 -337 vlineto
          endchar
        </CharString>
        <CharString name="four.denominator">
          -201 21 -15 callsubr
          hmoveto
          -81 callgsubr
          endchar
        </CharString>
        <CharString name="four.lnum">
          -17 21 -21 211 20 479 -20 hstem
          409 20 vstem
          429 hmoveto
          211 88 20 -88 479 -14 vlineto
          -391 -482 rlineto
          -17 385 -211 vlineto
          673 vmoveto
          -442 -357 vlineto
          endchar
        </CharString>
        <CharString name="four.numerator">
          -201 368 -15 callsubr
          347 rmoveto
          -81 callgsubr
          endchar
        </CharString>
        <CharString name="fourinferior">
          -201 -59 -15 callsubr
          -80 rmoveto
          -81 callgsubr
          endchar
        </CharString>
        <CharString name="foursuperior">
          -201 448 -15 callsubr
          427 rmoveto
          -81 callgsubr
          endchar
        </CharString>
        <CharString name="fraction">
          -447 20 -21 712 -20 hstem
          -211 -1 20 callsubr
        </CharString>
        <CharString name="franc">
          46 21 -21 151 20 183 20 316 20 hstem
          122 20 vstem
          142 hmoveto
          151 169 20 -169 183 27 callsubr
          -539 -94 -20 94 -151 vlineto
          endchar
        </CharString>
        <CharString name="g">
          36 -223 20 193 -49 callgsubr
          -8 -20 hstemhm
          46 20 433 20 hintmask 11011100
          -96 callgsubr
          hintmask 11101100
          -97 callgsubr
          endchar
        </CharString>
        <CharString name="gacute">
          -97 callsubr
          66 720 rmoveto
          -34 hlineto
          -64 -73 16 -12 rlineto
          endchar
        </CharString>
        <CharString name="gbreve">
          36 -223 20 193 -49 callgsubr
          -20 163 -151 -20 231 -20 hstemhm
          46 20 433 20 hintmask 11001111
          -96 callgsubr
          hintmask 11100111
          -97 callgsubr
          hintmask 11010111
          18 660 -100 callsubr
        </CharString>
        <CharString name="gcircumflex">
          -97 callsubr
          -67 634 -101 callgsubr
        </CharString>
        <CharString name="gcommaaccent">
          -97 callsubr
          -7 720 rmoveto
          -13 -58 rlineto
          -59 26 59 -9 vlineto
          10 58 rlineto
          endchar
        </CharString>
        <CharString name="gdotaccent">
          36 -223 20 193 20 497 36 callsubr
          46 -31 callgsubr
          175 20 hintmask 11011111
          -96 callgsubr
          hintmask 11101111
          -97 callgsubr
          28 643 rmoveto
          -93 callsubr
        </CharString>
        <CharString name="germandbls">
          -21 15 -21 27 -21 393 20 281 20 hstemhm
          84 20 324 20 32 20 hintmask 10111110
          230 -6 rmoveto
          175 6 95 74 129 vvcurveto
          105 -62 73 -110 23 vhcurveto
          67 13 53 67 73 vvcurveto
          89 -78 68 -102 -109 -75 -82 -123 vhcurveto
          hintmask 01111110
          -509 20 509 vlineto
          112 64 73 99 91 70 -61 -81 -79 -66 -60 -88 vhcurveto
          -16 -20 17 hlineto
          122 83 -77 -114 -118 -90 -68 -160 -3 hvcurveto
          endchar
        </CharString>
        <CharString name="grave">
          -369 17 callgsubr
          132 645 -76 callsubr
        </CharString>
        <CharString name="greater">
          -65 21 -21 517 -20 hstem
          468 268 rmoveto
          -417 249 rlineto
          -22 vlineto
          388 -236 -388 -237 rlineto
          -22 vlineto
          417 250 rlineto
          endchar
        </CharString>
        <CharString name="greaterequal">
          -118 85 20 409 -20 hstem
          373 36 callgsubr
          300 280 rmoveto
          -290 149 rlineto
          -22 vlineto
          261 -136 -261 -137 rlineto
          -22 vlineto
          290 150 rlineto
          endchar
        </CharString>
        <CharString name="guillemotleft">
          -49 101 -21 357 -20 hstem
          42 250 -37 callgsubr
          170 -18 -37 callgsubr
          endchar
        </CharString>
        <CharString name="guillemotright">
          -49 101 -21 357 -20 hstem
          476 268 -36 callgsubr
          -170 18 -36 callgsubr
          endchar
        </CharString>
        <CharString name="guilsinglleft">
          -219 101 -21 357 -20 hstem
          42 250 -37 callgsubr
          endchar
        </CharString>
        <CharString name="guilsinglright">
          -219 101 -21 357 -20 hstem
          306 268 -36 callgsubr
          endchar
        </CharString>
        <CharString name="h">
          -2 21 -21 507 20 203 -20 hstem
          84 20 363 20 vstem
          -62 callgsubr
          endchar
        </CharString>
        <CharString name="hbar">
          -2 21 -21 507 20 106 20 77 -20 hstem
          84 20 363 20 vstem
          487 289 rmoveto
          156 -57 82 -108 -89 -86 -56 -86 -43 vhcurveto
          248 126 20 -126 77 -20 -77 -74 -20 74 -633 20 328 vlineto
          101 27 95 78 97 hhcurveto
          95 49 -74 -144 39 callgsubr
          endchar
        </CharString>
        <CharString name="hcircumflex">
          -2 21 -21 507 20 202 -20 21 14 callsubr
          hintmask 11011100
          -62 callgsubr
          -270 643 rmoveto
          85 63 85 -63 16 12 rlineto
          hintmask 11101100
          -93 74 rlineto
          -16 hlineto
          -93 -74 rlineto
          endchar
        </CharString>
        <CharString name="hdotbelow">
          -2 -106 -21 148 -21 507 20 203 -20 hstem
          84 20 174 20 169 20 vstem
          -62 callgsubr
          -189 -127 rmoveto
          -93 callsubr
        </CharString>
        <CharString name="hungarumlaut">
          -269 17 callgsubr
          148 6 callgsubr
          182 85 rmoveto
          -34 hlineto
          -64 -73 16 -12 rlineto
          endchar
        </CharString>
        <CharString name="hyphen">
          -146 261 20 hstem
          352 261 rmoveto
          20 -283 -20 vlineto
          endchar
        </CharString>
        <CharString name="i">
          -77 callsubr
          20 653 rmoveto
          -93 callsubr
        </CharString>
        <CharString name="iacute">
          -77 callsubr
          78 6 callgsubr
          endchar
        </CharString>
        <CharString name="ibreve">
          -77 callsubr
          10 670 -100 callsubr
        </CharString>
        <CharString name="icircumflex">
          -77 callsubr
          -75 644 -101 callgsubr
        </CharString>
        <CharString name="idblgrave">
          -77 callsubr
          63 645 rmoveto
          16 12 -90 callsubr
        </CharString>
        <CharString name="idieresis">
          -34 callgsubr
        </CharString>
        <CharString name="idotbelow">
          -379 -106 -21 148 -70 callsubr
          20 653 -50 callsubr
          20 -780 rmoveto
          -93 callsubr
        </CharString>
        <CharString name="igrave">
          -77 callsubr
          24 645 -76 callsubr
        </CharString>
        <CharString name="iinvertedbreve">
          -379 -67 callgsubr
          214 -20 37 -20 hstemhm
          84 20 hintmask 11101000
          -64 callsubr
          9 713 -60 callsubr
          hintmask 11011000
          -72 callsubr
          hintmask 11101000
          -40 callgsubr
        </CharString>
        <CharString name="ij">
          -183 -170 20 171 -52 callsubr
          231 -20 hstem
          84 20 176 20 vstem
          -64 callsubr
          20 653 -50 callsubr
          83 -823 -86 callgsubr
          133 823 -50 callsubr
          endchar
        </CharString>
        <CharString name="imacron">
          -379 -67 callgsubr
          187 20 hstem
          84 20 vstem
          -64 callsubr
          150 686 -46 callgsubr
        </CharString>
        <CharString name="infinity">
          135 186 20 291 20 hstem
          51 20 559 20 vstem
          201 517 rmoveto
          -85 -65 -74 -91 -91 65 -75 85 83 40 63 70 29 hvcurveto
          -70 30 40 -63 77 hhcurveto
          85 65 74 91 91 -58 75 -91 -81 -38 -62 -70 -31 hvcurveto
          70 -31 -39 62 -80 hhcurveto
          -311 vmoveto
          -62 -68 52 94 97 68 48 62 73 36 -67 -80 32 hvcurveto
          -78 -32 -37 -66 -72 hhcurveto
          300 hmoveto
          -71 -37 64 76 -31 hvcurveto
          81 30 34 69 75 hhcurveto
          62 67 -47 -97 -94 -67 -52 -62 hvcurveto
          endchar
        </CharString>
        <CharString name="integral">
          -307 -146 -21 987 -20 hstem
          142 -51 rmoveto
          -67 4 -24 -31 -38 hhcurveto
          -18 -29 10 10 -21 hvcurveto
          -6 -17 rlineto
          -12 22 31 -9 22 hhcurveto
          49 30 40 70 -4 hvcurveto
          -42 764 rlineto
          61 -3 23 34 38 hhcurveto
          15 35 -10 -10 18 hvcurveto
          7 17 rlineto
          12 -22 -32 9 -22 hhcurveto
          -49 -31 -47 -63 4 hvcurveto
          endchar
        </CharString>
        <CharString name="iogonek">
          -378 -138 -21 678 -20 231 -20 hstem
          4 20 61 20 vstem
          56 -159 -78 callgsubr
          -54 callsubr
          -511 vlineto
          -58 -43 -23 -29 -34 -43 callgsubr
          49 812 rmoveto
          -93 callsubr
        </CharString>
        <CharString name="itilde">
          -379 -67 callgsubr
          164 57 10 -20 hstemhm
          84 20 hintmask 11101000
          -64 callsubr
          71 663 rmoveto
          hintmask 11011000
          -84 callsubr
          hintmask 11101000
          -99 callsubr
        </CharString>
        <CharString name="j">
          -371 45 callgsubr
          92 20 vstem
          -21 -170 -86 callgsubr
          133 823 -50 callsubr
          endchar
        </CharString>
        <CharString name="j.alt">
          -379 -192 -21 930 -20 hstem
          84 20 vstem
          84 -213 rmoveto
          20 730 -20 hlineto
          136 vmoveto
          20 64 -20 hlineto
          endchar
        </CharString>
        <CharString name="jcircumflex">
          -379 45 callgsubr
          84 20 vstem
          -29 -170 -86 callgsubr
          38 814 -101 callgsubr
        </CharString>
        <CharString name="k">
          -59 21 -21 730 -37 callsubr
          534 -20 -730 21 callsubr
          endchar
        </CharString>
        <CharString name="kcommaaccent">
          -59 -146 -21 188 -21 730 -37 callsubr
          534 -20 -730 21 callsubr
          -204 -167 -85 callgsubr
        </CharString>
        <CharString name="kgreenlandic">
          -59 21 -21 519 -37 callsubr
          323 -2 callsubr
          21 callsubr
          endchar
        </CharString>
        <CharString name="l">
          -329 16 -21 735 -20 hstem
          90 20 vstem
          90 77 rmoveto
          -82 callsubr
          653 -20 vlineto
          endchar
        </CharString>
        <CharString name="l.alt">
          -363 21 -21 730 -20 hstem
          92 20 vstem
          92 hmoveto
          20 730 -20 hlineto
          endchar
        </CharString>
        <CharString name="lacute">
          -329 16 -21 735 -20 154 -20 hstem
          90 20 vstem
          90 77 rmoveto
          -82 callsubr
          653 -20 vlineto
          68 134 rmoveto
          -34 hlineto
          -64 -73 16 -12 rlineto
          endchar
        </CharString>
        <CharString name="lcaron">
          -329 16 -21 735 -20 hstem
          90 20 vstem
          90 77 rmoveto
          -82 callsubr
          653 -20 vlineto
          168 hmoveto
          -34 hlineto
          -64 -73 16 -12 rlineto
          endchar
        </CharString>
        <CharString name="lcommaaccent">
          -329 -146 -21 183 -21 735 -20 hstem
          90 20 vstem
          90 77 rmoveto
          -82 callsubr
          653 -20 vlineto
          69 -897 -85 callgsubr
        </CharString>
        <CharString name="ldot">
          -312 16 -21 735 -20 hstem
          90 20 106 20 vstem
          90 77 rmoveto
          -82 callsubr
          653 -20 vlineto
          146 -480 rmoveto
          83 -20 -83 vlineto
          endchar
        </CharString>
        <CharString name="less">
          -65 21 -21 517 -20 hstem
          34 250 rmoveto
          417 -250 rlineto
          22 vlineto
          -388 237 388 236 rlineto
          22 vlineto
          -417 -249 rlineto
          endchar
        </CharString>
        <CharString name="lessequal">
          -118 85 20 409 -20 hstem
          376 36 callgsubr
          262 vmoveto
          290 -150 rlineto
          22 vlineto
          -261 137 261 136 rlineto
          22 vlineto
          -290 -149 rlineto
          endchar
        </CharString>
        <CharString name="lira">
          -107 -15 20 0 40 callsubr
          65 20 329 20 hstemhm
          75 22 91 21 hintmask 10111110
          44 346 rmoveto
          119 hlineto
          9 -20 8 -22 4 -23 rrcurveto
          -97 -20 100 hlineto
          -7 1 -6 -7 -28 callgsubr
          hintmask 01111110
          7 callgsubr
          6 -1 6 7 vvcurveto
          162 20 -164 hlineto
          -4 23 -7 22 -9 20 rrcurveto
          -38 callsubr
        </CharString>
        <CharString name="logicalnot">
          -6 161 -21 178 20 hstem
          470 20 vstem
          87 338 rmoveto
          -20 383 -178 20 198 vlineto
          endchar
        </CharString>
        <CharString name="lozenge">
          -101 21 -21 730 -20 hstem
          221 730 rmoveto
          -186 -364 186 -366 rlineto
          24 hlineto
          186 366 -186 364 rlineto
          -8 -705 rmoveto
          -174 350 165 335 175 -356 rlineto
          endchar
        </CharString>
        <CharString name="lslash">
          -314 16 -21 735 -20 hstem
          104 20 vstem
          104 77 rmoveto
          -82 callsubr
          320 vlineto
          107 107 -15 14 -92 -92 rlineto
          304 -20 -324 vlineto
          -88 -88 15 -14 73 73 rlineto
          endchar
        </CharString>
        <CharString name="m">
          341 21 -21 507 20 -8 -20 hstemhm
          84 20 343 20 343 20 cntrmask 00011100
          hintmask 11011100
          830 289 rmoveto
          161 -51 77 -108 -88 -68 -50 -101 -52 vhcurveto
          92 -10 -61 59 -87 hhcurveto
          -82 -74 -52 -90 -45 hvcurveto
          hintmask 10111100
          134 -2 callsubr
          20 328 vlineto
          hintmask 11011100
          107 30 78 72 97 hhcurveto
          95 43 -68 -150 hvcurveto
          -289 20 327 vlineto
          105 28 77 75 99 hhcurveto
          95 44 -70 -148 39 callgsubr
          endchar
        </CharString>
        <CharString name="macron">
          -187 686 20 hstem
          330 686 -46 callgsubr
        </CharString>
        <CharString name="minus">
          -22 261 20 hstem
          474 261 8 callsubr
        </CharString>
        <CharString name="mu">
          35 26 callgsubr
          91 20 373 20 hintmask 11011100
          91 -212 rmoveto
          20 306 hlineto
          -69 25 49 -35 73 hhcurveto
          93 88 55 87 45 hvcurveto
          -92 vlineto
          -17 9 -16 13 -5 vhcurveto
          hintmask 10111100
          -2 3 3 0 8 hhcurveto
          -20 callsubr
          479 -19 callgsubr
          hintmask 11011100
          -104 -31 -95 -75 -100 hhcurveto
          -99 -48 71 147 hvcurveto
          291 -20 vlineto
          endchar
        </CharString>
        <CharString name="multiply">
          -127 142 -21 300 -20 hstem
          234 270 rmoveto
          136 136 -14 15 -136 -136 -135 135 -15 -14 135 -136 -134 -134 14 -15 135 135 135 -135 15 14 rlineto
          endchar
        </CharString>
        <CharString name="n">
          -2 21 -21 507 20 -8 14 callsubr
          hintmask 11011000
          -69 callsubr
          hintmask 10111000
          134 -2 callsubr
          20 328 vlineto
          hintmask 11011000
          -68 callgsubr
          endchar
        </CharString>
        <CharString name="nacute">
          -78 callsubr
          -139 6 callgsubr
          endchar
        </CharString>
        <CharString name="napostrophe">
          -78 callsubr
          -379 20 callgsubr
        </CharString>
        <CharString name="ncaron">
          -78 callsubr
          -308 718 -96 callsubr
        </CharString>
        <CharString name="ncommaaccent">
          -2 -146 -21 188 -21 507 20 -8 14 callsubr
          hintmask 11101100
          -69 callsubr
          hintmask 11011100
          134 -2 callsubr
          20 328 vlineto
          hintmask 11101100
          -68 callgsubr
          -210 -167 -85 callgsubr
        </CharString>
        <CharString name="ndotaccent">
          -2 21 -47 callsubr
          84 20 166 20 177 20 hintmask 11011110
          -69 callsubr
          hintmask 10111110
          134 -2 callsubr
          20 328 vlineto
          hintmask 11011110
          -68 callgsubr
          -197 653 rmoveto
          -93 callsubr
        </CharString>
        <CharString name="nine">
          12 -154 20 220 20 445 20 hstem
          37 20 454 22 vstem
          37 329 -66 callsubr
        </CharString>
        <CharString name="nine.denominator">
          -178 -5 -4 callsubr
          255 -83 callsubr
        </CharString>
        <CharString name="nine.lnum">
          28 -10 20 220 20 445 20 hstem
          43 20 454 22 vstem
          43 473 -66 callsubr
        </CharString>
        <CharString name="nine.numerator">
          -178 339 147 226 -20 38 -20 hstemhm
          36 20 269 20 hintmask 10111000
          36 599 rmoveto
          -72 67 -59 83 63 57 34 49 19 vhcurveto
          -123 -56 -71 -82 -52 -45 27 41 -16 vhcurveto
          -15 -10 rlineto
          -47 19 50 -29 59 hhcurveto
          94 64 74 164 95 -67 58 -89 -85 -68 -58 -73 hvcurveto
          hintmask 11011000
          152 113 rmoveto
          73 61 -52 -61 -61 -60 -52 -73 -72 -61 52 62 61 59 51 73 hvcurveto
          endchar
        </CharString>
        <CharString name="nineinferior">
          -178 -85 -4 callsubr
          175 -83 callsubr
        </CharString>
        <CharString name="ninesuperior">
          -178 419 -4 callsubr
          679 -83 callsubr
        </CharString>
        <CharString name="notequal">
          -132 149 -21 103 20 50 20 102 -20 hstem
          70 301 rmoveto
          146 hlineto
          -31 -50 rlineto
          -115 -20 102 hlineto
          -65 -103 rlineto
          25 hlineto
          65 103 rlineto
          166 20 -153 hlineto
          32 50 rlineto
          121 20 -108 hlineto
          65 102 rlineto
          -26 hlineto
          -65 -102 rlineto
          -159 hlineto
          endchar
        </CharString>
        <CharString name="ntilde">
          -2 21 -21 507 20 -20 175 -163 -20 164 57 10 14 callsubr
          hintmask 11001011
          -69 callsubr
          hintmask 10011011
          134 -2 callsubr
          20 328 vlineto
          hintmask 10100111
          -68 callgsubr
          hintmask 11001011
          -146 663 rmoveto
          hintmask 10100111
          -84 callsubr
          hintmask 11001011
          -99 callsubr
        </CharString>
        <CharString name="numbersign">
          83 21 -21 221 20 240 20 209 -20 hstem
          612 501 rmoveto
          -113 34 callgsubr
          -240 34 callgsubr
          -141 -20 136 hlineto
          -58 -240 rlineto
          -118 -20 113 33 callsubr
          240 33 callsubr
          141 20 -136 hlineto
          58 240 rlineto
          118 hlineto
          -436 -240 rmoveto
          58 240 rlineto
          240 hlineto
          -58 -240 rlineto
          endchar
        </CharString>
        <CharString name="o">
          -30 callsubr
          hstem
          46 20 454 20 vstem
          -106 callgsubr
          endchar
        </CharString>
        <CharString name="oacute">
          -30 callsubr
          203 -20 hstem
          46 20 454 20 vstem
          -106 callgsubr
          295 474 rmoveto
          -34 hlineto
          -64 -73 16 -12 rlineto
          endchar
        </CharString>
        <CharString name="obreve">
          -30 callsubr
          -20 163 60 -8 callsubr
          20 hintmask 11011100
          -106 callgsubr
          hintmask 10111100
          227 414 -100 callsubr
        </CharString>
        <CharString name="ocircumflex">
          -30 callsubr
          203 -20 hstem
          46 20 454 20 vstem
          -106 callgsubr
          142 388 -101 callgsubr
        </CharString>
        <CharString name="odblgrave">
          -30 callsubr
          -20 223 hstemhm
          46 20 454 20 hintmask 11011000
          -106 callgsubr
          285 389 rmoveto
          16 12 rlineto
          hintmask 10111000
          -90 callsubr
        </CharString>
        <CharString name="odieresis">
          -30 callsubr
          203 -20 hstem
          46 20 159 20 96 20 159 20 vstem
          -106 callgsubr
          179 397 -50 callsubr
          136 hmoveto
          -93 callsubr
        </CharString>
        <CharString name="odotbelow">
          19 -106 -21 117 -49 callgsubr
          hstem
          46 20 212 20 222 20 vstem
          -106 callgsubr
          232 -383 rmoveto
          -93 callsubr
        </CharString>
        <CharString name="oe">
          483 -60 callgsubr
          hstem
          46 20 454 20 vstem
          291 -10 rmoveto
          111 96 78 117 32 hvcurveto
          -113 32 105 -82 112 hhcurveto
          89 88 52 72 30 -32 callsubr
          -64 -26 -77 -45 -83 hhcurveto
          -126 -105 105 133 -10 hvcurveto
          475 hlineto
          -1 11 rlineto
          165 -15 -95 103 -138 hhcurveto
          -118 -92 -75 -120 -28 hvcurveto
          117 -29 -94 78 -110 hhcurveto
          -138 -111 -121 -149 -148 109 -119 136 hvcurveto
          1 20 rmoveto
          -125 -101 109 136 138 103 114 125 124 102 -112 -137 -137 -102 -111 -126 hvcurveto
          248 258 rmoveto
          137 7 96 102 123 hhcurveto
          123 96 -100 -139 9 hvcurveto
          endchar
        </CharString>
        <CharString name="ogonek">
          -364 -138 -21 173 -20 hstem
          48 20 vstem
          100 -159 -78 callgsubr
          -12 14 rlineto
          -64 -46 -25 -31 -35 -43 callgsubr
          endchar
        </CharString>
        <CharString name="ograve">
          -30 callsubr
          203 -20 hstem
          46 20 454 20 vstem
          -106 callgsubr
          241 389 -76 callsubr
        </CharString>
        <CharString name="ohungarumlaut">
          -30 callsubr
          -20 223 hstemhm
          46 20 454 20 hintmask 11011000
          -106 callgsubr
          hintmask 10111000
          245 474 rmoveto
          -34 hlineto
          -64 -73 16 -12 rlineto
          182 85 rmoveto
          -34 hlineto
          -64 -73 16 -12 rlineto
          endchar
        </CharString>
        <CharString name="oinvertedbreve">
          -30 callsubr
          -20 223 -17 -8 callsubr
          20 hintmask 11011100
          -106 callgsubr
          223 457 -60 callsubr
          hintmask 10101100
          -72 callsubr
          hintmask 11011100
          -40 callgsubr
        </CharString>
        <CharString name="omacron">
          -30 callsubr
          159 20 hstem
          46 20 454 20 vstem
          -106 callgsubr
          367 430 -46 callgsubr
        </CharString>
        <CharString name="one">
          -192 0 20 432 24 95 -20 hstem
          210 20 vstem
          230 20 rmoveto
          551 -20 vlineto
          -4 -2 -91 -91 -72 hhcurveto
          -24 vlineto
          54 89 55 31 22 hvcurveto
          -518 -142 -20 289 20 vlineto
          endchar
        </CharString>
        <CharString name="one.denominator">
          -315 21 -21 389 5 callgsubr
          19 -91 callgsubr
          endchar
        </CharString>
        <CharString name="one.lnum">
          -210 0 20 581 20 99 -20 hstem
          194 20 vstem
          214 20 rmoveto
          700 -20 vlineto
          -4 -2 -84 -95 -69 hhcurveto
          -20 vlineto
          54 79 55 31 22 hvcurveto
          -667 -132 -20 279 20 vlineto
          endchar
        </CharString>
        <CharString name="one.numerator">
          -315 363 -21 389 5 callgsubr
          361 -91 callgsubr
          endchar
        </CharString>
        <CharString name="oneeighth">
          220 30 callgsubr
          348 -20 hstemhm
          144 20 291 -34 callsubr
          hintmask 10111001
          103 -1 -76 callgsubr
          77 350 -91 callgsubr
          510 -258 -26 callgsubr
          hintmask 01110110
          -79 callgsubr
          hintmask 10111001
          -91 callsubr
          hintmask 01110101
          -70 callgsubr
          hintmask 10110110
          -25 callsubr
        </CharString>
        <CharString name="onehalf">
          229 20 -21 22 -21 731 -20 hstemhm
          147 20 563 21 hintmask 10111000
          87 -1 -76 callgsubr
          96 350 -91 callgsubr
          hintmask 01111000
          507 -361 rmoveto
          -88 callsubr
        </CharString>
        <CharString name="oneinferior">
          -315 -59 -21 389 5 callgsubr
          -61 -91 callgsubr
          endchar
        </CharString>
        <CharString name="onequarter">
          178 20 -21 22 -21 731 -20 hstemhm
          143 20 471 20 hintmask 10111000
          114 -1 -76 callgsubr
          65 350 -91 callgsubr
          hintmask 01111000
          413 -361 rmoveto
          -81 callgsubr
          endchar
        </CharString>
        <CharString name="onesuperior">
          -315 443 -21 316 -20 93 5 callgsubr
          441 -91 callgsubr
          endchar
        </CharString>
        <CharString name="onethird">
          221 -5 0 callsubr
          343 -20 hstemhm
          146 20 553 21 -8 20 hintmask 10110100
          93 -1 -76 callgsubr
          89 350 -91 callgsubr
          361 -366 -53 callsubr
          hintmask 01111000
          -75 callgsubr
          -47 callgsubr
          hvcurveto
          hintmask 10111000
          -50 -49 -27 -87 vhcurveto
          -22 hlineto
          hintmask 01110100
          -79 callsubr
          hintmask 10111000
          -23 callsubr
        </CharString>
        <CharString name="oogonek">
          19 -147 -21 158 -49 callgsubr
          hstem
          46 20 148 20 286 20 vstem
          266 -168 -78 callgsubr
          125 12 100 118 137 vvcurveto
          146 -113 123 -134 -134 -113 -123 -146 -142 105 -120 132 -6 vhcurveto
          28 callgsubr
          -200 424 rmoveto
          136 104 115 123 123 104 -114 -134 -135 -104 -114 -124 -124 -102 112 134 vhcurveto
          endchar
        </CharString>
        <CharString name="ordfeminine">
          -142 351 26 160 23 124 25 hstem
          52 30 234 31 vstem
          170 351 rmoveto
          60 56 24 41 33 hvcurveto
          1 -29 rlineto
          -15 9 -11 14 -3 vhcurveto
          -1 5 6 0 7 hhcurveto
          29 vlineto
          -9 -5 6 10 hvcurveto
          171 vlineto
          85 -54 51 -86 -41 -43 -15 -31 -47 vhcurveto
          13 -20 rlineto
          27 41 40 14 35 hhcurveto
          68 43 -43 -65 hvcurveto
          -35 vlineto
          12 -32 -43 7 -40 hhcurveto
          -87 -62 -42 -60 -60 52 -47 66 hvcurveto
          6 26 rmoveto
          -53 -41 36 46 48 50 30 73 39 38 -5 -14 34 hvcurveto
          -61 vlineto
          -8 -4 -10 -7 -9 vhcurveto
          -32 -24 -50 -21 -55 hhcurveto
          endchar
        </CharString>
        <CharString name="ordmasculine">
          -117 372 -21 338 20 hstem
          49 22 308 22 vstem
          224 351 rmoveto
          100 77 83 95 29 callsubr
          hvcurveto
          -5 callsubr
        </CharString>
        <CharString name="oslash">
          19 14 callgsubr
          -8 -8 callsubr
          20 hintmask 01101100
          148 hmoveto
          17 29 rlineto
          hintmask 10011100
          -14 callgsubr
          hintmask 01101100
          -42 callgsubr
          hintmask 10101100
          -21 callgsubr
        </CharString>
        <CharString name="oslashacute">
          19 -10 20 11 -47 callsubr
          46 20 454 20 hintmask 01101110
          361 6 callgsubr
          -131 -645 rmoveto
          17 29 rlineto
          hintmask 10011110
          -14 callgsubr
          hintmask 01101110
          -42 callgsubr
          hintmask 10101110
          -21 callgsubr
        </CharString>
        <CharString name="otilde">
          -30 callsubr
          -20 175 -19 57 10 -8 callsubr
          20 hintmask 11010110
          -106 callgsubr
          288 407 rmoveto
          hintmask 10101110
          -84 callsubr
          hintmask 11010110
          -99 callsubr
        </CharString>
        <CharString name="p">
          -68 callsubr
        </CharString>
        <CharString name="paragraph">
          -2 -59 -21 328 20 422 20 hstem
          32 20 262 20 91 20 vstem
          32 479 rmoveto
          -144 107 -84 175 -3 vhcurveto
          -328 20 328 91 -328 20 770 70 20 -201 vlineto
          -177 -105 -88 -143 hvcurveto
          20 hmoveto
          133 92 78 170 vhcurveto
          -422 vlineto
          -141 6 -121 58 147 vvcurveto
          373 -211 rmoveto
          -91 422 91 hlineto
          endchar
        </CharString>
        <CharString name="parenleft">
          -333 -5 -21 752 -20 hstem
          50 345 rmoveto
          -120 47 -125 86 -126 vhcurveto
          16 12 rlineto
          -83 118 -47 136 102 vvcurveto
          121 66 157 64 94 vhcurveto
          -16 12 rlineto
          -73 -122 -60 -123 -136 vvcurveto
          endchar
        </CharString>
        <CharString name="parenright">
          -334 -5 -21 752 -20 hstem
          184 345 rmoveto
          136 -60 123 -73 122 vhcurveto
          -16 -12 rlineto
          64 -94 66 -157 -121 vvcurveto
          -102 -47 -136 -83 -118 vhcurveto
          16 -12 rlineto
          86 126 47 125 120 vvcurveto
          endchar
        </CharString>
        <CharString name="partialdiff">
          8 -10 21 403 20 261 20 hstemhm
          33 20 419 48 -20 20 hintmask 11110100
          252 -10 rmoveto
          159 109 140 269 224 -75 92 -145 -75 -74 -25 -54 -44 hvcurveto
          13 -12 rlineto
          41 34 68 30 78 hhcurveto
          120 80 -72 -209 -47 -4 -75 -8 -34 hvcurveto
          114 -21 -86 62 -100 hhcurveto
          -135 -113 -112 -127 -114 91 -91 128 hvcurveto
          -2 21 rmoveto
          -116 -81 82 102 118 107 101 119 hvcurveto
          hintmask 11111000
          109 84 -85 -95 -90 -74 -133 -148 hvcurveto
          endchar
        </CharString>
        <CharString name="percent">
          103 -10 40 callsubr
          178 40 callsubr
          hstem
          48 40 callsubr
          23 40 callsubr
          vstem
          186 -61 callsubr
          -421 12 callsubr
        </CharString>
        <CharString name="period">
          -409 21 -21 64 -20 hstem
          69 20 vstem
          89 hmoveto
          39 callsubr
          endchar
        </CharString>
        <CharString name="periodcentered">
          2 callgsubr
        </CharString>
        <CharString name="perthousand">
          427 -10 40 callsubr
          178 40 callsubr
          hstem
          54 40 callsubr
          23 40 callsubr
          55 40 callsubr
          vstem
          192 -61 callsubr
          331 -20 rmoveto
          76 62 61 77 76 -62 62 -76 -76 -62 -62 -76 -77 62 -61 76 hvcurveto
          20 vmoveto
          -65 -53 52 66 62 52 56 66 62 56 -53 -65 -63 -52 -55 -66 hvcurveto
          -752 12 callsubr
        </CharString>
        <CharString name="pi">
          -26 16 -21 26 -21 499 20 hstemhm
          105 20 246 20 hintmask 10111000
          371 499 rmoveto
          -422 vlineto
          -82 callsubr
          422 110 20 -476 -20 80 vlineto
          hintmask 01111000
          38 callsubr
          vlineto
          endchar
        </CharString>
        <CharString name="plus">
          -155 216 -21 150 20 150 -20 hstem
          196 20 vstem
          216 365 1 callsubr
        </CharString>
        <CharString name="plusminus">
          -97 85 20 240 20 150 -20 hstem
          225 20 vstem
          385 36 callgsubr
          160 280 1 callsubr
        </CharString>
        <CharString name="product">
          43 -69 -21 780 20 hstem
          117 20 341 20 vstem
          478 -90 rmoveto
          20 780 80 20 -551 -20 90 -780 20 780 341 hlineto
          endchar
        </CharString>
        <CharString name="q">
          -18 callgsubr
          -292 vlineto
          -16 8 -16 14 -6 vhcurveto
          -2 4 5 0 5 hhcurveto
          20 vlineto
          -11 -5 -1 callsubr
          692 -49 callsubr
        </CharString>
        <CharString name="q.alt">
          -18 callgsubr
          -332 20 732 -49 callsubr
        </CharString>
        <CharString name="question">
          -99 21 -21 699 20 hstem
          178 20 212 20 vstem
          198 179 rmoveto
          118 31 27 43 23 vhcurveto
          71 39 87 25 121 vvcurveto
          123 -90 64 -97 -83 -88 -46 -83 -37 vhcurveto
          18 -8 rlineto
          72 34 77 45 80 hhcurveto
          84 82 -50 -114 -115 -83 -21 -63 -33 hvcurveto
          -49 -25 -37 -34 -128 vvcurveto
          20 -179 rmoveto
          84 -20 -84 vlineto
          endchar
        </CharString>
        <CharString name="questiondown">
          -106 -213 20 699 -20 hstem
          34 20 212 20 vstem
          266 327 rmoveto
          -118 -31 -27 -43 -23 vhcurveto
          -71 -39 -87 -25 -121 vvcurveto
          -123 90 -64 97 83 88 46 83 37 vhcurveto
          -18 8 rlineto
          -72 -34 -77 -45 -80 hhcurveto
          -84 -82 50 114 115 83 21 63 33 hvcurveto
          49 25 37 34 128 vvcurveto
          -20 179 rmoveto
          -84 20 84 vlineto
          endchar
        </CharString>
        <CharString name="quotedbl">
          -351 591 -21 140 -20 hstem
          73 20 30 20 vstem
          93 570 rmoveto
          140 -20 -140 vlineto
          70 hmoveto
          140 -20 -140 vlineto
          endchar
        </CharString>
        <CharString name="quotedblbase">
          -237 -55 -21 97 -21 74 -20 hstem
          117 26 44 26 vstem
          130 -76 rmoveto
          13 76 -27 callgsubr
          -76 rlineto
          84 hmoveto
          13 76 -27 callgsubr
          -76 rlineto
          endchar
        </CharString>
        <CharString name="quotedblleft">
          -319 15 callgsubr
          70 26 54 26 vstem
          83 730 rmoveto
          3 callsubr
          66 hmoveto
          3 callsubr
          endchar
        </CharString>
        <CharString name="quotedblright">
          -322 15 callgsubr
          72 26 54 26 vstem
          85 570 rmoveto
          13 86 -27 callgsubr
          -86 rlineto
          94 hmoveto
          13 86 -27 callgsubr
          -86 rlineto
          endchar
        </CharString>
        <CharString name="quoteleft">
          -399 15 callgsubr
          70 26 vstem
          83 730 rmoveto
          3 callsubr
          endchar
        </CharString>
        <CharString name="quoteright">
          -402 15 callgsubr
          72 26 vstem
          85 570 rmoveto
          13 86 -27 callgsubr
          -86 rlineto
          endchar
        </CharString>
        <CharString name="quotesinglbase">
          -307 -55 -21 97 -21 74 -20 hstem
          117 26 vstem
          130 -76 rmoveto
          13 76 -27 callgsubr
          -76 rlineto
          endchar
        </CharString>
        <CharString name="quotesingle">
          -401 590 -21 141 -20 hstem
          73 20 vstem
          93 569 rmoveto
          141 -20 -141 vlineto
          endchar
        </CharString>
        <CharString name="r">
          -244 -39 callgsubr
          vstem
          -95 callsubr
          endchar
        </CharString>
        <CharString name="racute">
          -244 34 callsubr
          vstem
          -95 callsubr
          -62 231 rmoveto
          -34 hlineto
          -64 -73 16 -12 rlineto
          endchar
        </CharString>
        <CharString name="radical">
          -161 21 -21 345 20 425 -20 hstem
          14 345 rmoveto
          79 hlineto
          97 -345 rlineto
          31 hlineto
          136 790 rlineto
          -21 hlineto
          -132 -763 -93 338 rlineto
          -97 hlineto
          endchar
        </CharString>
        <CharString name="rcaron">
          -244 34 callsubr
          vstem
          -95 callsubr
          -231 219 -96 callsubr
        </CharString>
        <CharString name="rcommaaccent">
          -244 -146 -21 188 -52 callsubr
          hstem
          84 20 vstem
          -95 callsubr
          -215 -666 -85 callgsubr
        </CharString>
        <CharString name="rdblgrave">
          32 callsubr
          hstemhm
          84 20 hintmask 10110000
          -95 callsubr
          -65 146 rmoveto
          16 12 rlineto
          hintmask 11010000
          -90 callsubr
        </CharString>
        <CharString name="rdotbelow">
          -244 -106 -21 148 -52 callsubr
          hstem
          84 20 vstem
          -95 callsubr
          -202 -626 rmoveto
          -93 callsubr
        </CharString>
        <CharString name="registered">
          257 -7 20 290 20 239 21 112 20 hstem
          51 21 195 21 277 20 167 -31 callsubr
          20 vmoveto
          -196 -144 146 196 194 145 146 195 196 144 -146 -194 -206 -148 -136 -192 hvcurveto
          -145 108 rmoveto
          21 182 156 hlineto
          116 -182 rlineto
          24 hlineto
          -117 182 rlineto
          70 5 48 63 72 vvcurveto
          69 -54 71 -76 vhcurveto
          -188 hlineto
          21 -260 rmoveto
          239 167 vlineto
          65 45 -54 -65 -64 -36 -56 -69 hvcurveto
          endchar
        </CharString>
        <CharString name="ring">
          -329 616 114 -16 -20 hstemhm
          62 114 hintmask 10100000
          62 673 -62 callsubr
          hintmask 01100000
          -65 callgsubr
          endchar
        </CharString>
        <CharString name="rinvertedbreve">
          32 callsubr
          214 -20 hstemhm
          84 20 hintmask 10111000
          -95 callsubr
          -121 214 -60 callsubr
          hintmask 11001000
          -72 callsubr
          hintmask 10111000
          -40 callgsubr
        </CharString>
        <CharString name="s">
          -96 -10 -49 callgsubr
          hstem
          61 20 327 20 vstem
          235 -105 callsubr
          endchar
        </CharString>
        <CharString name="s_t">
          202 -10 25 1 -21 253 20 239 246 -234 -20 28 -20 226 20 hstemhm
          53 20 249 20 77 20 136 20 hintmask 1010101111100000
          749 40 rmoveto
          -2 -3 -37 -23 -41 hhcurveto
          -39 -34 21 39 hvcurveto
          424 -24 callgsubr
          vlineto
          hintmask 1011000111100000
          158 -3 76 -124 -112 -34 -61 -71 -54 20 -26 18 -44 vhcurveto
          hintmask 1010011111100000
          19 -29 -41 11 -50 hhcurveto
          -87 -100 -33 -111 -111 99 -18 87 -6 hvcurveto
          60 -4 120 -5 -104 vvcurveto
          -93 -97 -32 -77 -69 -61 25 50 -54 vhcurveto
          -15 -13 rlineto
          -45 45 66 -37 86 hhcurveto
          86 110 36 109 118 -128 10 -72 5 hvcurveto
          -58 4 -108 8 105 vvcurveto
          93 86 29 81 52 59 -12 -51 33 vhcurveto
          18 8 rlineto
          3 -63 80 92 62 29 47 99 hvcurveto
          hintmask 0110101111100000
          91 14 -40 -174 hvcurveto
          -75 -20 75 -424 hlineto
          -48 40 -32 53 48 43 27 2 1 vhcurveto
          endchar
        </CharString>
        <CharString name="sacute">
          -96 -10 -49 callgsubr
          203 -20 hstem
          61 20 327 20 vstem
          235 -105 callsubr
          73 740 rmoveto
          -34 hlineto
          -64 -73 16 -12 rlineto
          endchar
        </CharString>
        <CharString name="scaron">
          -96 -10 -49 callgsubr
          203 -20 hstem
          61 20 327 20 vstem
          235 -105 callsubr
          -96 728 -96 callsubr
        </CharString>
        <CharString name="schwa">
          9 -10 20 239 -31 callgsubr
          hstem
          35 21 454 20 vstem
          285 -10 rmoveto
          136 109 118 146 149 -113 124 -137 -90 -88 -53 -71 -28 hvcurveto
          19 -5 rlineto
          64 29 77 45 80 hhcurveto
          121 100 -104 -134 10 hvcurveto
          -475 -11 hlineto
          -149 1 111 -119 138 hhcurveto
          -1 20 rmoveto
          -123 -96 100 139 -9 hvcurveto
          454 hlineto
          -137 -7 -96 -102 -123 hhcurveto
          endchar
        </CharString>
        <CharString name="scircumflex">
          -96 -10 -49 callgsubr
          203 -20 hstem
          61 20 327 20 vstem
          235 -105 callsubr
          -80 654 -101 callgsubr
        </CharString>
        <CharString name="sdotbelow">
          -96 -106 -21 117 -49 callgsubr
          hstem
          61 20 144 20 163 20 vstem
          235 -105 callsubr
          10 -117 rmoveto
          -93 callsubr
        </CharString>
        <CharString name="section">
          -86 -88 20 258 236 -20 20 269 20 hstemhm
          46 20 7 20 309 20 -3 20 hintmask 11011110
          385 181 rmoveto
          23 22 14 39 38 vvcurveto
          105 -96 41 -94 -97 -69 35 96 86 86 52 78 51 70 -11 -52 26 vhcurveto
          18 8 rlineto
          48 -33 -44 27 -88 hhcurveto
          -84 -100 -57 -101 -54 23 -46 36 -22 hvcurveto
          -19 -21 -13 -38 -35 vvcurveto
          -105 87 -43 99 -3 vhcurveto
          hintmask 10111101
          76 -2 84 -17 -97 vvcurveto
          -89 -87 -53 -79 -66 -52 25 50 -54 vhcurveto
          -15 -13 rlineto
          -45 45 56 -37 86 hhcurveto
          85 101 57 105 51 -16 35 -38 21 hvcurveto
          -292 160 rmoveto
          32 12 34 19 18 vhcurveto
          -13 31 38 -6 39 hhcurveto
          hintmask 11011110
          75 95 -29 -97 -35 -14 -36 -23 -19 hvcurveto
          -85 34 -187 -43 160 vvcurveto
          endchar
        </CharString>
        <CharString name="semicolon">
          -399 -60 -21 92 -21 527 -20 hstem
          71 26 vstem
          93 453 rmoveto
          39 callsubr
          11 -534 rmoveto
          13 71 -27 callgsubr
          -71 rlineto
          endchar
        </CharString>
        <CharString name="servicemark">
          93 451 -21 265 20 -5 -20 hstemhm
          69 20 159 20 64 20 213 20 hintmask 10111110
          458 501 rmoveto
          -14 callsubr
          -312 -29 rmoveto
          hintmask 11011110
          25 -22 -26 9 -35 hhcurveto
          -60 -39 -27 -49 -49 35 -13 62 -13 hvcurveto
          57 -12 25 -13 -39 vvcurveto
          -34 -30 -17 -48 -43 -28 12 30 -28 vhcurveto
          -11 -17 rlineto
          -30 30 34 -14 45 hhcurveto
          61 38 25 46 54 -40 16 -62 13 hvcurveto
          -54 12 -23 8 36 vvcurveto
          35 24 20 55 28 21 -7 -24 18 vhcurveto
          endchar
        </CharString>
        <CharString name="seven">
          -32 -106 41 callgsubr
          hstem
          123 -127 rmoveto
          13 callgsubr
        </CharString>
        <CharString name="seven.denominator">
          -237 21 -21 383 -20 hstem
          70 hmoveto
          -16 callsubr
          -19 258 hlineto
          endchar
        </CharString>
        <CharString name="seven.lnum">
          -76 25 callsubr
          hstem
          102 hmoveto
          13 callgsubr
        </CharString>
        <CharString name="seven.numerator">
          -236 368 -21 364 46 callsubr
          hintmask 10100000
          70 347 35 callgsubr
          hintmask 11000000
          -19 258 vlineto
          endchar
        </CharString>
        <CharString name="seveneighths">
          223 30 callgsubr
          328 46 callsubr
          459 -34 callsubr
          hintmask 10101001
          65 -1 -76 callgsubr
          707 92 -26 callgsubr
          hintmask 01010110
          -79 callgsubr
          hintmask 10011001
          -91 callsubr
          hintmask 01010101
          -70 callgsubr
          hintmask 10010110
          -57 callgsubr
          hvcurveto
          -407 58 35 callgsubr
          hintmask 10101010
          -19 258 vlineto
          endchar
        </CharString>
        <CharString name="seveninferior">
          -237 -59 -21 383 -20 hstem
          70 -80 43 callgsubr
          -19 258 hlineto
          endchar
        </CharString>
        <CharString name="sevensuperior">
          -236 448 -21 383 -20 hstem
          70 427 43 callgsubr
          -19 258 hlineto
          endchar
        </CharString>
        <CharString name="six">
          -73 callgsubr
        </CharString>
        <CharString name="six.denominator">
          -178 16 4 callsubr
          126 -83 callgsubr
        </CharString>
        <CharString name="six.lnum">
          -73 callgsubr
        </CharString>
        <CharString name="six.numerator">
          -178 360 -21 244 147 -18 -20 hstemhm
          44 20 hintmask 10110000
          353 470 rmoveto
          72 -67 58 -83 -63 -57 -33 -50 -19 vhcurveto
          124 1 55 71 82 hhcurveto
          52 45 -28 -40 16 hvcurveto
          15 10 rlineto
          hintmask 11010000
          47 -19 -50 29 -59 hhcurveto
          -93 -65 -75 -163 -95 67 -58 89 85 68 58 73 hvcurveto
          -152 -113 rmoveto
          -73 -61 51 62 61 60 52 73 73 61 -52 -62 -61 -60 -51 -73 hvcurveto
          endchar
        </CharString>
        <CharString name="sixinferior">
          -178 -64 4 callsubr
          46 -83 callgsubr
        </CharString>
        <CharString name="sixsuperior">
          -178 440 4 callsubr
          550 -83 callgsubr
        </CharString>
        <CharString name="slash">
          -31 -71 callsubr
          hstem
          482 -22 callsubr
          -455 -710 rlineto
          25 hlineto
          456 710 rlineto
          endchar
        </CharString>
        <CharString name="space">
          -306 endchar
        </CharString>
        <CharString name="sterling">
          -100 -15 20 0 20 321 20 329 20 hstemhm
          79 22 91 21 hintmask 10111100
          48 346 rmoveto
          119 hlineto
          14 -31 11 -34 -40 -28 callgsubr
          hintmask 01111100
          7 callgsubr
          vvcurveto
          39 -10 34 -13 31 vhcurveto
          -38 callsubr
        </CharString>
        <CharString name="summation">
          -80 0 25 665 20 hstem
          437 -22 callsubr
          -402 -22 hlineto
          230 -317 -233 -348 rlineto
          -23 420 25 -393 4 vlineto
          231 340 -231 317 rlineto
          4 378 vlineto
          endchar
        </CharString>
        <CharString name="t">
          -272 -5 20 484 20 181 -20 hstem
          101 -82 callgsubr
          endchar
        </CharString>
        <CharString name="t.alt">
          -298 21 -21 499 20 182 -20 hstem
          103 20 vstem
          123 hmoveto
          499 -24 callgsubr
          182 -20 -182 -75 -20 75 -499 vlineto
          endchar
        </CharString>
        <CharString name="tbar">
          -270 -5 20 324 20 140 20 181 -20 hstem
          102 20 vstem
          276 40 rmoveto
          -2 -2 -36 -23 -46 hhcurveto
          -35 -32 21 39 -3 hvcurveto
          264 -24 callgsubr
          140 -24 callgsubr
          181 -20 -181 -75 -20 75 -140 -75 -20 75 -264 vlineto
          -24 callsubr
          endchar
        </CharString>
        <CharString name="tcaron">
          -272 -5 20 484 20 211 -20 hstem
          101 -82 callgsubr
          12 706 rmoveto
          -34 hlineto
          -64 -73 16 -12 rlineto
          endchar
        </CharString>
        <CharString name="tdotbelow">
          -272 -106 -21 122 20 484 20 181 -20 hstem
          101 20 53 -82 callgsubr
          -92 -151 rmoveto
          -93 callsubr
        </CharString>
        <CharString name="thorn">
          36 -192 -21 203 -49 callgsubr
          183 -20 hstem
          84 20 433 20 vstem
          557 258 rmoveto
          26 callsubr
          vhcurveto
          312 -20 -923 20 321 vlineto
          -66 41 80 -52 82 hhcurveto
          141 105 127 141 4 hvcurveto
          -20 hmoveto
          -123 -96 -125 -134 -81 -122 74 85 vhcurveto
          187 18 callgsubr
          hvcurveto
          endchar
        </CharString>
        <CharString name="three">
          -46 -147 20 354 20 309 20 hstemhm
          434 20 -8 20 hintmask 11110000
          308 236 rmoveto
          89 11 57 63 85 vvcurveto
          104 -86 77 -114 -92 -78 -50 -76 -27 vhcurveto
          18 -7 rlineto
          68 26 69 45 84 hhcurveto
          103 77 -67 -99 -90 -65 -53 -117 hvcurveto
          -23 -20 22 hlineto
          hintmask 11101000
          121 74 -68 -108 -108 -75 -70 -115 -93 -75 46 69 -23 hvcurveto
          -19 -7 rlineto
          -78 28 81 -50 99 hhcurveto
          124 88 79 116 99 -63 76 -95 13 hvcurveto
          endchar
        </CharString>
        <CharString name="three.denominator">
          -187 -5 -13 callgsubr
          -5 -89 callgsubr
        </CharString>
        <CharString name="three.lnum">
          16 -9 20 339 20 329 20 hstemhm
          54 20 415 20 0 20 hintmask 11110100
          295 -9 rmoveto
          133 101 81 106 90 -65 72 -99 19 hvcurveto
          96 25 48 54 83 vvcurveto
          113 -97 85 -131 -99 -85 -50 -77 -31 vhcurveto
          18 -8 rlineto
          70 28 77 45 92 hhcurveto
          hintmask 11111000
          120 88 -75 -103 -98 -79 -53 -146 hvcurveto
          -35 -20 35 hlineto
          147 98 -68 -103 -96 -91 -72 -122 -121 -97 72 93 -4 hvcurveto
          -20 hlineto
          -106 3 103 -79 135 hhcurveto
          endchar
        </CharString>
        <CharString name="three.numerator">
          -187 338 0 callsubr
          -18 -20 hstemhm
          304 21 -8 20 hintmask 10101000
          190 338 -53 callsubr
          hintmask 01010000
          -75 callgsubr
          hintmask 10110000
          -47 callgsubr
          -50 -49 -27 -87 hvcurveto
          -22 hlineto
          hintmask 01001000
          -79 callsubr
          hintmask 10110000
          -23 callsubr
        </CharString>
        <CharString name="threeeighths">
          226 30 callgsubr
          -45 0 callsubr
          -18 -20 hstemhm
          309 21 -8 20 117 -34 callsubr
          hintmask 1010110100100000
          126 -1 -76 callgsubr
          646 92 -26 callgsubr
          hintmask 0101010011000000
          -79 callgsubr
          hintmask 1010110100100000
          -91 callsubr
          hintmask 0101010010100000
          -70 callgsubr
          hintmask 1010101011000000
          -57 callgsubr
          hvcurveto
          -300 49 -53 callsubr
          hintmask 1001010101000000
          -75 callgsubr
          hintmask 1010110101000000
          -47 callgsubr
          -50 -49 -27 -87 hvcurveto
          -22 hlineto
          hintmask 1001001101000000
          -79 callsubr
          hintmask 1010110101000000
          -23 callsubr
        </CharString>
        <CharString name="threeinferior">
          -187 -85 -13 callgsubr
          -85 -89 callgsubr
        </CharString>
        <CharString name="threequarters">
          199 20 -21 22 -21 338 0 callsubr
          -18 -20 hstemhm
          308 21 -8 20 308 20 hintmask 10010101
          153 -1 -76 callgsubr
          hintmask 01101011
          532 -11 rmoveto
          -81 callgsubr
          -250 209 -53 callsubr
          hintmask 10010101
          -75 callgsubr
          hintmask 10101101
          -47 callgsubr
          -50 -49 -27 -87 hvcurveto
          -22 hlineto
          hintmask 10010011
          -79 callsubr
          hintmask 10101101
          -23 callsubr
        </CharString>
        <CharString name="threesuperior">
          -187 418 -13 callgsubr
          418 -89 callgsubr
        </CharString>
        <CharString name="tilde">
          -184 663 57 -46 -21 77 -20 hstemhm
          hintmask 10000000
          249 663 rmoveto
          hintmask 01100000
          -84 callsubr
          hintmask 10000000
          -51 -22 38 -52 hhcurveto
          hintmask 01100000
          -66 -7 -61 -6 hvcurveto
          20 hlineto
          6 8 42 43 vhcurveto
          hintmask 10000000
          41 25 -38 59 hhcurveto
          endchar
        </CharString>
        <CharString name="trademark">
          81 454 -21 259 20 -2 -20 hstemhm
          154 20 141 20 213 20 hintmask 11011100
          269 712 rmoveto
          -210 -20 95 -259 20 259 95 hlineto
          172 -191 rmoveto
          hintmask 10111100
          -14 callsubr
          endchar
        </CharString>
        <CharString name="two">
          -81 0 20 541 20 hstem
          406 20 vstem
          437 hmoveto
          20 -371 vlineto
          36 21 128 138 60 vhcurveto
          76 33 125 35 121 vvcurveto
          72 -62 76 -120 -117 -70 -94 -1 vhcurveto
          16 -12 rlineto
          13 10 61 74 100 hhcurveto
          110 52 -67 -61 -105 -114 -34 -74 -31 hvcurveto
          -161 -67 -10 -147 -49 vvcurveto
          endchar
        </CharString>
        <CharString name="two.denominator">
          -198 21 4 callgsubr
          hmoveto
          -88 callsubr
        </CharString>
        <CharString name="two.lnum">
          -6 0 20 679 20 hstem
          51 20 413 20 vstem
          505 hmoveto
          20 -434 vlineto
          78 10 131 180 72 vhcurveto
          92 37 151 34 149 vvcurveto
          99 -67 99 -143 -159 -74 -123 -3 vhcurveto
          17 -10 rlineto
          40 27 64 76 123 hhcurveto
          132 60 -88 -89 -134 -133 -29 -98 -40 hvcurveto
          -114 -46 -88 -79 -163 vvcurveto
          -10 0 -10 1 -11 vhcurveto
          endchar
        </CharString>
        <CharString name="two.numerator">
          -198 364 -21 369 46 callsubr
          303 21 hintmask 10110000
          325 343 -18 callsubr
          hintmask 11010000
          22 17 40 38 73 hhcurveto
          77 36 -43 -46 -69 -80 -16 -60 -22 hvcurveto
          -76 -28 -47 -46 -99 vvcurveto
          endchar
        </CharString>
        <CharString name="twoinferior">
          -198 -59 4 callgsubr
          -80 rmoveto
          -88 callsubr
        </CharString>
        <CharString name="twosuperior">
          -198 444 4 callgsubr
          423 rmoveto
          -88 callsubr
        </CharString>
        <CharString name="twothirds">
          237 -5 0 callsubr
          324 46 callsubr
          311 21 400 21 -8 20 hintmask 10011010
          147 -1 -76 callgsubr
          487 -16 -53 callsubr
          hintmask 01011100
          -75 callgsubr
          -47 callgsubr
          hvcurveto
          hintmask 10011100
          -50 -49 -27 -87 vhcurveto
          -22 hlineto
          hintmask 01011010
          -79 callsubr
          hintmask 10011100
          -56 4 62 -40 83 hhcurveto
          -285 348 -18 callsubr
          hintmask 10101100
          22 17 40 38 73 hhcurveto
          77 36 -43 -46 -69 -80 -16 -60 -22 hvcurveto
          -76 -28 -47 -46 -99 vvcurveto
          endchar
        </CharString>
        <CharString name="u">
          -9 callgsubr
          16 callsubr
          hintmask 10111000
          245 -10 rmoveto
          93 88 55 87 45 hvcurveto
          -92 vlineto
          -17 9 -16 13 -5 vhcurveto
          hintmask 01111000
          -2 3 3 0 8 hhcurveto
          -20 callsubr
          479 -19 callgsubr
          hintmask 10111000
          -99 callgsubr
          vhcurveto
          endchar
        </CharString>
        <CharString name="u.alt">
          8 -10 20 11 -52 callsubr
          16 callsubr
          hintmask 01111000
          491 hmoveto
          519 -19 callgsubr
          hintmask 10111000
          -92 -26 -91 -87 -106 hhcurveto
          -124 -26 101 117 hvcurveto
          291 -20 -291 vlineto
          -115 25 -123 145 91 89 58 84 43 vhcurveto
          hintmask 01111000
          -132 vlineto
          endchar
        </CharString>
        <CharString name="uacute">
          -9 callgsubr
          231 -20 16 callsubr
          hintmask 10111100
          245 -10 rmoveto
          93 88 55 87 45 hvcurveto
          -92 vlineto
          -17 9 -16 13 -5 vhcurveto
          hintmask 01111100
          -2 3 3 0 8 hhcurveto
          -20 callsubr
          479 -19 callgsubr
          hintmask 10111100
          -99 callgsubr
          vhcurveto
          105 740 rmoveto
          -34 hlineto
          -64 -73 16 -12 rlineto
          endchar
        </CharString>
        <CharString name="ubreve">
          -9 callgsubr
          231 -20 16 callsubr
          hintmask 10111100
          245 -10 rmoveto
          93 88 55 87 45 hvcurveto
          -92 vlineto
          -17 9 -16 13 -5 vhcurveto
          hintmask 01111100
          -2 3 3 0 8 hhcurveto
          -20 callsubr
          479 -19 callgsubr
          hintmask 10111100
          -99 callgsubr
          vhcurveto
          37 680 -100 callsubr
        </CharString>
        <CharString name="ucircumflex">
          -9 callgsubr
          231 -20 16 callsubr
          hintmask 10111100
          245 -10 rmoveto
          93 88 55 87 45 hvcurveto
          -92 vlineto
          -17 9 -16 13 -5 vhcurveto
          hintmask 01111100
          -2 3 3 0 8 hhcurveto
          -20 callsubr
          479 -19 callgsubr
          hintmask 10111100
          -99 callgsubr
          vhcurveto
          -48 654 -101 callgsubr
        </CharString>
        <CharString name="udblgrave">
          -9 callgsubr
          231 -20 16 callsubr
          hintmask 10111100
          245 -10 rmoveto
          93 88 55 87 45 hvcurveto
          -92 vlineto
          -17 9 -16 13 -5 vhcurveto
          hintmask 01111100
          -2 3 3 0 8 hhcurveto
          -20 callsubr
          479 -19 callgsubr
          hintmask 10111100
          -99 callgsubr
          vhcurveto
          88 655 rmoveto
          16 12 -90 callsubr
        </CharString>
        <CharString name="udieresis">
          -9 callgsubr
          231 -20 hstemhm
          78 20 116 20 96 20 121 20 hintmask 10111111
          245 -10 rmoveto
          93 88 55 87 45 hvcurveto
          -92 vlineto
          -17 9 -16 13 -5 vhcurveto
          hintmask 01111111
          -2 3 3 0 8 hhcurveto
          -20 callsubr
          479 -19 callgsubr
          hintmask 10111111
          -99 callgsubr
          vhcurveto
          -11 663 -50 callsubr
          136 hmoveto
          -93 callsubr
        </CharString>
        <CharString name="udotbelow">
          9 -106 -21 117 20 11 -52 callsubr
          hstemhm
          78 20 171 20 182 20 hintmask 11011110
          245 -10 rmoveto
          93 88 55 87 45 hvcurveto
          -92 vlineto
          -17 9 -16 13 -5 vhcurveto
          hintmask 10111110
          -2 3 3 0 8 hhcurveto
          -20 callsubr
          479 -19 callgsubr
          hintmask 11011110
          -99 callgsubr
          vhcurveto
          44 -117 rmoveto
          -93 callsubr
        </CharString>
        <CharString name="ugrave">
          -9 callgsubr
          231 -20 16 callsubr
          hintmask 10111100
          245 -10 rmoveto
          93 88 55 87 45 hvcurveto
          -92 vlineto
          -17 9 -16 13 -5 vhcurveto
          hintmask 01111100
          -2 3 3 0 8 hhcurveto
          -20 callsubr
          479 -19 callgsubr
          hintmask 10111100
          -99 callgsubr
          vhcurveto
          51 655 -76 callsubr
        </CharString>
        <CharString name="uhungarumlaut">
          -9 callgsubr
          231 -20 16 callsubr
          hintmask 10111100
          245 -10 rmoveto
          93 88 55 87 45 hvcurveto
          -92 vlineto
          -17 9 -16 13 -5 vhcurveto
          hintmask 01111100
          -2 3 3 0 8 hhcurveto
          -20 callsubr
          479 -19 callgsubr
          hintmask 10111100
          -99 callgsubr
          vhcurveto
          55 740 rmoveto
          -34 hlineto
          -64 -73 16 -12 rlineto
          182 85 rmoveto
          -34 hlineto
          -64 -73 16 -12 rlineto
          endchar
        </CharString>
        <CharString name="uinvertedbreve">
          -9 callgsubr
          214 -20 37 -20 16 callsubr
          hintmask 10110110
          245 -10 rmoveto
          93 88 55 87 45 hvcurveto
          -92 vlineto
          -17 9 -16 13 -5 vhcurveto
          hintmask 01110110
          -2 3 3 0 8 hhcurveto
          -20 callsubr
          479 -19 callgsubr
          hintmask 10110110
          -99 callgsubr
          vhcurveto
          35 723 -60 callsubr
          hintmask 10101110
          -72 callsubr
          hintmask 10110110
          -40 callgsubr
        </CharString>
        <CharString name="umacron">
          -9 callgsubr
          187 20 16 callsubr
          hintmask 10111100
          245 -10 rmoveto
          93 88 55 87 45 hvcurveto
          -92 vlineto
          -17 9 -16 13 -5 vhcurveto
          hintmask 01111100
          -2 3 3 0 8 hhcurveto
          -20 callsubr
          479 -19 callgsubr
          hintmask 10111100
          -99 callgsubr
          vhcurveto
          177 696 -46 callgsubr
        </CharString>
        <CharString name="underscore">
          -36 -20 20 hstem
          462 -20 rmoveto
          20 -393 -20 vlineto
          endchar
        </CharString>
        <CharString name="uni00A0">
          -306 endchar
        </CharString>
        <CharString name="uni00AD">
          -26 261 20 hstem
          472 261 8 callsubr
        </CharString>
        <CharString name="uni015E">
          37 -162 111 -16 79 703 -20 hstemhm
          64 20 303 20 139 20 hintmask 10111100
          232 -143 rmoveto
          -73 callsubr
          30 52 rlineto
          148 3 91 63 113 vvcurveto
          125 -100 34 -158 32 vhcurveto
          -158 32 -66 27 102 vvcurveto
          103 68 67 162 84 56 -18 -62 56 vhcurveto
          13 14 rlineto
          61 -56 -65 24 -90 hhcurveto
          -151 -97 -68 -123 -118 88 -30 157 -30 hvcurveto
          164 -32 73 -37 -106 vvcurveto
          hintmask 01111100
          -106 -88 -53 -141 -108 -82 32 74 -72 vhcurveto
          -15 -13 73 -72 82 -35 108 -3 rlinecurve
          -45 -78 rlineto
          -72 callgsubr
          endchar
        </CharString>
        <CharString name="uni015F">
          -95 -164 111 -16 79 -20 -49 callgsubr
          hstemhm
          61 20 223 20 84 20 hintmask 10111110
          149 -145 rmoveto
          -73 callsubr
          28 49 rlineto
          112 3 74 57 89 vvcurveto
          90 -76 19 -124 29 vhcurveto
          -102 24 -45 13 69 vvcurveto
          87 73 37 86 66 64 -22 -41 25 vhcurveto
          18 8 rlineto
          43 -23 -62 32 -84 hhcurveto
          -98 -85 -44 -103 -83 55 -14 111 -26 hvcurveto
          116 -27 65 -19 -75 vvcurveto
          -79 -71 -47 -102 -74 -56 25 52 -53 vhcurveto
          -15 -13 48 -53 61 -27 72 -3 rlinecurve
          -43 -76 rlineto
          hintmask 01011110
          -72 callgsubr
          endchar
        </CharString>
        <CharString name="uni0162">
          32 -162 111 741 20 hstem
          289 20 57 20 vstem
          211 -143 rmoveto
          -73 callsubr
          33 57 rlineto
          690 272 20 -564 -20 272 -683 vlineto
          -52 -90 rlineto
          -72 callgsubr
          endchar
        </CharString>
        <CharString name="uni0163">
          -272 -162 111 -16 82 -20 20 484 20 181 -20 hstemhm
          101 20 139 20 hintmask 10111110
          105 -143 rmoveto
          -73 callsubr
          30 52 50 3 35 25 1 1 rlinecurve
          -11 16 rlineto
          -2 -2 -36 -23 -46 hhcurveto
          -35 -32 21 39 -3 hvcurveto
          424 -24 callgsubr
          181 -20 -181 -75 -20 75 -424 vlineto
          -43 34 -30 41 -6 vhcurveto
          -45 -79 rlineto
          hintmask 01011110
          -72 callgsubr
          endchar
        </CharString>
        <CharString name="uni01C4">
          768 17 callsubr
          208 -20 hstem
          99 20 521 20 vstem
          -101 callsubr
          99 -356 rmoveto
          -80 callsubr
          201 886 -96 callsubr
        </CharString>
        <CharString name="uni01C5">
          632 0 20 479 20 171 20 20 46 callgsubr
          521 20 hintmask 11101100
          -101 callsubr
          104 -356 rmoveto
          -80 callgsubr
          125 698 rmoveto
          93 -74 rlineto
          16 hlineto
          93 74 rlineto
          hintmask 11011100
          -16 12 -85 -63 -85 63 rlineto
          endchar
        </CharString>
        <CharString name="uni01C6">
          -87 callsubr
          hintmask 01101110
          125 698 -96 callsubr
        </CharString>
        <CharString name="uni01C7">
          485 0 20 -10 -21 721 46 callgsubr
          823 20 hintmask 10111000
          -50 callgsubr
          499 33 rmoveto
          hintmask 01111000
          -88 callgsubr
          endchar
        </CharString>
        <CharString name="uni01C8">
          208 -170 20 150 20 499 -20 211 -20 40 46 callgsubr
          552 20 hintmask 11110110
          -50 callgsubr
          459 -170 -86 callgsubr
          133 823 rmoveto
          hintmask 11101110
          -93 callsubr
        </CharString>
        <CharString name="uni01C9">
          -133 -170 20 -20 184 2 -21 524 -20 231 -20 hstemhm
          90 20 220 20 hintmask 10111110
          90 77 rmoveto
          -49 32 -33 47 18 33 6 6 18 vhcurveto
          -7 16 rlineto
          hintmask 01011110
          -5 -17 -23 -4 -15 hhcurveto
          -40 -26 24 39 hvcurveto
          653 -20 vlineto
          127 -900 -33 callsubr
          555 -20 -555 vlineto
          hintmask 10111110
          -17 callsubr
        </CharString>
        <CharString name="uni01CA">
          682 -11 20 12 -21 710 46 callgsubr
          538 20 462 20 hintmask 01111100
          -84 callgsubr
          676 -638 rmoveto
          hintmask 10111100
          -88 callgsubr
          endchar
        </CharString>
        <CharString name="uni01CB">
          405 -170 20 171 -52 callsubr
          211 -20 40 46 callgsubr
          538 20 191 20 hintmask 11110111
          -84 callgsubr
          636 -841 -86 callgsubr
          133 823 rmoveto
          hintmask 11101111
          -93 callsubr
        </CharString>
        <CharString name="uni01CC">
          194 -170 20 171 -47 callsubr
          84 20 363 20 170 20 hintmask 11101111
          -69 callsubr
          hintmask 11011111
          134 -2 callsubr
          20 328 vlineto
          hintmask 11101111
          -68 callgsubr
          57 -170 -33 callsubr
          hintmask 11011111
          555 -20 -555 vlineto
          -17 callsubr
        </CharString>
        <CharString name="uni01F1">
          750 17 callsubr
          hstem
          99 20 521 20 vstem
          -101 callsubr
          81 -356 rmoveto
          -80 callsubr
          endchar
        </CharString>
        <CharString name="uni01F2">
          632 0 20 479 20 171 20 hstem
          99 20 521 20 vstem
          -101 callsubr
          104 -356 rmoveto
          -80 callgsubr
          endchar
        </CharString>
        <CharString name="uni01F3">
          -87 callsubr
          endchar
        </CharString>
        <CharString name="uni0218">
          35 -146 -21 183 -21 720 -20 hstem
          63 20 462 20 vstem
          -105 callgsubr
          -196 -783 -85 callgsubr
        </CharString>
        <CharString name="uni0219">
          -96 -146 -21 157 -49 callgsubr
          hstem
          61 20 327 20 vstem
          235 -105 callsubr
          -3 -157 -85 callgsubr
        </CharString>
        <CharString name="uni021A">
          33 -146 -21 188 41 callgsubr
          -53 callgsubr
          -285 -857 -85 callgsubr
        </CharString>
        <CharString name="uni021B">
          -272 -146 -21 162 20 484 20 181 -20 hstem
          101 -82 callgsubr
          -98 -191 -85 callgsubr
        </CharString>
        <CharString name="uni02C9">
          -187 686 20 hstem
          330 686 -46 callgsubr
        </CharString>
        <CharString name="uni030F">
          -269 17 callgsubr
          232 645 rmoveto
          16 12 -90 callsubr
        </CharString>
        <CharString name="uni0311">
          -319 674 -21 60 -20 37 -20 hstemhm
          hintmask 11000000
          124 713 -60 callsubr
          hintmask 10100000
          -72 callsubr
          hintmask 11000000
          -40 callgsubr
        </CharString>
        <CharString name="uni0394">
          80 0 20 -1 callgsubr
          hstem
          333 -16 callgsubr
        </CharString>
        <CharString name="uni03A9">
          -69 callgsubr
        </CharString>
        <CharString name="uni03BC">
          15 26 callgsubr
          84 20 373 20 hintmask 11011100
          84 -212 rmoveto
          20 306 hlineto
          -69 25 49 -35 73 hhcurveto
          93 88 55 87 45 hvcurveto
          -92 vlineto
          -17 9 -16 13 -5 vhcurveto
          hintmask 10111100
          -2 3 3 0 8 hhcurveto
          -20 callsubr
          479 -19 callgsubr
          hintmask 11011100
          -104 -31 -95 -75 -100 hhcurveto
          -99 -48 71 147 hvcurveto
          291 -20 vlineto
          endchar
        </CharString>
        <CharString name="uni0400">
          49 -63 callgsubr
          208 -20 -89 callsubr
          -207 813 -76 callsubr
        </CharString>
        <CharString name="uni0401">
          49 -63 callgsubr
          208 -20 hstem
          99 20 157 20 96 20 vstem
          -102 callgsubr
          -269 821 -50 callsubr
          136 hmoveto
          -93 callsubr
        </CharString>
        <CharString name="uni0402">
          110 -10 21 10 -21 417 22 251 20 hstemhm
          208 20 397 21 hintmask 01111100
          208 hmoveto
          20 342 hlineto
          51 51 58 24 75 hhcurveto
          136 77 -73 -128 hvcurveto
          hintmask 10111100
          -131 -73 -74 -129 -34 -17 4 19 -38 vhcurveto
          -8 -22 rlineto
          -17 34 23 -5 38 hhcurveto
          146 79 79 147 144 -83 79 -150 -79 -60 -23 -47 -46 hvcurveto
          321 278 20 -490 -20 192 vlineto
          endchar
        </CharString>
        <CharString name="uni0403">
          -35 25 callsubr
          208 -20 hstem
          99 20 vstem
          360 42 callsubr
          230 -123 rmoveto
          -409 -710 20 690 389 hlineto
          endchar
        </CharString>
        <CharString name="uni0404">
          130 -6 20 339 20 321 20 hstem
          48 20 vstem
          640 164 rmoveto
          -104 -55 -109 -46 -94 hhcurveto
          -174 -138 159 180 -2 hvcurveto
          385 20 -385 hlineto
          159 7 112 162 192 hhcurveto
          91 98 -37 -104 55 hvcurveto
          19 6 rlineto
          90 -43 -90 65 -126 hhcurveto
          -213 -122 -184 -170 -180 137 -186 193 108 124 58 107 49 hvcurveto
          endchar
        </CharString>
        <CharString name="uni0405">
          35 16 -21 720 -20 hstem
          63 20 462 20 vstem
          -105 callgsubr
          endchar
        </CharString>
        <CharString name="uni0406">
          1 callgsubr
        </CharString>
        <CharString name="uni0407">
          -36 callsubr
        </CharString>
        <CharString name="uni0408">
          -94 -11 20 701 -20 hstem
          363 20 vstem
          19 33 rmoveto
          -88 callgsubr
          endchar
        </CharString>
        <CharString name="uni0409">
          421 0 20 348 20 302 20 hstem
          513 20 405 20 vstem
          5 hmoveto
          110 64 146 400 33 hvcurveto
          12 144 rlineto
          289 -690 228 -3 callgsubr
          -205 322 18 callsubr
          528 hmoveto
          348 205 -5 callgsubr
        </CharString>
        <CharString name="uni040A">
          470 0 20 348 20 322 -20 hstem
          99 20 423 20 425 20 vstem
          542 hmoveto
          248 -3 callgsubr
          -225 322 -20 -322 -423 322 -20 -710 20 368 423 hlineto
          20 -348 rmoveto
          348 225 -5 callgsubr
        </CharString>
        <CharString name="uni040B">
          118 21 -21 406 20 264 20 hstem
          208 20 vstem
          624 hmoveto
          19 182 hlineto
          170 -69 74 -160 -65 -64 -15 -27 -57 vhcurveto
          306 278 20 -490 -20 192 -690 20 362 vlineto
          25 45 79 19 70 hhcurveto
          142 60 -67 -159 hvcurveto
          endchar
        </CharString>
        <CharString name="uni040C">
          -7 24 callsubr
          228 -20 hstem
          99 20 vstem
          373 42 callsubr
          -172 -123 rmoveto
          -20 -710 20 361 149 hlineto
          264 -361 rlineto
          26 hlineto
          -274 371 241 339 rlineto
          -26 hlineto
          -229 -329 rlineto
          -151 hlineto
          endchar
        </CharString>
        <CharString name="uni040D">
          180 -71 callsubr
          228 -20 hstem
          99 20 509 20 vstem
          399 833 rmoveto
          16 12 -65 73 rlineto
          -33 hlineto
          -198 -208 rmoveto
          -20 -710 25 hlineto
          504 673 rlineto
          -673 20 710 -19 vlineto
          -510 -683 rlineto
          endchar
        </CharString>
        <CharString name="uni040E">
          51 -8 20 698 -20 226 -46 callsubr
          151 847 rmoveto
          92 42 36 41 hvcurveto
          -18 hlineto
          12 callgsubr
          vhcurveto
          endchar
        </CharString>
        <CharString name="uni040F">
          120 -165 -21 186 37 callsubr
          214 20 215 20 vstem
          99 hmoveto
          234 -186 20 186 235 -39 callsubr
          -690 -449 -1 callgsubr
          hlineto
          endchar
        </CharString>
        <CharString name="uni0410">
          -57 callsubr
          hstem
          -104 callgsubr
          endchar
        </CharString>
        <CharString name="uni0411">
          74 0 20 348 20 302 20 hstem
          99 20 466 20 vstem
          99 hmoveto
          289 -3 callgsubr
          -266 302 429 20 -449 hlineto
          20 -690 rmoveto
          348 266 -5 callgsubr
        </CharString>
        <CharString name="uni0412">
          -66 callgsubr
        </CharString>
        <CharString name="uni0413">
          -35 25 callsubr
          hstem
          99 20 vstem
          508 -22 callsubr
          -409 -710 20 690 389 hlineto
          endchar
        </CharString>
        <CharString name="uni0414">
          114 -164 -21 185 20 670 20 hstem
          16 20 517 20 60 20 vstem
          16 -185 rmoveto
          20 185 597 -185 20 205 -80 690 -364 hlineto
          -13 -154 -37 -463 -43 -53 -70 -20 rlinecurve
          -30 hlineto
          71 hmoveto
          72 31 28 157 28 338 12 144 rcurveline
          326 -670 hlineto
          endchar
        </CharString>
        <CharString name="uni0415">
          -30 callgsubr
        </CharString>
        <CharString name="uni0416">
          313 24 callsubr
          hstem
          430 20 vstem
          6 hmoveto
          26 hlineto
          234 361 rlineto
          164 -361 20 361 164 hlineto
          234 -361 rlineto
          26 hlineto
          -244 371 211 339 rlineto
          -26 hlineto
          -199 -329 rlineto
          -166 329 -20 -329 -166 hlineto
          -199 329 rlineto
          -26 hlineto
          210 -339 rlineto
          endchar
        </CharString>
        <CharString name="uni0417">
          -33 -5 20 370 20 290 20 hstem
          434 20 10 20 vstem
          83 615 rmoveto
          41 28 69 39 80 hhcurveto
          109 65 -50 -91 -95 -71 -54 -134 hvcurveto
          -35 -20 35 hlineto
          148 87 -73 -118 -112 -79 -67 -121 -92 -90 47 66 -33 hvcurveto
          -17 -14 rlineto
          -69 39 89 -50 100 hhcurveto
          135 89 78 119 99 -55 83 -109 20 hvcurveto
          94 22 40 54 82 vvcurveto
          102 -73 61 -121 -85 -79 -43 -45 -29 vhcurveto
          endchar
        </CharString>
        <CharString name="uni0418">
          180 23 callsubr
          509 20 vstem
          119 -22 callsubr
          -20 -710 25 hlineto
          504 673 rlineto
          -673 20 710 -19 vlineto
          -510 -683 rlineto
          endchar
        </CharString>
        <CharString name="uni0419">
          180 -71 callsubr
          226 -20 hstem
          99 20 509 20 vstem
          480 916 rmoveto
          12 callgsubr
          92 42 36 41 vhcurveto
          -379 -206 rmoveto
          -20 -710 25 hlineto
          504 673 rlineto
          -673 20 710 -19 vlineto
          -510 -683 rlineto
          endchar
        </CharString>
        <CharString name="uni041A">
          -7 24 callsubr
          hstem
          99 20 vstem
          119 -22 callsubr
          -20 -710 20 361 149 hlineto
          264 -361 rlineto
          26 hlineto
          -274 371 241 339 rlineto
          -26 hlineto
          -229 -329 rlineto
          -151 hlineto
          endchar
        </CharString>
        <CharString name="uni041B">
          65 17 callsubr
          hstem
          513 20 vstem
          224 690 rmoveto
          289 -690 20 710 18 callsubr
          -20 vlineto
          110 64 146 400 33 hvcurveto
          endchar
        </CharString>
        <CharString name="uni041C">
          -44 callgsubr
        </CharString>
        <CharString name="uni041D">
          164 21 -21 353 20 337 -20 hstem
          99 20 493 -59 callgsubr
          endchar
        </CharString>
        <CharString name="uni041E">
          -5 20 680 20 hstem
          -7 callsubr
          vstem
          -107 callsubr
          endchar
        </CharString>
        <CharString name="uni041F">
          137 25 callsubr
          hstem
          99 20 466 20 vstem
          99 hmoveto
          20 690 466 -690 20 710 -506 hlineto
          endchar
        </CharString>
        <CharString name="uni0420">
          -52 callgsubr
        </CharString>
        <CharString name="uni0421">
          131 -6 20 680 20 hstem
          48 -103 callgsubr
          endchar
        </CharString>
        <CharString name="uni0422">
          31 25 callsubr
          hstem
          289 20 vstem
          581 -22 callsubr
          -564 -20 272 -690 20 690 272 hlineto
          endchar
        </CharString>
        <CharString name="uni0423">
          51 -8 20 698 -46 callsubr
          endchar
        </CharString>
        <CharString name="uni0424">
          163 -9 -21 117 21 557 22 113 -20 hstem
          32 21 301 20 303 21 vstem
          354 -30 rmoveto
          20 117 hlineto
          187 4 137 112 183 vvcurveto
          174 -130 123 -194 4 vhcurveto
          113 -20 -113 vlineto
          -193 -5 -129 -122 -174 vvcurveto
          -183 138 -113 184 -3 vhcurveto
          20 21 rmoveto
          557 vlineto
          180 -4 123 -109 -165 vvcurveto
          -168 -127 -107 -176 -4 vhcurveto
          -20 hmoveto
          -174 4 -127 107 168 vvcurveto
          165 123 109 178 4 vhcurveto
          endchar
        </CharString>
        <CharString name="uni0425">
          -45 callsubr
        </CharString>
        <CharString name="uni0426">
          129 -164 -21 185 37 callsubr
          449 20 60 20 vstem
          648 -185 rmoveto
          20 205 -80 -1 callgsubr
          -690 -449 -1 callgsubr
          -710 549 hlineto
          endchar
        </CharString>
        <CharString name="uni0427">
          35 21 -21 284 20 406 -20 hstem
          483 20 vstem
          483 353 rmoveto
          -28 -45 -89 -21 -79 hhcurveto
          -142 -60 67 159 hvcurveto
          180 -19 -182 vlineto
          -170 69 -74 160 72 70 16 30 63 vhcurveto
          -330 20 -39 callsubr
          vlineto
          endchar
        </CharString>
        <CharString name="uni0428">
          331 0 22 callsubr
          cntrmask 00111000
          779 -22 callsubr
          8 callgsubr
          700 710 vlineto
          endchar
        </CharString>
        <CharString name="uni0429">
          340 -164 -21 185 22 callsubr
          60 20 vstem
          859 -185 rmoveto
          20 205 -80 -1 callgsubr
          8 callgsubr
          760 hlineto
          endchar
        </CharString>
        <CharString name="uni042A">
          136 0 20 378 20 272 20 hstem
          226 20 405 20 vstem
          15 690 rmoveto
          211 -690 228 hlineto
          147 70 99 110 121 -68 88 -152 hvcurveto
          -205 292 -231 hlineto
          231 -312 rmoveto
          205 hlineto
          157 43 -91 -98 -95 -55 -94 -142 hvcurveto
          -208 hlineto
          endchar
        </CharString>
        <CharString name="uni042B">
          232 0 20 378 20 291 -20 21 46 callgsubr
          405 20 136 20 hintmask 11011110
          -35 callsubr
          581 -20 rmoveto
          hintmask 11101110
          709 -20 -709 vlineto
          endchar
        </CharString>
        <CharString name="uni042C">
          9 0 20 378 20 292 -20 hstem
          99 20 405 20 vstem
          -35 callsubr
          endchar
        </CharString>
        <CharString name="uni042D">
          130 -6 20 339 20 321 20 hstem
          628 21 vstem
          319 -6 rmoveto
          193 137 186 180 170 -122 184 -213 -126 -90 -65 -90 -43 hvcurveto
          19 -6 rlineto
          104 55 98 37 91 hhcurveto
          191 112 -162 -159 7 hvcurveto
          -384 -20 385 hlineto
          -180 -2 -139 -159 -173 hhcurveto
          -94 -109 46 104 -55 hvcurveto
          -19 -5 rlineto
          -107 49 124 -58 108 hhcurveto
          endchar
        </CharString>
        <CharString name="uni042E">
          393 -5 20 6 -21 345 20 330 20 -5 46 callgsubr
          160 20 591 20 hintmask 10110111
          590 -5 rmoveto
          180 140 139 221 207 -130 153 -190 -173 -134 -137 -213 -4 hvcurveto
          -160 hlineto
          hintmask 01101111
          345 -20 -710 20 345 160 vlineto
          hintmask 10110111
          4 -207 126 -142 181 -1 rrcurveto
          -291 360 rmoveto
          198 118 142 173 170 130 -133 -207 -197 -121 -143 -179 -168 -123 133 207 vhcurveto
          endchar
        </CharString>
        <CharString name="uni042F">
          54 21 -21 309 20 361 20 hstem
          83 20 399 20 vstem
          522 hmoveto
          710 -209 vlineto
          -144 -86 -89 -106 -94 52 -77 96 -26 hvcurveto
          -195 -318 rlineto
          25 hlineto
          191 313 rlineto
          -3 17 18 -1 19 hhcurveto
          196 -309 hlineto
          329 vmoveto
          -196 hlineto
          -136 -67 85 101 101 82 74 128 hvcurveto
          189 hlineto
          endchar
        </CharString>
        <CharString name="uni0430">
          -71 callgsubr
          -9 callsubr
          hintmask 10111100
          -94 callgsubr
          hintmask 01111100
          -2 3 3 0 8 hhcurveto
          -56 callsubr
          7 13 hvcurveto
          287 vlineto
          122 -74 78 -116 -54 -60 -23 -45 -66 vhcurveto
          12 -16 rlineto
          41 58 60 23 50 hhcurveto
          102 68 -72 -108 hvcurveto
          -59 vlineto
          18 -49 -66 11 -59 hhcurveto
          -126 -88 -61 -87 hvcurveto
          hintmask 10111100
          -104 callsubr
          endchar
        </CharString>
</ttFont>
